<svg width="230" height="366" viewBox="0 0 230 366" fill="none" xmlns="http://www.w3.org/2000/svg">
<path d="M16 0.5H214C222.56 0.5 229.5 7.43959 229.5 16V350C229.5 358.56 222.56 365.5 214 365.5H16C7.43959 365.5 0.500004 358.56 0.500004 350V16C0.500004 7.43958 7.43959 0.5 16 0.5Z" fill="white" stroke="black"/>
<path d="M16 24C16 19.5817 19.5817 16 24 16H206C210.418 16 214 19.5817 214 24V342C214 346.418 210.418 350 206 350H24C19.5817 350 16 346.418 16 342V24Z" fill="#FF00FF"/>
<ellipse cx="115.174" cy="182.752" rx="79.14" ry="149.259" transform="rotate(30.6494 115.174 182.752)" fill="white"/>
<g filter="url(#filter0_d_1_513)">
<mask id="path-4-outside-1_1_513" maskUnits="userSpaceOnUse" x="22" y="26" width="30" height="37" fill="black">
<rect fill="white" x="22" y="26" width="30" height="37"/>
<path d="M32.6563 40.5625C33.8281 39.8906 34.7266 39.4453 35.3516 39.2266C36.3984 38.8672 37.6172 38.6875 39.0078 38.6875C41.8203 38.6875 44.0703 39.6328 45.7578 41.5234C47.4453 43.4141 47.9063 46.1641 47.1406 49.7734C46.4844 52.9141 44.8828 55.7188 42.3359 58.1875C39.7891 60.6562 36.5078 61.8906 32.4922 61.8906C29.2578 61.8906 26.7891 61.0234 25.0859 59.2891C23.3828 57.5547 22.75 55.0938 23.1875 51.9062H29.8438C29.7969 53.3594 30.0625 54.4844 30.6406 55.2812C31.2344 56.0625 32.25 56.4531 33.6875 56.4531C35.3438 56.4531 36.7266 55.875 37.8359 54.7188C38.9453 53.5469 39.6875 52.0781 40.0625 50.3125C40.4375 48.5781 40.3438 47.1172 39.7813 45.9297C39.2344 44.7266 38.1016 44.125 36.3828 44.125C35.5703 44.125 34.8438 44.2266 34.2031 44.4297C33.0781 44.8047 32.1406 45.5 31.3906 46.5156L25.4375 46.2344L31.8359 27.4609H50.5625L49.3438 33.1328H35.4453L32.6563 40.5625Z"/>
</mask>
<path d="M32.6563 40.5625C33.8281 39.8906 34.7266 39.4453 35.3516 39.2266C36.3984 38.8672 37.6172 38.6875 39.0078 38.6875C41.8203 38.6875 44.0703 39.6328 45.7578 41.5234C47.4453 43.4141 47.9063 46.1641 47.1406 49.7734C46.4844 52.9141 44.8828 55.7188 42.3359 58.1875C39.7891 60.6562 36.5078 61.8906 32.4922 61.8906C29.2578 61.8906 26.7891 61.0234 25.0859 59.2891C23.3828 57.5547 22.75 55.0938 23.1875 51.9062H29.8438C29.7969 53.3594 30.0625 54.4844 30.6406 55.2812C31.2344 56.0625 32.25 56.4531 33.6875 56.4531C35.3438 56.4531 36.7266 55.875 37.8359 54.7188C38.9453 53.5469 39.6875 52.0781 40.0625 50.3125C40.4375 48.5781 40.3438 47.1172 39.7813 45.9297C39.2344 44.7266 38.1016 44.125 36.3828 44.125C35.5703 44.125 34.8438 44.2266 34.2031 44.4297C33.0781 44.8047 32.1406 45.5 31.3906 46.5156L25.4375 46.2344L31.8359 27.4609H50.5625L49.3438 33.1328H35.4453L32.6563 40.5625Z" fill="white"/>
<path d="M32.6563 40.5625L32.1881 40.3868L31.7 41.6871L32.9049 40.9963L32.6563 40.5625ZM35.3516 39.2266L35.1892 38.7536L35.1864 38.7546L35.3516 39.2266ZM47.1406 49.7734L46.6515 49.6697L46.6512 49.6712L47.1406 49.7734ZM23.1875 51.9062V51.4062H22.7514L22.6921 51.8383L23.1875 51.9062ZM29.8438 51.9062L30.3435 51.9224L30.3601 51.4062H29.8438V51.9062ZM30.6406 55.2812L30.2358 55.5749L30.2425 55.5838L30.6406 55.2812ZM37.8359 54.7188L38.1967 55.0649L38.199 55.0625L37.8359 54.7188ZM40.0625 50.3125L39.5738 50.2068L39.5734 50.2086L40.0625 50.3125ZM39.7813 45.9297L39.326 46.1366L39.3294 46.1437L39.7813 45.9297ZM34.2031 44.4297L34.052 43.953L34.045 43.9553L34.2031 44.4297ZM31.3906 46.5156L31.367 47.0151L31.634 47.0277L31.7928 46.8126L31.3906 46.5156ZM25.4375 46.2344L24.9642 46.0731L24.7497 46.7024L25.4139 46.7338L25.4375 46.2344ZM31.8359 27.4609V26.9609H31.4781L31.3627 27.2996L31.8359 27.4609ZM50.5625 27.4609L51.0513 27.566L51.1814 26.9609H50.5625V27.4609ZM49.3438 33.1328V33.6328H49.7477L49.8326 33.2379L49.3438 33.1328ZM35.4453 33.1328V32.6328H35.0989L34.9772 32.9571L35.4453 33.1328ZM32.9049 40.9963C34.0717 40.3274 34.9372 39.9013 35.5167 39.6985L35.1864 38.7546C34.5159 38.9893 33.5846 39.4539 32.4076 40.1287L32.9049 40.9963ZM35.5139 39.6995C36.4971 39.362 37.6589 39.1875 39.0078 39.1875V38.1875C37.5755 38.1875 36.2998 38.3724 35.1892 38.7537L35.5139 39.6995ZM39.0078 39.1875C41.6953 39.1875 43.8032 40.0844 45.3848 41.8564L46.1308 41.1905C44.3374 39.1812 41.9453 38.1875 39.0078 38.1875V39.1875ZM45.3848 41.8564C46.924 43.5809 47.4 46.1413 46.6515 49.6697L47.6297 49.8772C48.4125 46.1869 47.9666 43.2473 46.1308 41.1905L45.3848 41.8564ZM46.6512 49.6712C46.0175 52.7038 44.471 55.4216 41.9879 57.8285L42.6839 58.5465C45.2947 56.0159 46.9512 53.1243 47.6301 49.8757L46.6512 49.6712ZM41.9879 57.8285C39.5469 60.1946 36.3965 61.3906 32.4922 61.3906V62.3906C36.6191 62.3906 40.0312 61.1179 42.6839 58.5465L41.9879 57.8285ZM32.4922 61.3906C29.346 61.3906 27.0238 60.5489 25.4427 58.9387L24.7292 59.6394C26.5543 61.498 29.1696 62.3906 32.4922 62.3906V61.3906ZM25.4427 58.9387C23.8811 57.3485 23.259 55.062 23.6829 51.9742L22.6921 51.8383C22.241 55.1255 22.8846 57.7609 24.7292 59.6394L25.4427 58.9387ZM23.1875 52.4062H29.8438V51.4062H23.1875V52.4062ZM29.344 51.8901C29.2952 53.4034 29.568 54.6542 30.2359 55.5749L31.0453 54.9876C30.557 54.3145 30.2986 53.3153 30.3435 51.9224L29.344 51.8901ZM30.2425 55.5838C30.9688 56.5394 32.1696 56.9531 33.6875 56.9531V55.9531C32.3304 55.9531 31.4999 55.5856 31.0387 54.9787L30.2425 55.5838ZM33.6875 56.9531C35.4748 56.9531 36.9896 56.3231 38.1967 55.0649L37.4752 54.3726C36.4636 55.4269 35.2127 55.9531 33.6875 55.9531V56.9531ZM38.199 55.0625C39.379 53.8161 40.1598 52.2611 40.5516 50.4164L39.5734 50.2086C39.2152 51.8952 38.5117 53.2777 37.4728 54.375L38.199 55.0625ZM40.5512 50.4182C40.9414 48.6135 40.8569 47.0326 40.2331 45.7156L39.3294 46.1437C39.8306 47.2018 39.9336 48.5427 39.5738 50.2068L40.5512 50.4182ZM40.2364 45.7228C39.9188 45.0241 39.423 44.4888 38.756 44.1346C38.097 43.7846 37.2973 43.625 36.3828 43.625V44.625C37.1871 44.625 37.8131 44.7661 38.287 45.0178C38.7528 45.2651 39.0968 45.6322 39.3261 46.1366L40.2364 45.7228ZM36.3828 43.625C35.5294 43.625 34.7505 43.7316 34.052 43.9531L34.3543 44.9063C34.937 44.7215 35.6112 44.625 36.3828 44.625V43.625ZM34.045 43.9553C32.8159 44.3651 31.7954 45.1258 30.9884 46.2186L31.7928 46.8126C32.4859 45.8742 33.3404 45.2443 34.3612 44.904L34.045 43.9553ZM31.4142 46.0162L25.4611 45.7349L25.4139 46.7338L31.367 47.0151L31.4142 46.0162ZM25.9108 46.3957L32.3092 27.6222L31.3627 27.2996L24.9642 46.0731L25.9108 46.3957ZM31.8359 27.9609H50.5625V26.9609H31.8359V27.9609ZM50.0737 27.3559L48.8549 33.0278L49.8326 33.2379L51.0513 27.566L50.0737 27.3559ZM49.3438 32.6328H35.4453V33.6328H49.3438V32.6328ZM34.9772 32.9571L32.1881 40.3868L33.1244 40.7382L35.9134 33.3085L34.9772 32.9571Z" fill="black" mask="url(#path-4-outside-1_1_513)"/>
</g>
<path d="M99.4805 176.766C103.68 174.358 106.899 172.762 109.139 171.979C112.89 170.691 117.257 170.047 122.24 170.047C132.318 170.047 140.381 173.434 146.428 180.209C152.475 186.984 154.126 196.838 151.383 209.771C149.031 221.025 143.292 231.076 134.166 239.922C125.04 248.768 113.282 253.191 98.8926 253.191C87.3027 253.191 78.4564 250.084 72.3535 243.869C66.2507 237.654 63.9831 228.836 65.5508 217.414H89.4023C89.2344 222.621 90.1862 226.652 92.2578 229.508C94.3854 232.307 98.0247 233.707 103.176 233.707C109.111 233.707 114.066 231.635 118.041 227.492C122.016 223.293 124.676 218.03 126.02 211.703C127.363 205.488 127.027 200.253 125.012 195.998C123.052 191.687 118.993 189.531 112.834 189.531C109.923 189.531 107.319 189.895 105.023 190.623C100.992 191.967 97.6328 194.458 94.9453 198.098L73.6133 197.09L96.541 129.818H163.645L159.277 150.143H109.475L99.4805 176.766Z" fill="black"/>
<mask id="path-7-outside-2_1_513" maskUnits="userSpaceOnUse" x="58" y="119" width="104" height="129" fill="black">
<rect fill="white" x="58" y="119" width="104" height="129"/>
<path d="M94.4805 168.766C98.6797 166.358 101.899 164.762 104.139 163.979C107.89 162.691 112.257 162.047 117.24 162.047C127.318 162.047 135.381 165.434 141.428 172.209C147.475 178.984 149.126 188.838 146.383 201.771C144.031 213.025 138.292 223.076 129.166 231.922C120.04 240.768 108.282 245.191 93.8926 245.191C82.3027 245.191 73.4564 242.084 67.3535 235.869C61.2507 229.654 58.9831 220.836 60.5508 209.414H84.4023C84.2344 214.621 85.1862 218.652 87.2578 221.508C89.3854 224.307 93.0247 225.707 98.1758 225.707C104.111 225.707 109.066 223.635 113.041 219.492C117.016 215.293 119.676 210.03 121.02 203.703C122.363 197.488 122.027 192.253 120.012 187.998C118.052 183.687 113.993 181.531 107.834 181.531C104.923 181.531 102.319 181.895 100.023 182.623C95.9922 183.967 92.6328 186.458 89.9453 190.098L68.6133 189.09L91.541 121.818H158.645L154.277 142.143H104.475L94.4805 168.766Z"/>
</mask>
<path d="M94.4805 168.766C98.6797 166.358 101.899 164.762 104.139 163.979C107.89 162.691 112.257 162.047 117.24 162.047C127.318 162.047 135.381 165.434 141.428 172.209C147.475 178.984 149.126 188.838 146.383 201.771C144.031 213.025 138.292 223.076 129.166 231.922C120.04 240.768 108.282 245.191 93.8926 245.191C82.3027 245.191 73.4564 242.084 67.3535 235.869C61.2507 229.654 58.9831 220.836 60.5508 209.414H84.4023C84.2344 214.621 85.1862 218.652 87.2578 221.508C89.3854 224.307 93.0247 225.707 98.1758 225.707C104.111 225.707 109.066 223.635 113.041 219.492C117.016 215.293 119.676 210.03 121.02 203.703C122.363 197.488 122.027 192.253 120.012 187.998C118.052 183.687 113.993 181.531 107.834 181.531C104.923 181.531 102.319 181.895 100.023 182.623C95.9922 183.967 92.6328 186.458 89.9453 190.098L68.6133 189.09L91.541 121.818H158.645L154.277 142.143H104.475L94.4805 168.766Z" fill="#FF00FF"/>
<path d="M94.4805 168.766L92.6081 168.063L90.6555 173.264L95.4752 170.501L94.4805 168.766ZM104.139 163.979L103.489 162.087L103.478 162.091L104.139 163.979ZM146.383 201.771L144.426 201.356L144.425 201.362L146.383 201.771ZM129.166 231.922L127.774 230.486L129.166 231.922ZM67.3535 235.869L65.9265 237.27L67.3535 235.869ZM60.5508 209.414V207.414H58.8065L58.5694 209.142L60.5508 209.414ZM84.4023 209.414L86.4013 209.479L86.4679 207.414H84.4023V209.414ZM87.2578 221.508L85.639 222.682L85.652 222.7L85.6655 222.718L87.2578 221.508ZM113.041 219.492L114.484 220.877L114.493 220.867L113.041 219.492ZM121.02 203.703L119.065 203.28L119.063 203.288L121.02 203.703ZM120.012 187.998L118.191 188.826L118.198 188.84L118.204 188.854L120.012 187.998ZM100.023 182.623L99.4189 180.717L99.4049 180.721L99.391 180.726L100.023 182.623ZM89.9453 190.098L89.8509 192.095L90.919 192.146L91.5542 191.286L89.9453 190.098ZM68.6133 189.09L66.7202 188.445L65.8622 190.962L68.5189 191.088L68.6133 189.09ZM91.541 121.818V119.818H90.1097L89.6479 121.173L91.541 121.818ZM158.645 121.818L160.6 122.239L161.12 119.818H158.645V121.818ZM154.277 142.143V144.143H155.893L156.233 142.563L154.277 142.143ZM104.475 142.143V140.143H103.089L102.602 141.44L104.475 142.143ZM95.4752 170.501C99.6538 168.105 102.742 166.586 104.799 165.866L103.478 162.091C101.057 162.938 97.7056 164.611 93.4857 167.031L95.4752 170.501ZM104.788 165.87C108.285 164.67 112.424 164.047 117.24 164.047V160.047C112.09 160.047 107.495 160.712 103.489 162.087L104.788 165.87ZM117.24 164.047C126.818 164.047 134.312 167.241 139.936 173.541L142.92 170.877C136.449 163.628 127.818 160.047 117.24 160.047V164.047ZM139.936 173.541C145.389 179.651 147.101 188.747 144.426 201.356L148.339 202.186C151.151 188.929 149.56 178.317 142.92 170.877L139.936 173.541ZM144.425 201.362C142.164 212.184 136.645 221.887 127.774 230.486L130.558 233.358C139.94 224.264 145.899 213.867 148.341 202.181L144.425 201.362ZM127.774 230.486C119.071 238.922 107.837 243.191 93.8926 243.191V247.191C108.727 247.191 121.008 242.615 130.558 233.358L127.774 230.486ZM93.8926 243.191C82.6555 243.191 74.3955 240.186 68.7805 234.468L65.9265 237.27C72.5173 243.982 81.95 247.191 93.8926 247.191V243.191ZM68.7805 234.468C63.2436 228.829 61.0192 220.709 62.5322 209.686L58.5694 209.142C56.9469 220.963 59.2577 230.479 65.9265 237.27L68.7805 234.468ZM60.5508 211.414H84.4023V207.414H60.5508V211.414ZM82.4034 209.35C82.2277 214.797 83.2082 219.332 85.639 222.682L88.8767 220.333C87.1642 217.973 86.2411 214.445 86.4013 209.479L82.4034 209.35ZM85.6655 222.718C88.3233 226.215 92.7031 227.707 98.1758 227.707V223.707C93.3464 223.707 90.4475 222.4 88.8501 220.298L85.6655 222.718ZM98.1758 227.707C104.635 227.707 110.118 225.428 114.484 220.877L111.598 218.108C108.014 221.843 103.586 223.707 98.1758 223.707V227.707ZM114.493 220.867C118.751 216.37 121.565 210.762 122.976 204.119L119.063 203.288C117.787 209.298 115.282 214.216 111.589 218.117L114.493 220.867ZM122.974 204.126C124.379 197.63 124.08 191.915 121.819 187.142L118.204 188.854C119.975 192.592 120.348 197.347 119.065 203.28L122.974 204.126ZM121.832 187.17C120.676 184.626 118.868 182.673 116.436 181.382C114.036 180.107 111.134 179.531 107.834 179.531V183.531C110.693 183.531 112.9 184.033 114.56 184.914C116.187 185.778 117.388 187.059 118.191 188.826L121.832 187.17ZM107.834 179.531C104.759 179.531 101.946 179.915 99.4189 180.717L100.628 184.53C102.692 183.875 105.086 183.531 107.834 183.531V179.531ZM99.391 180.726C94.9431 182.208 91.2519 184.962 88.3364 188.91L91.5542 191.286C94.0137 187.955 97.0413 185.725 100.656 184.52L99.391 180.726ZM90.0397 188.1L68.7077 187.092L68.5189 191.088L89.8509 192.095L90.0397 188.1ZM70.5064 189.735L93.4341 122.464L89.6479 121.173L66.7202 188.445L70.5064 189.735ZM91.541 123.818H158.645V119.818H91.541V123.818ZM156.689 121.398L152.322 141.722L156.233 142.563L160.6 122.239L156.689 121.398ZM154.277 140.143H104.475V144.143H154.277V140.143ZM102.602 141.44L92.6081 168.063L96.3529 169.469L106.347 142.845L102.602 141.44Z" fill="black" mask="url(#path-7-outside-2_1_513)"/>
<g filter="url(#filter1_d_1_513)">
<mask id="path-9-outside-3_1_513" maskUnits="userSpaceOnUse" x="178" y="306" width="30" height="37" fill="black">
<rect fill="white" x="178" y="306" width="30" height="37"/>
<path d="M197.344 328.437C196.172 329.109 195.273 329.555 194.648 329.773C193.602 330.133 192.383 330.312 190.992 330.312C188.18 330.312 185.93 329.367 184.242 327.477C182.555 325.586 182.094 322.836 182.859 319.227C183.516 316.086 185.117 313.281 187.664 310.812C190.211 308.344 193.492 307.109 197.508 307.109C200.742 307.109 203.211 307.977 204.914 309.711C206.617 311.445 207.25 313.906 206.813 317.094L200.156 317.094C200.203 315.641 199.938 314.516 199.359 313.719C198.766 312.937 197.75 312.547 196.313 312.547C194.656 312.547 193.273 313.125 192.164 314.281C191.055 315.453 190.313 316.922 189.938 318.687C189.563 320.422 189.656 321.883 190.219 323.07C190.766 324.273 191.898 324.875 193.617 324.875C194.43 324.875 195.156 324.773 195.797 324.57C196.922 324.195 197.859 323.5 198.609 322.484L204.563 322.766L198.164 341.539L179.438 341.539L180.656 335.867L194.555 335.867L197.344 328.437Z"/>
</mask>
<path d="M197.344 328.437C196.172 329.109 195.273 329.555 194.648 329.773C193.602 330.133 192.383 330.312 190.992 330.312C188.18 330.312 185.93 329.367 184.242 327.477C182.555 325.586 182.094 322.836 182.859 319.227C183.516 316.086 185.117 313.281 187.664 310.812C190.211 308.344 193.492 307.109 197.508 307.109C200.742 307.109 203.211 307.977 204.914 309.711C206.617 311.445 207.25 313.906 206.813 317.094L200.156 317.094C200.203 315.641 199.938 314.516 199.359 313.719C198.766 312.937 197.75 312.547 196.313 312.547C194.656 312.547 193.273 313.125 192.164 314.281C191.055 315.453 190.313 316.922 189.938 318.687C189.563 320.422 189.656 321.883 190.219 323.07C190.766 324.273 191.898 324.875 193.617 324.875C194.43 324.875 195.156 324.773 195.797 324.57C196.922 324.195 197.859 323.5 198.609 322.484L204.563 322.766L198.164 341.539L179.438 341.539L180.656 335.867L194.555 335.867L197.344 328.437Z" fill="white"/>
<path d="M197.344 328.437L197.812 328.613L198.3 327.313L197.095 328.004L197.344 328.437ZM194.648 329.773L194.811 330.246L194.814 330.245L194.648 329.773ZM182.859 319.227L183.348 319.33L183.349 319.329L182.859 319.227ZM206.813 317.094L206.813 317.594L207.249 317.594L207.308 317.162L206.813 317.094ZM200.156 317.094L199.657 317.078L199.64 317.594L200.156 317.594L200.156 317.094ZM199.359 313.719L199.764 313.425L199.757 313.416L199.359 313.719ZM192.164 314.281L191.803 313.935L191.801 313.938L192.164 314.281ZM189.938 318.687L190.426 318.793L190.427 318.791L189.938 318.687ZM190.219 323.07L190.674 322.863L190.671 322.856L190.219 323.07ZM195.797 324.57L195.948 325.047L195.955 325.045L195.797 324.57ZM198.609 322.484L198.633 321.985L198.366 321.972L198.207 322.187L198.609 322.484ZM204.563 322.766L205.036 322.927L205.25 322.298L204.586 322.266L204.563 322.766ZM198.164 341.539L198.164 342.039L198.522 342.039L198.637 341.7L198.164 341.539ZM179.438 341.539L178.949 341.434L178.819 342.039L179.438 342.039L179.438 341.539ZM180.656 335.867L180.656 335.367L180.252 335.367L180.167 335.762L180.656 335.867ZM194.555 335.867L194.555 336.367L194.901 336.367L195.023 336.043L194.555 335.867ZM197.095 328.004C195.928 328.673 195.063 329.099 194.483 329.302L194.814 330.245C195.484 330.011 196.415 329.546 197.592 328.871L197.095 328.004ZM194.486 329.301C193.503 329.638 192.341 329.812 190.992 329.812L190.992 330.812C192.425 330.812 193.7 330.628 194.811 330.246L194.486 329.301ZM190.992 329.812C188.305 329.812 186.197 328.916 184.615 327.144L183.869 327.81C185.663 329.819 188.055 330.812 190.992 330.812L190.992 329.812ZM184.615 327.144C183.076 325.419 182.6 322.859 183.348 319.33L182.37 319.123C181.587 322.813 182.033 325.753 183.869 327.81L184.615 327.144ZM183.349 319.329C183.982 316.296 185.529 313.578 188.012 311.172L187.316 310.453C184.705 312.984 183.049 315.876 182.37 319.124L183.349 319.329ZM188.012 311.172C190.453 308.805 193.603 307.609 197.508 307.609L197.508 306.609C193.381 306.609 189.969 307.882 187.316 310.453L188.012 311.172ZM197.508 307.609C200.654 307.609 202.976 308.451 204.557 310.061L205.271 309.361C203.446 307.502 200.83 306.609 197.508 306.609L197.508 307.609ZM204.557 310.061C206.119 311.652 206.741 313.938 206.317 317.026L207.308 317.162C207.759 313.875 207.115 311.239 205.271 309.361L204.557 310.061ZM206.813 316.594L200.156 316.594L200.156 317.594L206.813 317.594L206.813 316.594ZM200.656 317.11C200.705 315.597 200.432 314.346 199.764 313.425L198.955 314.012C199.443 314.685 199.701 315.685 199.657 317.078L200.656 317.11ZM199.757 313.416C199.031 312.461 197.83 312.047 196.313 312.047L196.313 313.047C197.67 313.047 198.5 313.414 198.961 314.021L199.757 313.416ZM196.313 312.047C194.525 312.047 193.01 312.677 191.803 313.935L192.525 314.627C193.536 313.573 194.787 313.047 196.313 313.047L196.313 312.047ZM191.801 313.938C190.621 315.184 189.84 316.739 189.448 318.584L190.427 318.791C190.785 317.105 191.488 315.722 192.527 314.625L191.801 313.938ZM189.449 318.582C189.059 320.386 189.143 321.967 189.767 323.284L190.671 322.856C190.169 321.798 190.066 320.457 190.426 318.793L189.449 318.582ZM189.764 323.277C190.081 323.976 190.577 324.511 191.244 324.865C191.903 325.215 192.703 325.375 193.617 325.375L193.617 324.375C192.813 324.375 192.187 324.234 191.713 323.982C191.247 323.735 190.903 323.368 190.674 322.863L189.764 323.277ZM193.617 325.375C194.471 325.375 195.25 325.268 195.948 325.047L195.646 324.094C195.063 324.278 194.389 324.375 193.617 324.375L193.617 325.375ZM195.955 325.045C197.184 324.635 198.205 323.874 199.012 322.781L198.207 322.187C197.514 323.126 196.66 323.756 195.639 324.096L195.955 325.045ZM198.586 322.984L204.539 323.265L204.586 322.266L198.633 321.985L198.586 322.984ZM204.089 322.604L197.691 341.378L198.637 341.7L205.036 322.927L204.089 322.604ZM198.164 341.039L179.438 341.039L179.438 342.039L198.164 342.039L198.164 341.039ZM179.926 341.644L181.145 335.972L180.167 335.762L178.949 341.434L179.926 341.644ZM180.656 336.367L194.555 336.367L194.555 335.367L180.656 335.367L180.656 336.367ZM195.023 336.043L197.812 328.613L196.876 328.262L194.087 335.691L195.023 336.043Z" fill="black" mask="url(#path-9-outside-3_1_513)"/>
</g>
<defs>
<filter id="filter0_d_1_513" x="21.5536" y="25.9609" width="32.6277" height="39.4297" filterUnits="userSpaceOnUse" color-interpolation-filters="sRGB">
<feFlood flood-opacity="0" result="BackgroundImageFix"/>
<feColorMatrix in="SourceAlpha" type="matrix" values="0 0 0 0 0 0 0 0 0 0 0 0 0 0 0 0 0 0 127 0" result="hardAlpha"/>
<feOffset dx="1" dy="1"/>
<feGaussianBlur stdDeviation="1"/>
<feComposite in2="hardAlpha" operator="out"/>
<feColorMatrix type="matrix" values="0 0 0 0 0 0 0 0 0 0 0 0 0 0 0 0 0 0 0.8 0"/>
<feBlend mode="normal" in2="BackgroundImageFix" result="effect1_dropShadow_1_513"/>
<feBlend mode="normal" in="SourceGraphic" in2="effect1_dropShadow_1_513" result="shape"/>
</filter>
<filter id="filter1_d_1_513" x="175.819" y="303.609" width="32.6277" height="39.4297" filterUnits="userSpaceOnUse" color-interpolation-filters="sRGB">
<feFlood flood-opacity="0" result="BackgroundImageFix"/>
<feColorMatrix in="SourceAlpha" type="matrix" values="0 0 0 0 0 0 0 0 0 0 0 0 0 0 0 0 0 0 127 0" result="hardAlpha"/>
<feOffset dx="-1" dy="-1"/>
<feGaussianBlur stdDeviation="1"/>
<feComposite in2="hardAlpha" operator="out"/>
<feColorMatrix type="matrix" values="0 0 0 0 0 0 0 0 0 0 0 0 0 0 0 0 0 0 0.8 0"/>
<feBlend mode="normal" in2="BackgroundImageFix" result="effect1_dropShadow_1_513"/>
<feBlend mode="normal" in="SourceGraphic" in2="effect1_dropShadow_1_513" result="shape"/>
</filter>
</defs>
</svg>
