<svg width="230" height="366" viewBox="0 0 230 366" fill="none" xmlns="http://www.w3.org/2000/svg">
<path d="M16 0.5H214C222.56 0.5 229.5 7.43959 229.5 16V350C229.5 358.56 222.56 365.5 214 365.5H16C7.43959 365.5 0.5 358.56 0.5 350V16C0.5 7.43958 7.43959 0.5 16 0.5Z" fill="white" stroke="black"/>
<path d="M16 24C16 19.5817 19.5817 16 24 16H206C210.418 16 214 19.5817 214 24V342C214 346.418 210.418 350 206 350H24C19.5817 350 16 346.418 16 342V24Z" fill="#FF00FF"/>
<ellipse cx="115.174" cy="182.752" rx="79.14" ry="149.259" transform="rotate(30.6494 115.174 182.752)" fill="white"/>
<g filter="url(#filter0_d_1_521)">
<mask id="path-4-outside-1_1_521" maskUnits="userSpaceOnUse" x="23" y="26" width="28" height="37" fill="black">
<rect fill="white" x="23" y="26" width="28" height="37"/>
<path d="M34.4141 35.8281C33.6328 37.1719 32.8672 39.1562 32.1172 41.7812C33.1484 40.7969 34.2578 40.0781 35.4453 39.625C36.6484 39.1719 37.9531 38.9453 39.3594 38.9453C42.375 38.9453 44.625 39.9688 46.1094 42.0156C47.6094 44.0625 48.0156 46.6797 47.3281 49.8672C46.6562 53.0391 45.1172 55.8359 42.7109 58.2578C40.3047 60.6797 37.1094 61.8906 33.125 61.8906C28.8438 61.8906 26.0703 60.1016 24.8047 56.5234C23.8203 53.7266 23.7969 50.1172 24.7344 45.6953C25.2969 43.1016 25.8594 40.9922 26.4219 39.3672C27.4219 36.4766 28.6875 34.0703 30.2188 32.1484C31.5312 30.5078 33.0781 29.1875 34.8594 28.1875C36.6562 27.1875 38.6484 26.6875 40.8359 26.6875C43.9922 26.6875 46.3359 27.5 47.8672 29.125C49.3984 30.7344 49.9922 32.8828 49.6484 35.5703H42.9922C43.1172 35.0234 43.0312 34.4219 42.7344 33.7656C42.25 32.7031 41.2812 32.1719 39.8281 32.1719C37.6562 32.1719 35.8516 33.3906 34.4141 35.8281ZM33.5 45.3203C31.9688 46.3359 30.9609 47.9766 30.4766 50.2422C30.0859 52.0703 30.2578 53.5625 30.9922 54.7188C31.7422 55.875 32.875 56.4531 34.3906 56.4531C35.875 56.4531 37.1562 55.8984 38.2344 54.7891C39.3281 53.6641 40.0625 52.2109 40.4375 50.4297C40.8594 48.4453 40.6953 46.9297 39.9453 45.8828C39.2109 44.8203 38.1406 44.2891 36.7344 44.2891C35.5938 44.2891 34.5156 44.6328 33.5 45.3203Z"/>
</mask>
<path d="M34.4141 35.8281C33.6328 37.1719 32.8672 39.1562 32.1172 41.7812C33.1484 40.7969 34.2578 40.0781 35.4453 39.625C36.6484 39.1719 37.9531 38.9453 39.3594 38.9453C42.375 38.9453 44.625 39.9688 46.1094 42.0156C47.6094 44.0625 48.0156 46.6797 47.3281 49.8672C46.6562 53.0391 45.1172 55.8359 42.7109 58.2578C40.3047 60.6797 37.1094 61.8906 33.125 61.8906C28.8438 61.8906 26.0703 60.1016 24.8047 56.5234C23.8203 53.7266 23.7969 50.1172 24.7344 45.6953C25.2969 43.1016 25.8594 40.9922 26.4219 39.3672C27.4219 36.4766 28.6875 34.0703 30.2188 32.1484C31.5312 30.5078 33.0781 29.1875 34.8594 28.1875C36.6562 27.1875 38.6484 26.6875 40.8359 26.6875C43.9922 26.6875 46.3359 27.5 47.8672 29.125C49.3984 30.7344 49.9922 32.8828 49.6484 35.5703H42.9922C43.1172 35.0234 43.0312 34.4219 42.7344 33.7656C42.25 32.7031 41.2812 32.1719 39.8281 32.1719C37.6562 32.1719 35.8516 33.3906 34.4141 35.8281ZM33.5 45.3203C31.9688 46.3359 30.9609 47.9766 30.4766 50.2422C30.0859 52.0703 30.2578 53.5625 30.9922 54.7188C31.7422 55.875 32.875 56.4531 34.3906 56.4531C35.875 56.4531 37.1562 55.8984 38.2344 54.7891C39.3281 53.6641 40.0625 52.2109 40.4375 50.4297C40.8594 48.4453 40.6953 46.9297 39.9453 45.8828C39.2109 44.8203 38.1406 44.2891 36.7344 44.2891C35.5938 44.2891 34.5156 44.6328 33.5 45.3203Z" fill="white"/>
<path d="M34.4141 35.8281L33.9834 35.5741L33.9818 35.5768L34.4141 35.8281ZM32.1172 41.7812L31.6364 41.6439L31.1306 43.4142L32.4624 42.1429L32.1172 41.7812ZM35.4453 39.625L35.2691 39.1571L35.2671 39.1579L35.4453 39.625ZM46.1094 42.0156L45.7046 42.3092L45.7061 42.3112L46.1094 42.0156ZM47.3281 49.8672L46.8394 49.7618L46.839 49.7636L47.3281 49.8672ZM24.8047 56.5234L24.333 56.6894L24.3333 56.6902L24.8047 56.5234ZM24.7344 45.6953L24.2457 45.5893L24.2452 45.5916L24.7344 45.6953ZM26.4219 39.3672L26.8944 39.5307L26.8944 39.5307L26.4219 39.3672ZM30.2188 32.1484L29.8283 31.8361L29.8277 31.8369L30.2188 32.1484ZM34.8594 28.1875L34.6162 27.7506L34.6146 27.7515L34.8594 28.1875ZM47.8672 29.125L47.5033 29.4679L47.505 29.4697L47.8672 29.125ZM49.6484 35.5703V36.0703H50.0886L50.1444 35.6337L49.6484 35.5703ZM42.9922 35.5703L42.5048 35.4589L42.365 36.0703H42.9922V35.5703ZM42.7344 33.7656L43.1899 33.5595L43.1893 33.5582L42.7344 33.7656ZM33.5 45.3203L33.7764 45.737L33.7803 45.7344L33.5 45.3203ZM30.4766 50.2422L29.9876 50.1377L29.9876 50.1377L30.4766 50.2422ZM30.9922 54.7188L30.5701 54.9868L30.5727 54.9908L30.9922 54.7188ZM38.2344 54.7891L37.8759 54.4405L37.8758 54.4406L38.2344 54.7891ZM40.4375 50.4297L39.9484 50.3257L39.9482 50.3267L40.4375 50.4297ZM39.9453 45.8828L39.5339 46.1671L39.5389 46.174L39.9453 45.8828ZM33.9818 35.5768C33.1698 36.9735 32.3906 39.0042 31.6364 41.6439L32.5979 41.9186C33.3437 39.3083 34.0959 37.3702 34.8463 36.0794L33.9818 35.5768ZM32.4624 42.1429C33.4514 41.1989 34.5053 40.5188 35.6236 40.0921L35.2671 39.1579C34.0103 39.6374 32.8454 40.3949 31.7719 41.4196L32.4624 42.1429ZM35.6215 40.0929C36.7633 39.6629 38.0077 39.4453 39.3594 39.4453V38.4453C37.8986 38.4453 36.5336 38.6808 35.2691 39.1571L35.6215 40.0929ZM39.3594 39.4453C42.2498 39.4453 44.3331 40.4179 45.7046 42.3092L46.5141 41.7221C44.9169 39.5196 42.5002 38.4453 39.3594 38.4453V39.4453ZM45.7061 42.3112C47.0989 44.2118 47.5059 46.6715 46.8394 49.7618L47.8169 49.9726C48.5254 46.6879 48.1198 43.9132 46.5127 41.7201L45.7061 42.3112ZM46.839 49.7636C46.1881 52.8362 44.6984 55.548 42.3562 57.9054L43.0656 58.6102C45.5359 56.1239 47.1244 53.2419 47.8173 49.9708L46.839 49.7636ZM42.3562 57.9054C40.0595 60.217 37.0002 61.3906 33.125 61.3906V62.3906C37.2185 62.3906 40.5498 61.1424 43.0656 58.6102L42.3562 57.9054ZM33.125 61.3906C31.0523 61.3906 29.3901 60.9577 28.105 60.1287C26.8249 59.3029 25.8778 58.0578 25.2761 56.3567L24.3333 56.6902C24.9972 58.5672 26.0696 60.0057 27.5629 60.969C29.0513 61.9291 30.9164 62.3906 33.125 62.3906V61.3906ZM25.2763 56.3574C24.3344 53.6812 24.2958 50.1746 25.2235 45.799L24.2452 45.5916C23.2979 50.0598 23.3062 53.7719 24.333 56.6894L25.2763 56.3574ZM25.223 45.8013C25.7833 43.2178 26.3409 41.1297 26.8944 39.5307L25.9494 39.2036C25.3779 40.8547 24.8105 42.9853 24.2457 45.5893L25.223 45.8013ZM26.8944 39.5307C27.8802 36.6811 29.1214 34.3281 30.6098 32.46L29.8277 31.8369C28.2536 33.8125 26.9635 36.2721 25.9494 39.2037L26.8944 39.5307ZM30.6092 32.4608C31.8827 30.8689 33.3806 29.5911 35.1041 28.6235L34.6146 27.7515C32.7757 28.7839 31.1798 30.1467 29.8283 31.8361L30.6092 32.4608ZM35.1025 28.6244C36.8203 27.6684 38.7279 27.1875 40.8359 27.1875V26.1875C38.5689 26.1875 36.4922 26.7066 34.6162 27.7506L35.1025 28.6244ZM40.8359 27.1875C43.9126 27.1875 46.1001 27.9788 47.5033 29.4679L48.2311 28.7821C46.5718 27.0212 44.0718 26.1875 40.8359 26.1875V27.1875ZM47.505 29.4697C48.9098 30.9461 49.4818 32.9325 49.1525 35.5069L50.1444 35.6337C50.5026 32.8332 49.8871 30.5226 48.2294 28.7803L47.505 29.4697ZM49.6484 35.0703H42.9922V36.0703H49.6484V35.0703ZM43.4796 35.6817C43.6351 35.0015 43.5189 34.2868 43.1899 33.5595L42.2788 33.9717C42.5436 34.5569 42.5993 35.0454 42.5048 35.4589L43.4796 35.6817ZM43.1893 33.5582C42.9051 32.9348 42.4695 32.4524 41.8849 32.1319C41.3073 31.8151 40.6131 31.6719 39.8281 31.6719V32.6719C40.4963 32.6719 41.013 32.7943 41.4041 33.0087C41.7884 33.2194 42.0793 33.5339 42.2794 33.973L43.1893 33.5582ZM39.8281 31.6719C37.4255 31.6719 35.4796 33.037 33.9834 35.5741L34.8447 36.0821C36.2235 33.7443 37.887 32.6719 39.8281 32.6719V31.6719ZM33.2236 44.9036C31.5569 46.0091 30.4918 47.7792 29.9876 50.1377L30.9655 50.3467C31.43 48.1739 32.3806 46.6627 33.7764 45.737L33.2236 44.9036ZM29.9876 50.1377C29.5798 52.0462 29.7431 53.6846 30.5701 54.9868L31.4143 54.4507C30.7726 53.4404 30.5921 52.0944 30.9655 50.3467L29.9876 50.1377ZM30.5727 54.9908C31.4253 56.3052 32.7256 56.9531 34.3906 56.9531V55.9531C33.0244 55.9531 32.0591 55.4448 31.4117 54.4467L30.5727 54.9908ZM34.3906 56.9531C36.0163 56.9531 37.4251 56.3392 38.5929 55.1375L37.8758 54.4406C36.8874 55.4577 35.7337 55.9531 34.3906 55.9531V56.9531ZM38.5929 55.1376C39.7626 53.9345 40.5355 52.3914 40.9268 50.5327L39.9482 50.3267C39.5895 52.0305 38.8937 53.3936 37.8759 54.4405L38.5929 55.1376ZM40.9266 50.5337C41.3612 48.4895 41.2206 46.8044 40.3518 45.5916L39.5389 46.174C40.17 47.055 40.3576 48.4011 39.9484 50.3257L40.9266 50.5337ZM40.3566 45.5985C39.5196 44.3874 38.2877 43.7891 36.7344 43.7891V44.7891C37.9935 44.7891 38.9023 45.2532 39.534 46.1671L40.3566 45.5985ZM36.7344 43.7891C35.4862 43.7891 34.3115 44.1672 33.2197 44.9063L33.7803 45.7344C34.7197 45.0985 35.7013 44.7891 36.7344 44.7891V43.7891Z" fill="black" mask="url(#path-4-outside-1_1_521)"/>
</g>
<path d="M107.779 147.801C104.98 152.616 102.236 159.727 99.5488 169.133C103.244 165.605 107.219 163.03 111.475 161.406C115.786 159.783 120.461 158.971 125.5 158.971C136.306 158.971 144.368 162.638 149.688 169.973C155.062 177.307 156.518 186.686 154.055 198.107C151.647 209.473 146.132 219.495 137.51 228.174C128.887 236.852 117.438 241.191 103.16 241.191C87.819 241.191 77.8809 234.781 73.3457 221.959C69.8184 211.937 69.7344 199.003 73.0938 183.158C75.1094 173.864 77.125 166.305 79.1406 160.482C82.724 150.124 87.2591 141.502 92.7461 134.615C97.4492 128.736 102.992 124.005 109.375 120.422C115.814 116.839 122.952 115.047 130.791 115.047C142.101 115.047 150.499 117.958 155.986 123.781C161.473 129.548 163.601 137.247 162.369 146.877H138.518C138.965 144.917 138.658 142.762 137.594 140.41C135.858 136.603 132.387 134.699 127.18 134.699C119.397 134.699 112.93 139.066 107.779 147.801ZM104.504 181.814C99.0169 185.454 95.4056 191.333 93.6699 199.451C92.2702 206.002 92.8861 211.349 95.5176 215.492C98.2051 219.635 102.264 221.707 107.695 221.707C113.014 221.707 117.605 219.719 121.469 215.744C125.388 211.713 128.02 206.506 129.363 200.123C130.875 193.012 130.287 187.581 127.6 183.83C124.968 180.023 121.133 178.119 116.094 178.119C112.007 178.119 108.143 179.351 104.504 181.814Z" fill="black"/>
<mask id="path-7-outside-2_1_521" maskUnits="userSpaceOnUse" x="63" y="105" width="97" height="131" fill="black">
<rect fill="white" x="63" y="105" width="97" height="131"/>
<path d="M102.779 139.801C99.9798 144.616 97.2363 151.727 94.5488 161.133C98.2441 157.605 102.219 155.03 106.475 153.406C110.786 151.783 115.461 150.971 120.5 150.971C131.306 150.971 139.368 154.638 144.688 161.973C150.062 169.307 151.518 178.686 149.055 190.107C146.647 201.473 141.132 211.495 132.51 220.174C123.887 228.852 112.438 233.191 98.1602 233.191C82.819 233.191 72.8809 226.781 68.3457 213.959C64.8184 203.937 64.7344 191.003 68.0938 175.158C70.1094 165.864 72.125 158.305 74.1406 152.482C77.724 142.124 82.2591 133.502 87.7461 126.615C92.4492 120.736 97.9922 116.005 104.375 112.422C110.814 108.839 117.952 107.047 125.791 107.047C137.101 107.047 145.499 109.958 150.986 115.781C156.473 121.548 158.601 129.247 157.369 138.877H133.518C133.965 136.917 133.658 134.762 132.594 132.41C130.858 128.603 127.387 126.699 122.18 126.699C114.397 126.699 107.93 131.066 102.779 139.801ZM99.5039 173.814C94.0169 177.454 90.4056 183.333 88.6699 191.451C87.2702 198.002 87.8861 203.349 90.5176 207.492C93.2051 211.635 97.2643 213.707 102.695 213.707C108.014 213.707 112.605 211.719 116.469 207.744C120.388 203.713 123.02 198.506 124.363 192.123C125.875 185.012 125.287 179.581 122.6 175.83C119.968 172.023 116.133 170.119 111.094 170.119C107.007 170.119 103.143 171.351 99.5039 173.814Z"/>
</mask>
<path d="M102.779 139.801C99.9798 144.616 97.2363 151.727 94.5488 161.133C98.2441 157.605 102.219 155.03 106.475 153.406C110.786 151.783 115.461 150.971 120.5 150.971C131.306 150.971 139.368 154.638 144.688 161.973C150.062 169.307 151.518 178.686 149.055 190.107C146.647 201.473 141.132 211.495 132.51 220.174C123.887 228.852 112.438 233.191 98.1602 233.191C82.819 233.191 72.8809 226.781 68.3457 213.959C64.8184 203.937 64.7344 191.003 68.0938 175.158C70.1094 165.864 72.125 158.305 74.1406 152.482C77.724 142.124 82.2591 133.502 87.7461 126.615C92.4492 120.736 97.9922 116.005 104.375 112.422C110.814 108.839 117.952 107.047 125.791 107.047C137.101 107.047 145.499 109.958 150.986 115.781C156.473 121.548 158.601 129.247 157.369 138.877H133.518C133.965 136.917 133.658 134.762 132.594 132.41C130.858 128.603 127.387 126.699 122.18 126.699C114.397 126.699 107.93 131.066 102.779 139.801ZM99.5039 173.814C94.0169 177.454 90.4056 183.333 88.6699 191.451C87.2702 198.002 87.8861 203.349 90.5176 207.492C93.2051 211.635 97.2643 213.707 102.695 213.707C108.014 213.707 112.605 211.719 116.469 207.744C120.388 203.713 123.02 198.506 124.363 192.123C125.875 185.012 125.287 179.581 122.6 175.83C119.968 172.023 116.133 170.119 111.094 170.119C107.007 170.119 103.143 171.351 99.5039 173.814Z" fill="#FF00FF"/>
<path d="M102.779 139.801L101.057 138.785L101.05 138.796L102.779 139.801ZM94.5488 161.133L92.6258 160.583L90.6026 167.665L95.9298 162.58L94.5488 161.133ZM106.475 153.406L105.77 151.535L105.762 151.538L106.475 153.406ZM144.688 161.973L143.068 163.147L143.074 163.155L144.688 161.973ZM149.055 190.107L147.1 189.686L147.098 189.693L149.055 190.107ZM132.51 220.174L131.091 218.764L132.51 220.174ZM68.3457 213.959L66.4591 214.623L66.4602 214.626L68.3457 213.959ZM68.0938 175.158L66.1392 174.734L66.1372 174.743L68.0938 175.158ZM74.1406 152.482L76.0306 153.137L76.0307 153.136L74.1406 152.482ZM87.7461 126.615L86.1844 125.366L86.1819 125.369L87.7461 126.615ZM104.375 112.422L103.402 110.674L103.396 110.678L104.375 112.422ZM150.986 115.781L149.531 117.153L149.537 117.16L150.986 115.781ZM157.369 138.877V140.877H159.13L159.353 139.131L157.369 138.877ZM133.518 138.877L131.568 138.431L131.009 140.877H133.518V138.877ZM132.594 132.41L134.416 131.586L134.414 131.581L132.594 132.41ZM99.5039 173.814L100.609 175.481L100.617 175.476L100.625 175.471L99.5039 173.814ZM88.6699 191.451L86.7141 191.033L86.7141 191.033L88.6699 191.451ZM90.5176 207.492L88.8293 208.564L88.8344 208.573L88.8397 208.581L90.5176 207.492ZM116.469 207.744L115.035 206.35L115.034 206.35L116.469 207.744ZM124.363 192.123L122.407 191.707L122.406 191.711L124.363 192.123ZM122.6 175.83L120.954 176.967L120.964 176.981L120.974 176.995L122.6 175.83ZM101.05 138.796C98.1276 143.823 95.3301 151.118 92.6258 160.583L96.4719 161.682C99.1426 152.335 101.832 145.409 104.508 140.806L101.05 138.796ZM95.9298 162.58C99.4561 159.213 103.209 156.793 107.188 155.275L105.762 151.538C101.229 153.267 97.0322 155.997 93.1679 159.686L95.9298 162.58ZM107.18 155.278C111.245 153.747 115.679 152.971 120.5 152.971V148.971C115.243 148.971 110.326 149.818 105.77 151.535L107.18 155.278ZM120.5 152.971C130.805 152.971 138.201 156.435 143.068 163.147L146.307 160.799C140.536 152.841 131.807 148.971 120.5 148.971V152.971ZM143.074 163.155C148.021 169.905 149.479 178.653 147.1 189.686L151.01 190.529C153.557 178.718 152.104 168.71 146.301 160.79L143.074 163.155ZM147.098 189.693C144.775 200.662 139.457 210.344 131.091 218.764L133.929 221.583C142.807 212.647 148.52 202.285 151.011 190.522L147.098 189.693ZM131.091 218.764C122.907 227.002 112.001 231.191 98.1602 231.191V235.191C112.874 235.191 124.868 230.703 133.929 221.583L131.091 218.764ZM98.1602 231.191C90.7615 231.191 84.8475 229.646 80.2848 226.703C75.7421 223.772 72.3744 219.351 70.2312 213.292L66.4602 214.626C68.8522 221.389 72.7211 226.584 78.1165 230.064C83.492 233.532 90.2177 235.191 98.1602 235.191V231.191ZM70.2323 213.295C66.8748 203.756 66.7301 191.233 70.0503 175.573L66.1372 174.743C62.7386 190.774 62.7619 204.118 66.4591 214.623L70.2323 213.295ZM70.0483 175.582C72.055 166.329 74.0511 158.855 76.0306 153.137L72.2507 151.828C70.1989 157.755 68.1637 165.399 66.1392 174.734L70.0483 175.582ZM76.0307 153.136C79.5573 142.942 83.9946 134.533 89.3103 127.862L86.1819 125.369C80.5236 132.471 75.8906 141.306 72.2505 151.829L76.0307 153.136ZM89.3078 127.865C93.855 122.181 99.2019 117.62 105.354 114.166L103.396 110.678C96.7825 114.391 91.0434 119.292 86.1844 125.366L89.3078 127.865ZM105.348 114.169C111.47 110.762 118.27 109.047 125.791 109.047V105.047C117.635 105.047 110.158 106.915 103.402 110.674L105.348 114.169ZM125.791 109.047C136.782 109.047 144.556 111.874 149.531 117.153L152.442 114.41C146.443 108.043 137.419 105.047 125.791 105.047V109.047ZM149.537 117.16C154.519 122.395 156.559 129.445 155.385 138.623L159.353 139.131C160.643 129.048 158.428 120.701 152.435 114.403L149.537 117.16ZM157.369 136.877H133.518V140.877H157.369V136.877ZM135.467 139.323C136.037 136.829 135.608 134.222 134.416 131.586L130.772 133.234C131.707 135.302 131.894 137.005 131.568 138.431L135.467 139.323ZM134.414 131.581C133.378 129.308 131.786 127.545 129.65 126.373C127.541 125.217 125.017 124.699 122.18 124.699V128.699C124.55 128.699 126.364 129.133 127.727 129.881C129.062 130.613 130.074 131.705 130.774 133.24L134.414 131.581ZM122.18 124.699C113.474 124.699 106.443 129.652 101.057 138.785L104.502 140.817C109.418 132.481 115.32 128.699 122.18 128.699V124.699ZM98.3984 172.148C92.3694 176.147 88.5292 182.543 86.7141 191.033L90.6257 191.869C92.282 184.122 95.6645 178.761 100.609 175.481L98.3984 172.148ZM86.7141 191.033C85.2456 197.906 85.827 203.837 88.8293 208.564L92.2058 206.42C89.9451 202.86 89.2947 198.098 90.6258 191.869L86.7141 191.033ZM88.8397 208.581C91.9375 213.356 96.6668 215.707 102.695 215.707V211.707C97.8618 211.707 94.4727 209.914 92.1955 206.404L88.8397 208.581ZM102.695 215.707C108.58 215.707 113.681 213.482 117.903 209.138L115.034 206.35C111.53 209.956 107.449 211.707 102.695 211.707V215.707ZM117.903 209.138C122.126 204.795 124.911 199.228 126.32 192.535L122.406 191.711C121.128 197.784 118.65 202.631 115.035 206.35L117.903 209.138ZM126.32 192.539C127.882 185.189 127.388 179.08 124.225 174.665L120.974 176.995C123.186 180.083 123.868 184.836 122.407 191.707L126.32 192.539ZM124.245 174.693C121.203 170.291 116.721 168.119 111.094 168.119V172.119C115.545 172.119 118.734 173.754 120.954 176.967L124.245 174.693ZM111.094 168.119C106.576 168.119 102.327 169.488 98.3828 172.158L100.625 175.471C103.96 173.213 107.437 172.119 111.094 172.119V168.119Z" fill="black" mask="url(#path-7-outside-2_1_521)"/>
<g filter="url(#filter1_d_1_521)">
<mask id="path-9-outside-3_1_521" maskUnits="userSpaceOnUse" x="179" y="306" width="28" height="37" fill="black">
<rect fill="white" x="179" y="306" width="28" height="37"/>
<path d="M195.586 333.172C196.367 331.828 197.133 329.844 197.883 327.219C196.852 328.203 195.742 328.922 194.555 329.375C193.352 329.828 192.047 330.055 190.641 330.055C187.625 330.055 185.375 329.031 183.891 326.984C182.391 324.937 181.984 322.32 182.672 319.133C183.344 315.961 184.883 313.164 187.289 310.742C189.695 308.32 192.891 307.109 196.875 307.109C201.156 307.109 203.93 308.898 205.195 312.477C206.18 315.273 206.203 318.883 205.266 323.305C204.703 325.898 204.141 328.008 203.578 329.633C202.578 332.523 201.313 334.93 199.781 336.852C198.469 338.492 196.922 339.812 195.141 340.812C193.344 341.812 191.352 342.312 189.164 342.312C186.008 342.312 183.664 341.5 182.133 339.875C180.602 338.266 180.008 336.117 180.352 333.43L187.008 333.43C186.883 333.977 186.969 334.578 187.266 335.234C187.75 336.297 188.719 336.828 190.172 336.828C192.344 336.828 194.148 335.609 195.586 333.172ZM196.5 323.68C198.031 322.664 199.039 321.023 199.523 318.758C199.914 316.93 199.742 315.437 199.008 314.281C198.258 313.125 197.125 312.547 195.609 312.547C194.125 312.547 192.844 313.102 191.766 314.211C190.672 315.336 189.938 316.789 189.563 318.57C189.141 320.555 189.305 322.07 190.055 323.117C190.789 324.18 191.859 324.711 193.266 324.711C194.406 324.711 195.484 324.367 196.5 323.68Z"/>
</mask>
<path d="M195.586 333.172C196.367 331.828 197.133 329.844 197.883 327.219C196.852 328.203 195.742 328.922 194.555 329.375C193.352 329.828 192.047 330.055 190.641 330.055C187.625 330.055 185.375 329.031 183.891 326.984C182.391 324.937 181.984 322.32 182.672 319.133C183.344 315.961 184.883 313.164 187.289 310.742C189.695 308.32 192.891 307.109 196.875 307.109C201.156 307.109 203.93 308.898 205.195 312.477C206.18 315.273 206.203 318.883 205.266 323.305C204.703 325.898 204.141 328.008 203.578 329.633C202.578 332.523 201.313 334.93 199.781 336.852C198.469 338.492 196.922 339.812 195.141 340.812C193.344 341.812 191.352 342.312 189.164 342.312C186.008 342.312 183.664 341.5 182.133 339.875C180.602 338.266 180.008 336.117 180.352 333.43L187.008 333.43C186.883 333.977 186.969 334.578 187.266 335.234C187.75 336.297 188.719 336.828 190.172 336.828C192.344 336.828 194.148 335.609 195.586 333.172ZM196.5 323.68C198.031 322.664 199.039 321.023 199.523 318.758C199.914 316.93 199.742 315.437 199.008 314.281C198.258 313.125 197.125 312.547 195.609 312.547C194.125 312.547 192.844 313.102 191.766 314.211C190.672 315.336 189.938 316.789 189.563 318.57C189.141 320.555 189.305 322.07 190.055 323.117C190.789 324.18 191.859 324.711 193.266 324.711C194.406 324.711 195.484 324.367 196.5 323.68Z" fill="white"/>
<path d="M195.586 333.172L196.017 333.426L196.018 333.423L195.586 333.172ZM197.883 327.219L198.364 327.356L198.869 325.586L197.538 326.857L197.883 327.219ZM194.555 329.375L194.731 329.843L194.733 329.842L194.555 329.375ZM183.891 326.984L184.295 326.691L184.294 326.689L183.891 326.984ZM182.672 319.133L183.161 319.238L183.161 319.236L182.672 319.133ZM205.195 312.477L205.667 312.311L205.667 312.31L205.195 312.477ZM205.266 323.305L205.754 323.411L205.755 323.408L205.266 323.305ZM203.578 329.633L203.106 329.469L203.106 329.469L203.578 329.633ZM199.781 336.852L200.172 337.164L200.172 337.163L199.781 336.852ZM195.141 340.812L195.384 341.249L195.385 341.248L195.141 340.812ZM182.133 339.875L182.497 339.532L182.495 339.53L182.133 339.875ZM180.352 333.43L180.352 332.93L179.911 332.93L179.856 333.366L180.352 333.43ZM187.008 333.43L187.495 333.541L187.635 332.93L187.008 332.93L187.008 333.43ZM187.266 335.234L186.81 335.44L186.811 335.442L187.266 335.234ZM196.5 323.68L196.224 323.263L196.22 323.266L196.5 323.68ZM199.523 318.758L200.012 318.862L200.012 318.862L199.523 318.758ZM199.008 314.281L199.43 314.013L199.427 314.009L199.008 314.281ZM191.766 314.211L192.124 314.559L192.124 314.559L191.766 314.211ZM189.563 318.57L190.052 318.674L190.052 318.673L189.563 318.57ZM190.055 323.117L190.466 322.833L190.461 322.826L190.055 323.117ZM196.018 333.423C196.83 332.026 197.609 329.996 198.364 327.356L197.402 327.081C196.656 329.692 195.904 331.63 195.154 332.921L196.018 333.423ZM197.538 326.857C196.549 327.801 195.495 328.481 194.376 328.908L194.733 329.842C195.99 329.363 197.155 328.605 198.228 327.58L197.538 326.857ZM194.378 328.907C193.237 329.337 191.992 329.555 190.641 329.555L190.641 330.555C192.101 330.555 193.466 330.319 194.731 329.843L194.378 328.907ZM190.641 329.555C187.75 329.555 185.667 328.582 184.295 326.691L183.486 327.278C185.083 329.48 187.5 330.555 190.641 330.555L190.641 329.555ZM184.294 326.689C182.901 324.788 182.494 322.328 183.161 319.238L182.183 319.027C181.475 322.312 181.88 325.087 183.487 327.28L184.294 326.689ZM183.161 319.236C183.812 316.164 185.302 313.452 187.644 311.095L186.934 310.39C184.464 312.876 182.876 315.758 182.183 319.029L183.161 319.236ZM187.644 311.095C189.94 308.783 193 307.609 196.875 307.609L196.875 306.609C192.782 306.609 189.45 307.858 186.934 310.39L187.644 311.095ZM196.875 307.609C198.948 307.609 200.61 308.042 201.895 308.871C203.175 309.697 204.122 310.942 204.724 312.643L205.667 312.31C205.003 310.433 203.93 308.994 202.437 308.031C200.949 307.071 199.084 306.609 196.875 306.609L196.875 307.609ZM204.724 312.643C205.666 315.319 205.704 318.825 204.776 323.201L205.755 323.408C206.702 318.94 206.694 315.228 205.667 312.311L204.724 312.643ZM204.777 323.199C204.217 325.782 203.659 327.87 203.106 329.469L204.051 329.796C204.622 328.145 205.19 326.015 205.754 323.411L204.777 323.199ZM203.106 329.469C202.12 332.319 200.879 334.672 199.39 336.54L200.172 337.163C201.746 335.188 203.036 332.728 204.051 329.796L203.106 329.469ZM199.391 336.539C198.117 338.131 196.619 339.409 194.896 340.377L195.385 341.248C197.224 340.216 198.82 338.853 200.172 337.164L199.391 336.539ZM194.897 340.376C193.18 341.332 191.272 341.812 189.164 341.812L189.164 342.812C191.431 342.812 193.508 342.293 195.384 341.249L194.897 340.376ZM189.164 341.812C186.087 341.812 183.9 341.021 182.497 339.532L181.769 340.218C183.428 341.979 185.928 342.812 189.164 342.812L189.164 341.812ZM182.495 339.53C181.09 338.054 180.518 336.068 180.848 333.493L179.856 333.366C179.497 336.167 180.113 338.477 181.771 340.22L182.495 339.53ZM180.352 333.93L187.008 333.93L187.008 332.93L180.352 332.93L180.352 333.93ZM186.52 333.318C186.365 333.999 186.481 334.713 186.81 335.44L187.721 335.028C187.456 334.443 187.401 333.955 187.495 333.541L186.52 333.318ZM186.811 335.442C187.095 336.065 187.531 336.548 188.115 336.868C188.693 337.185 189.387 337.328 190.172 337.328L190.172 336.328C189.504 336.328 188.987 336.206 188.596 335.991C188.212 335.781 187.921 335.466 187.721 335.027L186.811 335.442ZM190.172 337.328C192.574 337.328 194.52 335.963 196.017 333.426L195.155 332.918C193.777 335.256 192.113 336.328 190.172 336.328L190.172 337.328ZM196.776 324.096C198.443 322.991 199.508 321.221 200.012 318.862L199.034 318.653C198.57 320.826 197.619 322.337 196.224 323.263L196.776 324.096ZM200.012 318.862C200.42 316.954 200.257 315.315 199.43 314.013L198.586 314.549C199.227 315.56 199.408 316.906 199.034 318.653L200.012 318.862ZM199.427 314.009C198.575 312.695 197.274 312.047 195.609 312.047L195.609 313.047C196.976 313.047 197.941 313.555 198.588 314.553L199.427 314.009ZM195.609 312.047C193.984 312.047 192.575 312.661 191.407 313.862L192.124 314.559C193.113 313.542 194.266 313.047 195.609 313.047L195.609 312.047ZM191.407 313.862C190.237 315.066 189.465 316.609 189.073 318.467L190.052 318.673C190.41 316.97 191.106 315.606 192.124 314.559L191.407 313.862ZM189.073 318.466C188.639 320.51 188.779 322.196 189.648 323.408L190.461 322.826C189.83 321.945 189.642 320.599 190.052 318.674L189.073 318.466ZM189.643 323.401C190.48 324.613 191.712 325.211 193.266 325.211L193.266 324.211C192.006 324.211 191.098 323.747 190.466 322.833L189.643 323.401ZM193.266 325.211C194.514 325.211 195.688 324.833 196.78 324.094L196.22 323.266C195.28 323.902 194.299 324.211 193.266 324.211L193.266 325.211Z" fill="black" mask="url(#path-9-outside-3_1_521)"/>
</g>
<path d="M62.2069 260L64.4772 248H138.793L136.523 260H62.2069Z" fill="black" stroke="black" stroke-width="2"/>
<path d="M60.2069 256L62.4772 244H136.793L134.523 256H60.2069Z" fill="#FF00FF" stroke="black" stroke-width="2"/>
<defs>
<filter id="filter0_d_1_521" x="22.5484" y="25.1875" width="30.6944" height="40.2031" filterUnits="userSpaceOnUse" color-interpolation-filters="sRGB">
<feFlood flood-opacity="0" result="BackgroundImageFix"/>
<feColorMatrix in="SourceAlpha" type="matrix" values="0 0 0 0 0 0 0 0 0 0 0 0 0 0 0 0 0 0 127 0" result="hardAlpha"/>
<feOffset dx="1" dy="1"/>
<feGaussianBlur stdDeviation="1"/>
<feComposite in2="hardAlpha" operator="out"/>
<feColorMatrix type="matrix" values="0 0 0 0 0 0 0 0 0 0 0 0 0 0 0 0 0 0 0.8 0"/>
<feBlend mode="normal" in2="BackgroundImageFix" result="effect1_dropShadow_1_521"/>
<feBlend mode="normal" in="SourceGraphic" in2="effect1_dropShadow_1_521" result="shape"/>
</filter>
<filter id="filter1_d_1_521" x="176.757" y="303.609" width="30.6944" height="40.2031" filterUnits="userSpaceOnUse" color-interpolation-filters="sRGB">
<feFlood flood-opacity="0" result="BackgroundImageFix"/>
<feColorMatrix in="SourceAlpha" type="matrix" values="0 0 0 0 0 0 0 0 0 0 0 0 0 0 0 0 0 0 127 0" result="hardAlpha"/>
<feOffset dx="-1" dy="-1"/>
<feGaussianBlur stdDeviation="1"/>
<feComposite in2="hardAlpha" operator="out"/>
<feColorMatrix type="matrix" values="0 0 0 0 0 0 0 0 0 0 0 0 0 0 0 0 0 0 0.8 0"/>
<feBlend mode="normal" in2="BackgroundImageFix" result="effect1_dropShadow_1_521"/>
<feBlend mode="normal" in="SourceGraphic" in2="effect1_dropShadow_1_521" result="shape"/>
</filter>
</defs>
</svg>
