<svg width="230" height="366" viewBox="0 0 230 366" fill="none" xmlns="http://www.w3.org/2000/svg">
<path d="M16 0.5H214C222.56 0.5 229.5 7.43959 229.5 16V350C229.5 358.56 222.56 365.5 214 365.5H16C7.43959 365.5 0.5 358.56 0.5 350V16C0.5 7.43958 7.43959 0.5 16 0.5Z" fill="white" stroke="black"/>
<path d="M16 24C16 19.5817 19.5817 16 24 16H206C210.418 16 214 19.5817 214 24V342C214 346.418 210.418 350 206 350H24C19.5817 350 16 346.418 16 342V24Z" fill="#FF00FF"/>
<ellipse cx="115.174" cy="182.752" rx="79.14" ry="149.259" transform="rotate(30.6494 115.174 182.752)" fill="white"/>
<g filter="url(#filter0_d_1_545)">
<mask id="path-4-outside-1_1_545" maskUnits="userSpaceOnUse" x="23" y="26" width="28" height="37" fill="black">
<rect fill="white" x="23" y="26" width="28" height="37"/>
<path d="M39.125 52.8438C39.9062 51.5 40.6328 49.5391 41.3047 46.9609C40.5234 47.7266 39.75 48.3125 38.9844 48.7188C37.5781 49.4688 35.9609 49.8438 34.1328 49.8438C31.4297 49.8438 29.2266 48.9141 27.5234 47.0547C25.8203 45.1797 25.3438 42.4844 26.0938 38.9688C26.875 35.3281 28.5547 32.3828 31.1328 30.1328C33.7109 27.8672 36.6797 26.7344 40.0391 26.7344C45.2109 26.7344 48.2734 29.0234 49.2266 33.6016C49.7734 36.1953 49.5938 39.6094 48.6875 43.8438C47.8125 47.9531 46.5625 51.3828 44.9375 54.1328C41.8281 59.3672 37.6016 61.9844 32.2578 61.9844C29.7109 61.9844 27.5781 61.2344 25.8594 59.7344C24.1562 58.2188 23.4609 56.0156 23.7734 53.125H30.4297C30.3672 54.125 30.6094 54.9375 31.1562 55.5625C31.7188 56.1875 32.5703 56.5 33.7109 56.5C35.9141 56.5 37.7188 55.2812 39.125 52.8438ZM33.0078 38.3594C32.5703 40.375 32.6562 41.8906 33.2656 42.9062C33.875 43.9062 35.0312 44.4062 36.7344 44.4062C37.6562 44.4062 38.5781 44.1406 39.5 43.6094C41.2188 42.6406 42.3359 40.9609 42.8516 38.5703C43.2578 36.6484 43.1328 35.125 42.4766 34C41.8203 32.875 40.7109 32.3125 39.1484 32.3125C38.0078 32.3125 36.9609 32.6328 36.0078 33.2734C34.5078 34.2734 33.5078 35.9688 33.0078 38.3594Z"/>
</mask>
<path d="M39.125 52.8438C39.9062 51.5 40.6328 49.5391 41.3047 46.9609C40.5234 47.7266 39.75 48.3125 38.9844 48.7188C37.5781 49.4688 35.9609 49.8438 34.1328 49.8438C31.4297 49.8438 29.2266 48.9141 27.5234 47.0547C25.8203 45.1797 25.3438 42.4844 26.0938 38.9688C26.875 35.3281 28.5547 32.3828 31.1328 30.1328C33.7109 27.8672 36.6797 26.7344 40.0391 26.7344C45.2109 26.7344 48.2734 29.0234 49.2266 33.6016C49.7734 36.1953 49.5938 39.6094 48.6875 43.8438C47.8125 47.9531 46.5625 51.3828 44.9375 54.1328C41.8281 59.3672 37.6016 61.9844 32.2578 61.9844C29.7109 61.9844 27.5781 61.2344 25.8594 59.7344C24.1562 58.2188 23.4609 56.0156 23.7734 53.125H30.4297C30.3672 54.125 30.6094 54.9375 31.1562 55.5625C31.7188 56.1875 32.5703 56.5 33.7109 56.5C35.9141 56.5 37.7188 55.2812 39.125 52.8438ZM33.0078 38.3594C32.5703 40.375 32.6562 41.8906 33.2656 42.9062C33.875 43.9062 35.0312 44.4062 36.7344 44.4062C37.6562 44.4062 38.5781 44.1406 39.5 43.6094C41.2188 42.6406 42.3359 40.9609 42.8516 38.5703C43.2578 36.6484 43.1328 35.125 42.4766 34C41.8203 32.875 40.7109 32.3125 39.1484 32.3125C38.0078 32.3125 36.9609 32.6328 36.0078 33.2734C34.5078 34.2734 33.5078 35.9688 33.0078 38.3594Z" fill="white"/>
<path d="M39.125 52.8438L38.6927 52.5924L38.6919 52.5939L39.125 52.8438ZM41.3047 46.9609L41.7885 47.087L42.2436 45.3407L40.9547 46.6038L41.3047 46.9609ZM38.9844 48.7188L38.75 48.2771L38.7491 48.2776L38.9844 48.7188ZM27.5234 47.0547L27.1533 47.3909L27.1547 47.3924L27.5234 47.0547ZM26.0938 38.9688L25.6049 38.8638L25.6048 38.8644L26.0938 38.9688ZM31.1328 30.1328L31.4616 30.5095L31.4629 30.5084L31.1328 30.1328ZM49.2266 33.6016L48.7371 33.7035L48.7373 33.7047L49.2266 33.6016ZM48.6875 43.8438L48.1986 43.7391L48.1985 43.7396L48.6875 43.8438ZM44.9375 54.1328L45.3674 54.3882L45.368 54.3872L44.9375 54.1328ZM25.8594 59.7344L25.527 60.1079L25.5306 60.1111L25.8594 59.7344ZM23.7734 53.125V52.625H23.3246L23.2763 53.0713L23.7734 53.125ZM30.4297 53.125L30.9287 53.1562L30.9619 52.625H30.4297V53.125ZM31.1562 55.5625L30.7799 55.8918L30.7846 55.897L31.1562 55.5625ZM33.0078 38.3594L33.4964 38.4654L33.4972 38.4617L33.0078 38.3594ZM33.2656 42.9062L32.8369 43.1635L32.8387 43.1664L33.2656 42.9062ZM39.5 43.6094L39.2545 43.1738L39.2504 43.1762L39.5 43.6094ZM42.8516 38.5703L43.3403 38.6757L43.3408 38.6737L42.8516 38.5703ZM36.0078 33.2734L36.2852 33.6895L36.2867 33.6884L36.0078 33.2734ZM39.5573 53.0951C40.3719 51.6939 41.1121 49.6826 41.7885 47.087L40.8208 46.8348C40.1535 49.3956 39.4406 51.3061 38.6927 52.5924L39.5573 53.0951ZM40.9547 46.6038C40.1992 47.3442 39.4639 47.8983 38.75 48.2771L39.2187 49.1604C40.0361 48.7267 40.8477 48.1089 41.6547 47.318L40.9547 46.6038ZM38.7491 48.2776C37.4253 48.9836 35.891 49.3438 34.1328 49.3438V50.3438C36.0308 50.3438 37.731 49.9539 39.2197 49.1599L38.7491 48.2776ZM34.1328 49.3438C31.5586 49.3438 29.4932 48.4649 27.8921 46.717L27.1547 47.3924C28.96 49.3633 31.3008 50.3438 34.1328 50.3438V49.3438ZM27.8935 46.7185C26.3394 45.0075 25.8513 42.5017 26.5827 39.0731L25.6048 38.8644C24.8362 42.467 25.3013 45.3519 27.1533 47.3909L27.8935 46.7185ZM26.5826 39.0737C27.3433 35.5287 28.972 32.6822 31.4616 30.5095L30.804 29.7561C28.1374 32.0834 26.4067 35.1276 25.6049 38.8638L26.5826 39.0737ZM31.4629 30.5084C33.9519 28.3211 36.804 27.2344 40.0391 27.2344V26.2344C36.5553 26.2344 33.47 27.4133 30.8028 29.7572L31.4629 30.5084ZM40.0391 27.2344C42.5547 27.2344 44.4966 27.7911 45.9155 28.8517C47.3285 29.9078 48.2796 31.506 48.7371 33.7035L49.7161 33.4997C49.2204 31.119 48.1637 29.2836 46.5142 28.0507C44.8706 26.8222 42.6953 26.2344 40.0391 26.2344V27.2344ZM48.7373 33.7047C49.2634 36.2 49.0983 39.5351 48.1986 43.7391L49.1764 43.9484C50.0892 39.6836 50.2834 36.1906 49.7158 33.4984L48.7373 33.7047ZM48.1985 43.7396C47.3314 47.8118 46.0974 51.1871 44.507 53.8784L45.368 54.3872C47.0276 51.5785 48.2936 48.0945 49.1765 43.9479L48.1985 43.7396ZM44.5076 53.8775C41.4734 58.9854 37.3977 61.4844 32.2578 61.4844V62.4844C37.8055 62.4844 42.1829 59.749 45.3674 54.3882L44.5076 53.8775ZM32.2578 61.4844C29.8167 61.4844 27.8051 60.7688 26.1881 59.3577L25.5306 60.1111C27.3512 61.7 29.6051 62.4844 32.2578 62.4844V61.4844ZM26.1918 59.3609C24.6421 57.9818 23.9701 55.9579 24.2705 53.1787L23.2763 53.0713C22.9518 56.0734 23.6704 58.4557 25.527 60.1079L26.1918 59.3609ZM23.7734 53.625H30.4297V52.625H23.7734V53.625ZM29.9307 53.0938C29.8617 54.1964 30.1288 55.1476 30.78 55.8918L31.5325 55.2332C31.0899 54.7274 30.8726 54.0536 30.9287 53.1562L29.9307 53.0938ZM30.7846 55.897C31.4723 56.6611 32.4813 57 33.7109 57V56C32.6593 56 31.9652 55.7139 31.5279 55.228L30.7846 55.897ZM33.7109 57C36.1435 57 38.0912 55.6363 39.5581 53.0936L38.6919 52.5939C37.3463 54.9262 35.6846 56 33.7109 56V57ZM32.5192 38.2533C32.0731 40.3086 32.1281 41.9821 32.8369 43.1635L33.6944 42.649C33.1844 41.7991 33.0675 40.4414 33.4964 38.4654L32.5192 38.2533ZM32.8387 43.1664C33.5761 44.3767 34.9432 44.9062 36.7344 44.9062V43.9062C35.1193 43.9062 34.1739 43.4358 33.6926 42.6461L32.8387 43.1664ZM36.7344 44.9062C37.7566 44.9062 38.7637 44.6108 39.7496 44.0426L39.2504 43.1762C38.3925 43.6705 37.5559 43.9062 36.7344 43.9062V44.9062ZM39.7455 44.045C41.6178 42.9897 42.8024 41.17 43.3403 38.6757L42.3628 38.4649C41.8695 40.7519 40.8197 42.2916 39.2545 43.1738L39.7455 44.045ZM43.3408 38.6737C43.76 36.6904 43.6525 35.0235 42.9085 33.7481L42.0447 34.2519C42.6132 35.2265 42.7556 36.6065 42.3624 38.4669L43.3408 38.6737ZM42.9085 33.7481C42.1433 32.4364 40.8469 31.8125 39.1484 31.8125V32.8125C40.575 32.8125 41.4973 33.3136 42.0447 34.2519L42.9085 33.7481ZM39.1484 31.8125C37.9077 31.8125 36.7639 32.1628 35.7289 32.8585L36.2867 33.6884C37.158 33.1028 38.1079 32.8125 39.1484 32.8125V31.8125ZM35.7305 32.8574C34.0873 33.9529 33.0355 35.7847 32.5184 38.257L33.4972 38.4617C33.9801 36.1528 34.9283 34.594 36.2852 33.6895L35.7305 32.8574Z" fill="black" mask="url(#path-4-outside-1_1_545)"/>
</g>
<path d="M124.66 208.773C127.46 203.958 130.063 196.932 132.471 187.693C129.671 190.437 126.9 192.536 124.156 193.992C119.117 196.68 113.322 198.023 106.771 198.023C97.0853 198.023 89.1908 194.692 83.0879 188.029C76.985 181.311 75.2773 171.652 77.9648 159.055C80.7643 146.009 86.7832 135.455 96.0215 127.393C105.26 119.274 115.898 115.215 127.936 115.215C146.468 115.215 157.442 123.417 160.857 139.822C162.817 149.117 162.173 161.35 158.926 176.523C155.79 191.249 151.311 203.538 145.488 213.393C134.346 232.149 119.201 241.527 100.053 241.527C90.9264 241.527 83.2839 238.84 77.125 233.465C71.0221 228.034 68.5306 220.139 69.6504 209.781H93.502C93.278 213.365 94.1458 216.276 96.1055 218.516C98.1211 220.755 101.173 221.875 105.26 221.875C113.154 221.875 119.621 217.508 124.66 208.773ZM102.74 156.871C101.173 164.094 101.48 169.525 103.664 173.164C105.848 176.747 109.991 178.539 116.094 178.539C119.397 178.539 122.701 177.587 126.004 175.684C132.163 172.212 136.166 166.193 138.014 157.627C139.469 150.74 139.021 145.281 136.67 141.25C134.318 137.219 130.343 135.203 124.744 135.203C120.657 135.203 116.906 136.351 113.49 138.646C108.115 142.23 104.532 148.305 102.74 156.871Z" fill="black"/>
<mask id="path-7-outside-2_1_545" maskUnits="userSpaceOnUse" x="62" y="105" width="97" height="131" fill="black">
<rect fill="white" x="62" y="105" width="97" height="131"/>
<path d="M119.66 200.773C122.46 195.958 125.063 188.932 127.471 179.693C124.671 182.437 121.9 184.536 119.156 185.992C114.117 188.68 108.322 190.023 101.771 190.023C92.0853 190.023 84.1908 186.692 78.0879 180.029C71.985 173.311 70.2773 163.652 72.9648 151.055C75.7643 138.009 81.7832 127.455 91.0215 119.393C100.26 111.274 110.898 107.215 122.936 107.215C141.468 107.215 152.442 115.417 155.857 131.822C157.817 141.117 157.173 153.35 153.926 168.523C150.79 183.249 146.311 195.538 140.488 205.393C129.346 224.149 114.201 233.527 95.0527 233.527C85.9264 233.527 78.2839 230.84 72.125 225.465C66.0221 220.034 63.5306 212.139 64.6504 201.781H88.502C88.278 205.365 89.1458 208.276 91.1055 210.516C93.1211 212.755 96.1725 213.875 100.26 213.875C108.154 213.875 114.621 209.508 119.66 200.773ZM97.7402 148.871C96.1725 156.094 96.4805 161.525 98.6641 165.164C100.848 168.747 104.991 170.539 111.094 170.539C114.397 170.539 117.701 169.587 121.004 167.684C127.163 164.212 131.166 158.193 133.014 149.627C134.469 142.74 134.021 137.281 131.67 133.25C129.318 129.219 125.343 127.203 119.744 127.203C115.657 127.203 111.906 128.351 108.49 130.646C103.115 134.23 99.5319 140.305 97.7402 148.871Z"/>
</mask>
<path d="M119.66 200.773C122.46 195.958 125.063 188.932 127.471 179.693C124.671 182.437 121.9 184.536 119.156 185.992C114.117 188.68 108.322 190.023 101.771 190.023C92.0853 190.023 84.1908 186.692 78.0879 180.029C71.985 173.311 70.2773 163.652 72.9648 151.055C75.7643 138.009 81.7832 127.455 91.0215 119.393C100.26 111.274 110.898 107.215 122.936 107.215C141.468 107.215 152.442 115.417 155.857 131.822C157.817 141.117 157.173 153.35 153.926 168.523C150.79 183.249 146.311 195.538 140.488 205.393C129.346 224.149 114.201 233.527 95.0527 233.527C85.9264 233.527 78.2839 230.84 72.125 225.465C66.0221 220.034 63.5306 212.139 64.6504 201.781H88.502C88.278 205.365 89.1458 208.276 91.1055 210.516C93.1211 212.755 96.1725 213.875 100.26 213.875C108.154 213.875 114.621 209.508 119.66 200.773ZM97.7402 148.871C96.1725 156.094 96.4805 161.525 98.6641 165.164C100.848 168.747 104.991 170.539 111.094 170.539C114.397 170.539 117.701 169.587 121.004 167.684C127.163 164.212 131.166 158.193 133.014 149.627C134.469 142.74 134.021 137.281 131.67 133.25C129.318 129.219 125.343 127.203 119.744 127.203C115.657 127.203 111.906 128.351 108.49 130.646C103.115 134.23 99.5319 140.305 97.7402 148.871Z" fill="#FF00FF"/>
<path d="M119.66 200.773L117.931 199.768L117.928 199.774L119.66 200.773ZM127.471 179.693L129.406 180.198L131.226 173.212L126.071 178.265L127.471 179.693ZM119.156 185.992L118.219 184.225L118.215 184.227L119.156 185.992ZM78.0879 180.029L76.6074 181.374L76.6131 181.38L78.0879 180.029ZM72.9648 151.055L71.0094 150.635L71.0089 150.637L72.9648 151.055ZM91.0215 119.393L92.3366 120.899L92.3417 120.895L91.0215 119.393ZM155.857 131.822L153.899 132.23L153.9 132.235L155.857 131.822ZM153.926 168.523L151.97 168.105L151.97 168.107L153.926 168.523ZM140.488 205.393L142.208 206.414L142.21 206.41L140.488 205.393ZM72.125 225.465L70.7954 226.959L70.8026 226.965L70.8099 226.972L72.125 225.465ZM64.6504 201.781V199.781H62.855L62.662 201.566L64.6504 201.781ZM88.502 201.781L90.4981 201.906L90.6309 199.781H88.502V201.781ZM91.1055 210.516L89.6003 211.833L89.6095 211.843L89.6189 211.854L91.1055 210.516ZM97.7402 148.871L99.6947 149.295L99.6963 149.288L99.6979 149.281L97.7402 148.871ZM98.6641 165.164L96.949 166.193L96.9562 166.205L98.6641 165.164ZM121.004 167.684L120.022 165.941L120.014 165.946L120.005 165.951L121.004 167.684ZM133.014 149.627L134.969 150.049L134.97 150.041L133.014 149.627ZM108.49 130.646L109.6 132.311L109.606 132.306L108.49 130.646ZM121.389 201.779C124.322 196.734 126.98 189.506 129.406 180.198L125.535 179.189C123.146 188.358 120.597 195.183 117.931 199.768L121.389 201.779ZM126.071 178.265C123.374 180.908 120.755 182.88 118.219 184.225L120.094 187.759C123.044 186.193 125.968 183.966 128.871 181.122L126.071 178.265ZM118.215 184.227C113.506 186.739 108.043 188.023 101.771 188.023V192.023C108.602 192.023 114.729 190.62 120.097 187.757L118.215 184.227ZM101.771 188.023C92.6008 188.023 85.2572 184.895 79.5627 178.678L76.6131 181.38C83.1244 188.489 91.5698 192.023 101.771 192.023V188.023ZM79.5683 178.685C74.0612 172.622 72.3075 163.722 74.9208 151.472L71.0089 150.637C68.2471 163.583 69.9088 173.999 76.6075 181.374L79.5683 178.685ZM74.9203 151.474C77.6377 138.811 83.4525 128.653 92.3366 120.899L89.7064 117.886C80.1139 126.257 73.891 137.207 71.0094 150.635L74.9203 151.474ZM92.3417 120.895C101.224 113.09 111.395 109.215 122.936 109.215V105.215C110.4 105.215 99.2958 109.459 89.7013 117.89L92.3417 120.895ZM122.936 109.215C131.921 109.215 138.83 111.203 143.868 114.969C148.882 118.716 152.268 124.394 153.899 132.23L157.815 131.415C156.031 122.846 152.223 116.22 146.263 111.765C140.326 107.328 132.483 105.215 122.936 105.215V109.215ZM153.9 132.235C155.777 141.135 155.191 153.053 151.97 168.105L155.881 168.942C159.155 153.647 159.857 141.098 157.814 131.41L153.9 132.235ZM151.97 168.107C148.866 182.683 144.451 194.755 138.766 204.375L142.21 206.41C148.172 196.321 152.715 183.814 155.882 168.94L151.97 168.107ZM138.769 204.371C127.927 222.622 113.386 231.527 95.0527 231.527V235.527C115.017 235.527 130.765 225.676 142.208 206.414L138.769 204.371ZM95.0527 231.527C86.3496 231.527 79.1916 228.977 73.4401 223.958L70.8099 226.972C77.3762 232.702 85.5032 235.527 95.0527 235.527V231.527ZM73.4546 223.971C67.9656 219.086 65.5672 211.908 66.6388 201.996L62.662 201.566C61.494 212.37 64.0787 220.982 70.7954 226.959L73.4546 223.971ZM64.6504 203.781H88.502V199.781H64.6504V203.781ZM86.5058 201.656C86.2562 205.65 87.2236 209.116 89.6003 211.833L92.6106 209.199C91.0681 207.436 90.2998 205.079 90.4981 201.906L86.5058 201.656ZM89.6189 211.854C92.1352 214.649 95.8166 215.875 100.26 215.875V211.875C96.5284 211.875 94.107 210.861 92.5921 209.178L89.6189 211.854ZM100.26 215.875C109.072 215.875 116.111 210.928 121.393 201.773L117.928 199.774C113.131 208.088 107.237 211.875 100.26 211.875V215.875ZM95.7857 148.447C94.1836 155.828 94.3677 161.891 96.9491 166.193L100.379 164.135C98.5932 161.159 98.1614 156.359 99.6947 149.295L95.7857 148.447ZM96.9562 166.205C99.6522 170.629 104.639 172.539 111.094 172.539V168.539C105.343 168.539 102.043 166.866 100.372 164.123L96.9562 166.205ZM111.094 172.539C114.799 172.539 118.443 171.468 122.003 169.416L120.005 165.951C116.958 167.707 113.996 168.539 111.094 168.539V172.539ZM121.986 169.426C128.759 165.608 133.032 159.029 134.969 150.049L131.059 149.205C129.3 157.357 125.567 162.816 120.022 165.941L121.986 169.426ZM134.97 150.041C136.478 142.908 136.1 136.875 133.397 132.242L129.942 134.258C131.943 137.687 132.461 142.572 131.057 149.213L134.97 150.041ZM133.397 132.242C130.61 127.465 125.887 125.203 119.744 125.203V129.203C124.799 129.203 128.026 130.973 129.942 134.258L133.397 132.242ZM119.744 125.203C115.257 125.203 111.117 126.471 107.375 128.987L109.606 132.306C112.694 130.231 116.057 129.203 119.744 129.203V125.203ZM107.381 128.982C101.433 132.947 97.6426 139.569 95.7826 148.462L99.6979 149.281C101.421 141.041 104.797 135.512 109.6 132.311L107.381 128.982Z" fill="black" mask="url(#path-7-outside-2_1_545)"/>
<g filter="url(#filter1_d_1_545)">
<mask id="path-9-outside-3_1_545" maskUnits="userSpaceOnUse" x="179" y="306" width="28" height="37" fill="black">
<rect fill="white" x="179" y="306" width="28" height="37"/>
<path d="M190.875 316.156C190.094 317.5 189.367 319.461 188.695 322.039C189.477 321.273 190.25 320.687 191.016 320.281C192.422 319.531 194.039 319.156 195.867 319.156C198.57 319.156 200.773 320.086 202.477 321.945C204.18 323.82 204.656 326.516 203.906 330.031C203.125 333.672 201.445 336.617 198.867 338.867C196.289 341.133 193.32 342.266 189.961 342.266C184.789 342.266 181.727 339.977 180.773 335.398C180.227 332.805 180.406 329.391 181.313 325.156C182.188 321.047 183.438 317.617 185.063 314.867C188.172 309.633 192.398 307.016 197.742 307.016C200.289 307.016 202.422 307.766 204.141 309.266C205.844 310.781 206.539 312.984 206.227 315.875L199.57 315.875C199.633 314.875 199.391 314.062 198.844 313.437C198.281 312.812 197.43 312.5 196.289 312.5C194.086 312.5 192.281 313.719 190.875 316.156ZM196.992 330.641C197.43 328.625 197.344 327.109 196.734 326.094C196.125 325.094 194.969 324.594 193.266 324.594C192.344 324.594 191.422 324.859 190.5 325.391C188.781 326.359 187.664 328.039 187.148 330.43C186.742 332.352 186.867 333.875 187.523 335C188.18 336.125 189.289 336.687 190.852 336.687C191.992 336.687 193.039 336.367 193.992 335.727C195.492 334.727 196.492 333.031 196.992 330.641Z"/>
</mask>
<path d="M190.875 316.156C190.094 317.5 189.367 319.461 188.695 322.039C189.477 321.273 190.25 320.687 191.016 320.281C192.422 319.531 194.039 319.156 195.867 319.156C198.57 319.156 200.773 320.086 202.477 321.945C204.18 323.82 204.656 326.516 203.906 330.031C203.125 333.672 201.445 336.617 198.867 338.867C196.289 341.133 193.32 342.266 189.961 342.266C184.789 342.266 181.727 339.977 180.773 335.398C180.227 332.805 180.406 329.391 181.313 325.156C182.188 321.047 183.438 317.617 185.063 314.867C188.172 309.633 192.398 307.016 197.742 307.016C200.289 307.016 202.422 307.766 204.141 309.266C205.844 310.781 206.539 312.984 206.227 315.875L199.57 315.875C199.633 314.875 199.391 314.062 198.844 313.437C198.281 312.812 197.43 312.5 196.289 312.5C194.086 312.5 192.281 313.719 190.875 316.156ZM196.992 330.641C197.43 328.625 197.344 327.109 196.734 326.094C196.125 325.094 194.969 324.594 193.266 324.594C192.344 324.594 191.422 324.859 190.5 325.391C188.781 326.359 187.664 328.039 187.148 330.43C186.742 332.352 186.867 333.875 187.523 335C188.18 336.125 189.289 336.687 190.852 336.687C191.992 336.687 193.039 336.367 193.992 335.727C195.492 334.727 196.492 333.031 196.992 330.641Z" fill="white"/>
<path d="M190.875 316.156L191.307 316.408L191.308 316.406L190.875 316.156ZM188.695 322.039L188.211 321.913L187.756 323.659L189.045 322.396L188.695 322.039ZM191.016 320.281L191.25 320.723L191.251 320.722L191.016 320.281ZM202.477 321.945L202.847 321.609L202.845 321.608L202.477 321.945ZM203.906 330.031L204.395 330.136L204.395 330.136L203.906 330.031ZM198.867 338.867L198.538 338.49L198.537 338.492L198.867 338.867ZM180.773 335.398L181.263 335.297L181.263 335.295L180.773 335.398ZM181.313 325.156L181.801 325.261L181.802 325.26L181.313 325.156ZM185.063 314.867L184.633 314.612L184.632 314.613L185.063 314.867ZM204.141 309.266L204.473 308.892L204.469 308.889L204.141 309.266ZM206.227 315.875L206.227 316.375L206.675 316.375L206.724 315.929L206.227 315.875ZM199.57 315.875L199.071 315.844L199.038 316.375L199.57 316.375L199.57 315.875ZM198.844 313.437L199.22 313.108L199.215 313.103L198.844 313.437ZM196.992 330.641L196.504 330.535L196.503 330.538L196.992 330.641ZM196.734 326.094L197.163 325.836L197.161 325.834L196.734 326.094ZM190.5 325.391L190.746 325.826L190.75 325.824L190.5 325.391ZM187.148 330.43L186.66 330.324L186.659 330.326L187.148 330.43ZM193.992 335.727L193.715 335.311L193.713 335.312L193.992 335.727ZM190.443 315.905C189.628 317.306 188.888 319.317 188.211 321.913L189.179 322.165C189.846 319.604 190.559 317.694 191.307 316.408L190.443 315.905ZM189.045 322.396C189.801 321.656 190.536 321.102 191.25 320.723L190.781 319.84C189.964 320.273 189.152 320.891 188.345 321.682L189.045 322.396ZM191.251 320.722C192.575 320.016 194.109 319.656 195.867 319.656L195.867 318.656C193.969 318.656 192.269 319.046 190.78 319.84L191.251 320.722ZM195.867 319.656C198.441 319.656 200.507 320.535 202.108 322.283L202.845 321.608C201.04 319.637 198.699 318.656 195.867 318.656L195.867 319.656ZM202.106 322.281C203.661 323.993 204.149 326.498 203.417 329.927L204.395 330.136C205.164 326.533 204.699 323.648 202.847 321.609L202.106 322.281ZM203.417 329.926C202.657 333.471 201.028 336.318 198.538 338.49L199.196 339.244C201.863 336.917 203.593 333.872 204.395 330.136L203.417 329.926ZM198.537 338.492C196.048 340.679 193.196 341.766 189.961 341.766L189.961 342.766C193.445 342.766 196.53 341.587 199.197 339.243L198.537 338.492ZM189.961 341.766C187.445 341.766 185.503 341.209 184.085 340.148C182.672 339.092 181.72 337.494 181.263 335.297L180.284 335.5C180.78 337.881 181.836 339.716 183.486 340.949C185.129 342.178 187.305 342.766 189.961 342.766L189.961 341.766ZM181.263 335.295C180.737 332.8 180.902 329.465 181.801 325.261L180.824 325.052C179.911 329.316 179.717 332.809 180.284 335.502L181.263 335.295ZM181.802 325.26C182.669 321.188 183.903 317.813 185.493 315.122L184.632 314.613C182.972 317.421 181.706 320.906 180.823 325.052L181.802 325.26ZM185.492 315.123C188.527 310.015 192.602 307.516 197.742 307.516L197.742 306.516C192.195 306.516 187.817 309.251 184.633 314.612L185.492 315.123ZM197.742 307.516C200.183 307.516 202.195 308.231 203.812 309.642L204.469 308.889C202.649 307.3 200.395 306.516 197.742 306.516L197.742 307.516ZM203.808 309.639C205.358 311.018 206.03 313.042 205.729 315.821L206.724 315.929C207.048 312.927 206.33 310.544 204.473 308.892L203.808 309.639ZM206.227 315.375L199.57 315.375L199.57 316.375L206.227 316.375L206.227 315.375ZM200.069 315.906C200.138 314.804 199.871 313.852 199.22 313.108L198.467 313.767C198.91 314.273 199.127 314.946 199.071 315.844L200.069 315.906ZM199.215 313.103C198.528 312.339 197.519 312 196.289 312L196.289 313C197.341 313 198.035 313.286 198.472 313.772L199.215 313.103ZM196.289 312C193.857 312 191.909 313.364 190.442 315.906L191.308 316.406C192.654 314.074 194.315 313 196.289 313L196.289 312ZM197.481 330.747C197.927 328.691 197.872 327.018 197.163 325.837L196.306 326.351C196.816 327.201 196.932 328.559 196.504 330.535L197.481 330.747ZM197.161 325.834C196.424 324.623 195.057 324.094 193.266 324.094L193.266 325.094C194.881 325.094 195.826 325.564 196.307 326.354L197.161 325.834ZM193.266 324.094C192.243 324.094 191.236 324.389 190.25 324.957L190.75 325.824C191.607 325.33 192.444 325.094 193.266 325.094L193.266 324.094ZM190.254 324.955C188.382 326.01 187.198 327.83 186.66 330.324L187.637 330.535C188.13 328.248 189.18 326.708 190.746 325.826L190.254 324.955ZM186.659 330.326C186.24 332.31 186.348 333.976 187.092 335.252L187.955 334.748C187.387 333.774 187.244 332.394 187.638 330.533L186.659 330.326ZM187.092 335.252C187.857 336.564 189.153 337.187 190.852 337.187L190.852 336.187C189.425 336.187 188.503 335.686 187.955 334.748L187.092 335.252ZM190.852 337.187C192.092 337.187 193.236 336.837 194.271 336.142L193.713 335.312C192.842 335.897 191.892 336.187 190.852 336.187L190.852 337.187ZM194.27 336.143C195.913 335.047 196.965 333.215 197.482 330.743L196.503 330.538C196.02 332.847 195.072 334.406 193.715 335.311L194.27 336.143Z" fill="black" mask="url(#path-9-outside-3_1_545)"/>
</g>
<path d="M58.2069 260L60.4772 248H134.793L132.523 260H58.2069Z" fill="black" stroke="black" stroke-width="2"/>
<path d="M56.2069 256L58.4772 244H132.793L130.523 256H56.2069Z" fill="#FF00FF" stroke="black" stroke-width="2"/>
<defs>
<filter id="filter0_d_1_545" x="22.2009" y="25.2344" width="30.8344" height="40.25" filterUnits="userSpaceOnUse" color-interpolation-filters="sRGB">
<feFlood flood-opacity="0" result="BackgroundImageFix"/>
<feColorMatrix in="SourceAlpha" type="matrix" values="0 0 0 0 0 0 0 0 0 0 0 0 0 0 0 0 0 0 127 0" result="hardAlpha"/>
<feOffset dx="1" dy="1"/>
<feGaussianBlur stdDeviation="1"/>
<feComposite in2="hardAlpha" operator="out"/>
<feColorMatrix type="matrix" values="0 0 0 0 0 0 0 0 0 0 0 0 0 0 0 0 0 0 0.8 0"/>
<feBlend mode="normal" in2="BackgroundImageFix" result="effect1_dropShadow_1_545"/>
<feBlend mode="normal" in="SourceGraphic" in2="effect1_dropShadow_1_545" result="shape"/>
</filter>
<filter id="filter1_d_1_545" x="176.965" y="303.516" width="30.8344" height="40.25" filterUnits="userSpaceOnUse" color-interpolation-filters="sRGB">
<feFlood flood-opacity="0" result="BackgroundImageFix"/>
<feColorMatrix in="SourceAlpha" type="matrix" values="0 0 0 0 0 0 0 0 0 0 0 0 0 0 0 0 0 0 127 0" result="hardAlpha"/>
<feOffset dx="-1" dy="-1"/>
<feGaussianBlur stdDeviation="1"/>
<feComposite in2="hardAlpha" operator="out"/>
<feColorMatrix type="matrix" values="0 0 0 0 0 0 0 0 0 0 0 0 0 0 0 0 0 0 0.8 0"/>
<feBlend mode="normal" in2="BackgroundImageFix" result="effect1_dropShadow_1_545"/>
<feBlend mode="normal" in="SourceGraphic" in2="effect1_dropShadow_1_545" result="shape"/>
</filter>
</defs>
</svg>
