<svg width="230" height="366" viewBox="0 0 230 366" fill="none" xmlns="http://www.w3.org/2000/svg">
<rect x="0.500122" y="0.5" width="229" height="365" rx="15.5" fill="white" stroke="black"/>
<rect x="16.0001" y="16" width="198" height="334" rx="8" fill="black"/>
<path fill-rule="evenodd" clip-rule="evenodd" d="M16.0001 277.178V222.009C20.7237 196.92 31.137 169.33 47.0898 142.408C89.113 71.4903 153.662 32.0628 191.264 54.3444C202.488 60.9953 210.042 72.3927 214 86.9965V145.298C209.124 169.903 198.83 196.818 183.259 223.097C141.235 294.014 76.6865 333.442 39.0845 311.16C27.522 304.309 19.8538 292.42 16.0001 277.178Z" fill="#C60001"/>
<path fill-rule="evenodd" clip-rule="evenodd" d="M177.535 152.13C177.094 152.54 176.693 152.989 176.33 153.475C176.436 154.683 176.708 155.924 177.147 157.197C177.766 158.992 178.635 160.564 179.752 161.915C180.869 163.266 182.137 164.348 183.557 165.16C184.96 165.924 186.425 166.395 187.952 166.574C189.479 166.753 190.969 166.591 192.424 166.089C193.879 165.587 195.128 164.804 196.171 163.738C196.502 163.401 196.809 163.044 197.094 162.668C196.98 161.337 196.688 159.99 196.217 158.626C195.581 156.783 194.737 155.202 193.685 153.883C192.633 152.564 191.43 151.514 190.076 150.733C188.704 149.904 187.288 149.416 185.826 149.269C184.348 149.074 182.882 149.227 181.427 149.729C179.972 150.231 178.675 151.031 177.535 152.13ZM194.767 161.979C194.635 161.123 194.418 160.249 194.109 159.353C193.543 157.714 192.813 156.366 191.942 155.274C191.05 154.155 190.056 153.296 188.962 152.666L188.942 152.654L188.922 152.642C187.808 151.968 186.706 151.599 185.603 151.488L185.569 151.485L185.534 151.48C184.41 151.332 183.293 151.444 182.154 151.837C181.015 152.23 179.996 152.855 179.082 153.736L179.069 153.748L179.056 153.761C178.92 153.888 178.788 154.019 178.662 154.155C178.783 154.898 178.979 155.669 179.256 156.47C179.795 158.032 180.537 159.365 181.47 160.494C182.423 161.646 183.482 162.544 184.645 163.213C185.801 163.839 186.986 164.216 188.211 164.359C189.405 164.499 190.558 164.374 191.697 163.981C192.835 163.588 193.784 162.988 194.577 162.178C194.642 162.113 194.705 162.046 194.767 161.979Z" fill="white"/>
<path fill-rule="evenodd" clip-rule="evenodd" d="M159.22 140.332C157.993 142.619 157.101 145.034 156.548 147.572L155.431 152.36C154.997 153.494 154.639 154.654 154.356 155.84L147.689 136.514L130.489 142.448L129.207 142.89L128.716 144.74L126.389 153.51L128.886 160.748L111.196 149.104L96.8377 154.058L95.3206 154.61L93.3035 160.818L91.5952 155.867L73.4417 162.13L71.7614 162.772L68.7026 173.435L78.8701 202.906L78.8517 202.913C77.5276 203.369 76.1596 203.296 74.6134 202.543C73.2211 201.865 72.1233 200.635 71.4077 198.561L60.3921 166.632L40.8214 173.301L37.4863 184.162L38.2287 186.314C36.0579 187.53 34.2402 189.143 32.8077 191.157L32.8014 191.166L32.7951 191.175C32.686 191.331 32.5795 191.49 32.4758 191.65L31.5963 189.101L14.4715 195.009L12.0791 195.834L11.5557 197.77L9.20378 206.467L23.8808 249.009L43.4779 242.248L46.1458 231.232L45.7901 230.242L40.3225 214.394C41.6207 213.69 43.2558 213.14 45.2757 212.786L46.6676 212.542L46.9376 211.557L48.0023 214.643C49.6678 219.471 52.2227 223.415 55.7169 226.372L55.726 226.38L55.7351 226.388C59.2592 229.307 63.3825 231.084 68.0487 231.726C72.728 232.37 77.6444 231.763 82.7622 229.998C87.8757 228.233 92.0809 225.695 95.2787 222.323C98.496 218.965 100.445 214.988 101.57 210.661L102.942 205.646C103.233 204.451 103.544 202.938 103.772 201.775C103.897 201.169 103.998 200.558 104.074 199.945L110.671 219.067L129.281 212.646L131.383 203.914L131.887 201.953L129.587 194.926L147.165 206.476L163.482 200.847L165.468 192.155L166.082 189.642L164.962 186.58C166.843 188.094 168.895 189.366 171.113 190.393L171.123 190.398L171.133 190.403C174.743 192.03 178.621 192.937 182.748 193.136L182.762 193.137L182.776 193.137C186.927 193.287 191.16 192.6 195.462 191.116C199.763 189.632 203.519 187.562 206.695 184.885L206.706 184.876L206.716 184.867C209.842 182.166 212.336 179.061 214.174 175.553L214.18 175.543L214.185 175.533C215.846 172.285 216.61 169.263 217.695 165.684C218.78 162.105 219.401 158.795 219.622 155.343C219.912 151.244 219.337 147.14 217.925 143.048C216.515 138.96 214.453 135.417 211.721 132.458C209.041 129.455 205.881 127.127 202.256 125.493C198.638 123.863 194.759 122.979 190.639 122.831C186.488 122.682 182.255 123.368 177.953 124.852C173.651 126.336 169.895 128.407 166.719 131.084C163.57 133.738 161.062 136.822 159.22 140.332ZM177.535 152.13C177.094 152.54 176.693 152.989 176.33 153.475C176.436 154.683 176.708 155.924 177.147 157.197C177.766 158.992 178.635 160.564 179.752 161.915C180.869 163.266 182.137 164.348 183.557 165.16C184.96 165.924 186.425 166.395 187.952 166.574C189.479 166.753 190.969 166.591 192.424 166.089C193.879 165.587 195.128 164.804 196.171 163.738C196.502 163.401 196.809 163.044 197.094 162.668C196.98 161.337 196.688 159.99 196.217 158.626C195.581 156.783 194.737 155.202 193.685 153.883C192.633 152.564 191.43 151.514 190.076 150.733C188.704 149.904 187.288 149.416 185.826 149.269C184.348 149.074 182.882 149.227 181.427 149.729C179.972 150.231 178.675 151.031 177.535 152.13Z" fill="white"/>
<path d="M176.366 135.766C180.439 134.361 184.399 133.728 188.244 133.866C192.09 134.004 195.684 134.826 199.025 136.332C202.366 137.838 205.276 139.981 207.755 142.762C210.265 145.477 212.181 148.75 213.503 152.581C214.824 156.411 215.351 160.218 215.082 164C215.035 164.744 215.147 165.976 215.041 166.703C214.318 169.089 213.547 171.883 212.199 174.518C210.498 177.764 208.184 180.651 205.258 183.18C202.315 185.66 198.807 187.603 194.734 189.008C190.661 190.413 186.702 191.047 182.856 190.909C178.993 190.722 175.391 189.875 172.05 188.369C168.692 186.815 165.749 184.656 163.222 181.892C160.744 179.112 158.835 175.782 157.497 171.903C156.159 168.023 155.616 164.25 155.87 160.581C156.073 157.921 156.513 155.216 157.236 152.83C157.612 151.866 158.381 151.103 158.876 150.184C160.577 146.938 162.9 144.075 165.842 141.595C168.785 139.114 172.293 137.172 176.366 135.766ZM181.427 149.729C179.972 150.231 178.675 151.031 177.535 152.13C176.426 153.163 175.564 154.438 174.947 155.953C174.362 157.403 174.038 158.979 173.974 160.683C173.911 162.387 174.197 164.161 174.833 166.003C175.452 167.797 176.32 169.37 177.437 170.721C178.554 172.072 179.823 173.153 181.243 173.966C182.646 174.73 184.111 175.201 185.637 175.38C187.164 175.558 188.655 175.397 190.109 174.895C191.564 174.393 192.813 173.609 193.856 172.544C194.9 171.479 195.714 170.221 196.299 168.771C196.867 167.273 197.15 165.656 197.148 163.92C197.146 162.185 196.836 160.42 196.217 158.626C195.581 156.783 194.737 155.202 193.685 153.883C192.633 152.564 191.43 151.514 190.076 150.733C188.704 149.904 187.288 149.416 185.826 149.269C184.348 149.074 182.882 149.227 181.427 149.729Z" fill="black"/>
<path d="M157.236 152.83C157.612 151.866 158.381 151.103 158.876 150.184L158.683 148.058L157.236 152.83Z" fill="black"/>
<path d="M215.082 164C215.035 164.744 215.147 165.976 215.041 166.703L216.394 161.381L215.082 164Z" fill="black"/>
<path d="M94.4612 165.245L108.572 160.377L144.27 183.873L140.287 186.956L128.719 153.426L143.993 148.156L161.584 199.143L147.473 204.011L120.8 186.484L118.424 184.923L111.898 180.635L115.881 177.552L118.424 184.923L127.399 210.937L112.052 216.232L94.4612 165.245Z" fill="black"/>
<path d="M94.4612 165.245L108.572 160.377L96.7551 156.385L94.4612 165.245Z" fill="black"/>
<path d="M120.8 186.484L118.424 184.923L127.399 210.937L129.705 202.153L120.8 186.484Z" fill="black"/>
<path d="M143.993 148.156L161.584 199.143L163.902 190.348L143.993 148.156Z" fill="black"/>
<path d="M128.719 153.426L143.993 148.156L131.048 144.639L128.719 153.426Z" fill="black"/>
<path d="M66.9848 208.095C67.8547 210.616 69.3005 212.369 71.3223 213.354C73.3441 214.338 75.3248 214.496 77.2644 213.827C79.204 213.158 80.5691 211.846 81.3597 209.891C82.1988 207.919 82.1834 205.673 81.3135 203.151L71.0252 173.33L87.8996 167.508L98.1879 197.329C99.7437 201.839 100.426 205.846 99.5925 209.877C98.5549 213.866 96.6167 217.704 93.6642 220.785C90.7602 223.848 86.8836 226.217 82.0347 227.89C77.1857 229.563 72.625 230.105 68.3526 229.517C64.0801 228.929 60.3485 227.314 57.1576 224.67C54.0153 222.01 51.6662 218.426 50.1104 213.916L39.8221 184.095L56.6965 178.273L66.9848 208.095Z" fill="black"/>
<path d="M39.8221 184.095L56.6965 178.273L42.1454 175.283L39.8221 184.095Z" fill="black"/>
<path d="M98.1879 197.329C99.7437 201.839 100.426 205.846 99.5925 209.877L101.193 203.015L98.1879 197.329Z" fill="black"/>
<path d="M71.0252 173.33L87.8996 167.508L73.3042 164.558L71.0252 173.33Z" fill="black"/>
<path d="M44.8904 210.589C42.3321 211.038 40.2069 211.798 38.5149 212.87C36.8228 213.942 35.6684 215.236 35.0516 216.751C34.4666 218.201 34.4752 219.799 35.0775 221.544L31.1898 222.071C29.7344 217.853 29.126 213.966 29.3645 210.411C29.5864 206.808 30.5683 203.756 32.3103 201.256C34.1008 198.739 36.5962 196.928 39.7965 195.824L44.8904 210.589ZM11.5355 206.388L19.2397 203.73L27.9007 200.742L35.0794 221.55L41.6268 240.528L25.2616 246.174L11.5355 206.388Z" fill="black"/>
<path d="M35.0794 221.55L41.6268 240.528L43.9421 231.701L35.0794 221.55Z" fill="black"/>
<path d="M11.5355 206.388L19.2397 203.73L13.8836 197.704L11.5355 206.388Z" fill="black"/>
<path d="M39.7965 195.824L44.8904 210.589L47.3563 201.597L39.7965 195.824Z" fill="black"/>
<path d="M178.68 126.961C182.753 125.555 186.713 124.922 190.559 125.06C194.405 125.198 197.998 126.02 201.34 127.526C204.681 129.033 207.591 131.176 210.069 133.956C212.58 136.671 214.496 139.944 215.817 143.775C217.139 147.606 217.665 151.412 217.397 155.195C217.16 158.912 216.199 162.418 214.514 165.712C212.812 168.958 210.498 171.845 207.572 174.374C204.63 176.854 201.122 178.797 197.049 180.202C192.976 181.608 189.016 182.241 185.17 182.103C181.307 181.916 177.705 181.07 174.364 179.564C171.006 178.009 168.064 175.85 165.537 173.086C163.058 170.306 161.15 166.976 159.811 163.097C158.473 159.218 157.931 155.444 158.184 151.775C158.47 148.041 159.472 144.575 161.19 141.378C162.892 138.132 165.214 135.269 168.157 132.789C171.099 130.309 174.607 128.366 178.68 126.961ZM183.742 140.923C182.287 141.425 180.989 142.225 179.849 143.324C178.741 144.358 177.878 145.632 177.261 147.147C176.676 148.597 176.352 150.174 176.289 151.878C176.226 153.582 176.512 155.355 177.147 157.197C177.766 158.992 178.634 160.564 179.752 161.915C180.869 163.266 182.137 164.348 183.557 165.16C184.96 165.924 186.425 166.395 187.952 166.574C189.478 166.753 190.969 166.591 192.424 166.089C193.879 165.587 195.128 164.804 196.171 163.738C197.214 162.673 198.028 161.416 198.613 159.966C199.182 158.467 199.465 156.85 199.463 155.115C199.461 153.379 199.15 151.614 198.531 149.82C197.896 147.977 197.052 146.397 196 145.077C194.948 143.758 193.745 142.708 192.39 141.928C191.019 141.098 189.602 140.61 188.141 140.463C186.663 140.268 185.196 140.421 183.742 140.923Z" fill="#FFFF00"/>
<path d="M96.7756 156.438L110.886 151.57L146.584 175.067L142.602 178.15L131.034 144.619L146.308 139.35L163.898 190.337L149.788 195.205L114.213 171.829L118.195 168.746L129.713 202.131L114.366 207.425L96.7756 156.438Z" fill="#FFFF00"/>
<path d="M69.2995 199.289C70.1694 201.81 71.6152 203.563 73.637 204.548C75.6588 205.532 77.6394 205.69 79.579 205.021C81.5186 204.352 82.8837 203.04 83.6744 201.085C84.5135 199.113 84.4981 196.867 83.6282 194.345L73.3399 164.524L90.2143 158.702L100.503 188.523C102.058 193.033 102.419 197.304 101.586 201.335C100.8 205.35 98.9314 208.898 95.9789 211.979C93.0748 215.042 89.1983 217.411 84.3493 219.084C79.5004 220.757 74.9397 221.299 70.6672 220.711C66.3948 220.123 62.6631 218.508 59.4723 215.864C56.3299 213.205 53.9808 209.62 52.425 205.11L42.1367 175.289L59.0111 169.467L69.2995 199.289Z" fill="#FFFF00"/>
<path d="M47.205 201.783C44.6467 202.232 42.5215 202.992 40.8295 204.064C39.1374 205.137 37.983 206.43 37.3662 207.945C36.7812 209.395 36.7898 210.993 37.3921 212.738L33.5044 213.266C32.049 209.047 31.4406 205.16 31.6791 201.605C31.901 198.002 32.8829 194.95 34.6249 192.45C36.4154 189.933 38.9108 188.122 42.1111 187.018L47.205 201.783ZM13.8501 197.582L30.2153 191.936L43.9414 231.722L27.5762 237.368L13.8501 197.582Z" fill="#FFFF00"/>
<path fill-rule="evenodd" clip-rule="evenodd" d="M209.244 134.706L209.237 134.699C206.861 132.033 204.078 129.984 200.881 128.544C197.678 127.1 194.228 126.308 190.519 126.175C186.825 126.042 183.003 126.649 179.044 128.015C175.085 129.381 171.701 131.26 168.875 133.642C166.038 136.034 163.809 138.785 162.178 141.896L162.172 141.906L162.172 141.906C160.53 144.961 159.571 148.274 159.296 151.857C159.055 155.358 159.571 158.981 160.866 162.734C162.16 166.485 163.996 169.681 166.364 172.34C168.79 174.991 171.61 177.059 174.827 178.55C178.031 179.993 181.491 180.808 185.217 180.989C188.908 181.121 192.729 180.514 196.685 179.149C200.641 177.784 204.023 175.906 206.848 173.526C209.67 171.086 211.891 168.311 213.524 165.2C215.137 162.043 216.056 158.688 216.284 155.124L216.284 155.116L216.284 155.116C216.541 151.494 216.039 147.838 214.763 144.139C213.487 140.44 211.646 137.305 209.25 134.714L209.244 134.706ZM214.514 165.713C212.812 168.959 210.498 171.846 207.572 174.375C204.63 176.855 201.122 178.798 197.049 180.203C192.975 181.608 189.016 182.242 185.17 182.103C181.307 181.917 177.705 181.07 174.364 179.564C171.006 178.01 168.064 175.851 165.537 173.087C163.058 170.306 161.15 166.977 159.811 163.097C158.473 159.218 157.931 155.444 158.184 151.776C158.47 148.042 159.472 144.576 161.19 141.379C162.892 138.133 165.214 135.27 168.157 132.789C171.099 130.309 174.607 128.366 178.68 126.961C182.753 125.556 186.713 124.922 190.559 125.061C194.405 125.199 197.998 126.021 201.34 127.527C204.681 129.033 207.591 131.176 210.069 133.957C212.579 136.672 214.495 139.945 215.817 143.776C217.139 147.606 217.665 151.413 217.396 155.195C217.16 158.912 216.199 162.418 214.514 165.713ZM177.261 147.147C177.878 145.632 178.741 144.358 179.849 143.325C180.989 142.226 182.287 141.425 183.741 140.924C185.196 140.422 186.663 140.268 188.141 140.464C189.602 140.611 191.019 141.099 192.39 141.928C193.744 142.709 194.948 143.759 196 145.078C197.052 146.397 197.896 147.978 198.531 149.82C199.15 151.615 199.461 153.38 199.463 155.115C199.465 156.851 199.181 158.468 198.613 159.966C198.028 161.416 197.214 162.674 196.171 163.739C195.127 164.804 193.878 165.588 192.424 166.09C190.969 166.592 189.478 166.753 187.952 166.575C186.425 166.396 184.96 165.925 183.557 165.161C182.137 164.348 180.869 163.266 179.752 161.916C178.634 160.565 177.766 158.992 177.147 157.198C176.512 155.355 176.225 153.582 176.289 151.878C176.352 150.174 176.676 148.597 177.261 147.147ZM192.957 140.968C191.465 140.068 189.901 139.523 188.27 139.356C186.62 139.141 184.985 139.315 183.378 139.869C181.768 140.425 180.334 141.311 179.082 142.515C177.849 143.667 176.9 145.077 176.228 146.727L176.227 146.73C175.59 148.31 175.242 150.016 175.174 151.837C175.105 153.696 175.419 155.607 176.093 157.562C176.752 159.472 177.683 161.164 178.892 162.626C180.089 164.073 181.459 165.245 183.003 166.128L183.013 166.134L183.024 166.14C184.547 166.969 186.148 167.486 187.822 167.682C189.515 167.88 191.175 167.7 192.787 167.144C194.4 166.587 195.799 165.712 196.967 164.519C198.118 163.345 199.01 161.962 199.647 160.383L199.652 160.373L199.656 160.362C200.276 158.726 200.58 156.974 200.578 155.114C200.576 153.244 200.241 151.357 199.585 149.457C198.915 147.512 198.014 145.815 196.872 144.383C195.742 142.966 194.438 141.823 192.957 140.968Z" fill="black"/>
<path fill-rule="evenodd" clip-rule="evenodd" d="M110.886 151.57L140.055 170.77L131.034 144.619L146.308 139.35L163.898 190.337L149.788 195.205L120.738 176.117L129.713 202.131L114.366 207.425L96.7756 156.438L110.886 151.57ZM139.125 171.492L110.731 152.803L98.1934 157.129L115.057 206.008L128.295 201.44L119.808 176.84L118.618 173.389L121.668 175.394L149.942 193.972L162.481 189.646L145.617 140.768L132.451 145.31L140.986 170.047L142.177 173.501L139.125 171.492Z" fill="black"/>
<path fill-rule="evenodd" clip-rule="evenodd" d="M101.586 201.335C102.419 197.304 102.058 193.033 100.503 188.523L90.2143 158.702L73.3399 164.524L83.6282 194.345C84.4981 196.867 84.5135 199.113 83.6744 201.085C82.8837 203.04 81.5186 204.352 79.579 205.021C77.6394 205.69 75.6588 205.532 73.637 204.548C71.6152 203.563 70.1694 201.81 69.2995 199.289L59.0111 169.467L42.1367 175.289L52.425 205.11C53.9808 209.62 56.3299 213.205 59.4723 215.864C62.6631 218.508 66.3948 220.123 70.6672 220.711C74.9397 221.299 79.5004 220.757 84.3493 219.084C89.1983 217.411 93.0748 215.042 95.9789 211.979C98.9314 208.898 100.8 205.35 101.586 201.335ZM60.1882 215.009C57.224 212.499 54.9793 209.095 53.4792 204.747L43.5545 175.98L58.3207 170.885L68.2453 199.652C69.1924 202.397 70.8123 204.412 73.1488 205.55C75.4083 206.651 77.6953 206.85 79.9427 206.075C82.1935 205.298 83.7959 203.751 84.7043 201.512C85.6722 199.231 85.618 196.694 84.6823 193.981L74.7577 165.214L89.5238 160.12L99.4485 188.887C100.949 193.238 101.281 197.304 100.494 201.109L100.491 201.121C99.7488 204.917 97.9852 208.274 95.1738 211.207L95.1696 211.211C92.4126 214.12 88.7012 216.403 83.9857 218.03C79.2711 219.656 74.8883 220.166 70.8192 219.606C66.7457 219.046 63.2114 217.512 60.1882 215.009Z" fill="black"/>
<path fill-rule="evenodd" clip-rule="evenodd" d="M37.3662 207.945C37.2792 208.161 37.2053 208.38 37.1446 208.602C36.883 209.559 36.8649 210.576 37.0903 211.654C37.1645 212.009 37.2651 212.37 37.3921 212.738L43.9414 231.722L27.5762 237.368L13.8501 197.582L30.2153 191.936L32.2424 197.812C32.3972 197.185 32.5813 196.578 32.7947 195.994C33.2633 194.71 33.8734 193.528 34.6249 192.45C36.2159 190.213 38.3636 188.535 41.0679 187.414C41.4068 187.273 41.7546 187.141 42.1111 187.018L47.205 201.783C46.8276 201.85 46.4596 201.923 46.101 202.002C44.0291 202.463 42.2719 203.15 40.8295 204.064C39.1374 205.137 37.983 206.43 37.3662 207.945ZM36.5826 206.973C37.3431 205.445 38.584 204.167 40.2327 203.122C41.776 202.145 43.6175 201.424 45.7351 200.942L41.4322 188.47C38.9364 189.516 36.9836 191.06 35.5367 193.092C34.587 194.456 33.8735 196.01 33.4057 197.765C33.151 198.634 32.6629 200.838 32.748 202.696L31.0827 197.869L29.5249 193.354L15.2679 198.273L28.2666 235.95L42.5236 231.032L36.6361 213.966L35.8943 211.816C35.5934 210.057 36.2278 207.854 36.5826 206.973Z" fill="black"/>
</svg>
