<svg width="230" height="366" viewBox="0 0 230 366" fill="none" xmlns="http://www.w3.org/2000/svg">
<path d="M16 0.5H214C222.56 0.5 229.5 7.43959 229.5 16V350C229.5 358.56 222.56 365.5 214 365.5H16C7.43959 365.5 0.5 358.56 0.5 350V16C0.5 7.43958 7.43959 0.5 16 0.5Z" fill="white" stroke="black"/>
<path d="M16 24C16 19.5817 19.5817 16 24 16H206C210.418 16 214 19.5817 214 24V342C214 346.418 210.418 350 206 350H24C19.5817 350 16 346.418 16 342V24Z" fill="#FF00FF"/>
<ellipse cx="115.174" cy="182.752" rx="79.14" ry="149.259" transform="rotate(30.6494 115.174 182.752)" fill="white"/>
<path fill-rule="evenodd" clip-rule="evenodd" d="M158.664 233.871C131.181 259.705 90.2217 260.774 67.1786 236.259C44.1355 211.744 47.7346 170.93 75.2173 145.096C102.7 119.263 143.659 118.194 166.702 142.709C189.746 167.223 186.147 208.038 158.664 233.871ZM76.561 207.856L141.15 151.697C126.16 143.096 105.048 146.197 89.8745 160.46C75.7354 173.75 70.951 192.787 76.561 207.856ZM90.7136 224.96C105.737 234.01 127.226 231.023 142.61 216.563C156.962 203.072 161.676 183.66 155.663 168.487L90.7136 224.96Z" fill="black"/>
<mask id="path-5-inside-1_1_445" fill="white">
<path fill-rule="evenodd" clip-rule="evenodd" d="M156.664 227.871C129.181 253.705 88.2217 254.774 65.1786 230.259C42.1355 205.744 45.7346 164.93 73.2173 139.096C100.7 113.263 141.659 112.194 164.702 136.709C187.746 161.223 184.147 202.038 156.664 227.871ZM74.561 201.856L139.15 145.697C124.16 137.096 103.048 140.197 87.8745 154.46C73.7354 167.75 68.951 186.787 74.561 201.856ZM88.7136 218.96C103.737 228.01 125.226 225.023 140.61 210.563C154.962 197.072 159.676 177.66 153.663 162.487L88.7136 218.96Z"/>
</mask>
<path fill-rule="evenodd" clip-rule="evenodd" d="M156.664 227.871C129.181 253.705 88.2217 254.774 65.1786 230.259C42.1355 205.744 45.7346 164.93 73.2173 139.096C100.7 113.263 141.659 112.194 164.702 136.709C187.746 161.223 184.147 202.038 156.664 227.871ZM74.561 201.856L139.15 145.697C124.16 137.096 103.048 140.197 87.8745 154.46C73.7354 167.75 68.951 186.787 74.561 201.856ZM88.7136 218.96C103.737 228.01 125.226 225.023 140.61 210.563C154.962 197.072 159.676 177.66 153.663 162.487L88.7136 218.96Z" fill="#FF00FF"/>
<path d="M65.1786 230.259L66.6359 228.889L66.6359 228.889L65.1786 230.259ZM156.664 227.871L155.294 226.414L156.664 227.871ZM73.2173 139.096L71.8475 137.639L73.2173 139.096ZM164.702 136.709L166.16 135.339L166.16 135.339L164.702 136.709ZM74.561 201.856L72.6866 202.554L73.6941 205.26L75.8732 203.366L74.561 201.856ZM139.15 145.697L140.462 147.206L142.584 145.362L140.145 143.962L139.15 145.697ZM87.8745 154.46L86.5047 153.002L86.5047 153.002L87.8745 154.46ZM88.7136 218.96L87.4013 217.451L85.3266 219.254L87.6815 220.673L88.7136 218.96ZM140.61 210.563L139.24 209.105L139.24 209.105L140.61 210.563ZM153.663 162.487L155.522 161.75L154.482 159.125L152.351 160.978L153.663 162.487ZM63.7214 231.629C87.664 257.1 129.907 255.767 158.034 229.329L155.294 226.414C128.455 251.642 88.7795 252.447 66.6359 228.889L63.7214 231.629ZM71.8475 137.639C43.721 164.077 39.7787 206.157 63.7214 231.629L66.6359 228.889C44.4923 205.332 47.7481 165.782 74.5871 140.554L71.8475 137.639ZM166.16 135.339C142.217 109.868 99.974 111.201 71.8475 137.639L74.5871 140.554C101.426 115.326 141.102 114.521 163.245 138.079L166.16 135.339ZM158.034 229.329C186.16 202.89 190.102 160.811 166.16 135.339L163.245 138.079C185.389 161.636 182.133 201.186 155.294 226.414L158.034 229.329ZM75.8732 203.366L140.462 147.206L137.838 144.188L73.2487 200.347L75.8732 203.366ZM140.145 143.962C124.264 134.85 102.205 138.244 86.5047 153.002L89.2443 155.917C103.89 142.15 124.055 139.342 138.154 147.432L140.145 143.962ZM86.5047 153.002C71.8653 166.763 66.7568 186.625 72.6866 202.554L76.4353 201.159C71.1453 186.949 75.6056 168.737 89.2443 155.917L86.5047 153.002ZM87.6815 220.673C103.605 230.265 126.063 226.981 141.98 212.02L139.24 209.105C124.389 223.065 103.869 225.755 89.7456 217.247L87.6815 220.673ZM141.98 212.02C156.838 198.053 161.881 177.796 155.522 161.75L151.804 163.224C157.47 177.524 153.086 196.09 139.24 209.105L141.98 212.02ZM152.351 160.978L87.4013 217.451L90.0258 220.469L154.975 163.997L152.351 160.978Z" fill="black" mask="url(#path-5-inside-1_1_445)"/>
<g filter="url(#filter0_d_1_445)">
<mask id="path-7-inside-2_1_445" fill="white">
<path fill-rule="evenodd" clip-rule="evenodd" d="M50.9222 51.5001C43.7278 58.2627 33.0056 58.5425 26.9734 52.1251C20.9413 45.7078 21.8834 35.0233 29.0778 28.2608C36.2722 21.4982 46.9944 21.2184 53.0266 27.6358C59.0587 34.0532 58.1166 44.7376 50.9222 51.5001ZM29.4295 44.69L46.3374 29.9887C42.4134 27.7373 36.8867 28.549 32.9147 32.2826C29.2134 35.7617 27.961 40.7451 29.4295 44.69ZM33.1343 49.1673C37.0672 51.5364 42.6925 50.7546 46.7197 46.9691C50.4768 43.4375 51.7107 38.356 50.1366 34.384L33.1343 49.1673Z"/>
</mask>
<path fill-rule="evenodd" clip-rule="evenodd" d="M50.9222 51.5001C43.7278 58.2627 33.0056 58.5425 26.9734 52.1251C20.9413 45.7078 21.8834 35.0233 29.0778 28.2608C36.2722 21.4982 46.9944 21.2184 53.0266 27.6358C59.0587 34.0532 58.1166 44.7376 50.9222 51.5001ZM29.4295 44.69L46.3374 29.9887C42.4134 27.7373 36.8867 28.549 32.9147 32.2826C29.2134 35.7617 27.961 40.7451 29.4295 44.69ZM33.1343 49.1673C37.0672 51.5364 42.6925 50.7546 46.7197 46.9691C50.4768 43.4375 51.7107 38.356 50.1366 34.384L33.1343 49.1673Z" fill="white"/>
<path d="M26.9734 52.1251L27.3377 51.7827L27.3377 51.7827L26.9734 52.1251ZM50.9222 51.5001L50.5798 51.1358L50.5798 51.1358L50.9222 51.5001ZM29.0778 28.2608L29.4202 28.6251L29.4202 28.6251L29.0778 28.2608ZM53.0266 27.6358L52.6622 27.9782L52.6622 27.9782L53.0266 27.6358ZM29.4295 44.69L28.9609 44.8644L29.2128 45.541L29.7576 45.0673L29.4295 44.69ZM46.3374 29.9887L46.6655 30.3661L47.1959 29.9049L46.5863 29.5551L46.3374 29.9887ZM32.9147 32.2826L32.5723 31.9182L32.5723 31.9182L32.9147 32.2826ZM33.1343 49.1673L32.8063 48.79L32.2876 49.2409L32.8763 49.5956L33.1343 49.1673ZM46.7197 46.9691L47.0622 47.3334L47.0622 47.3334L46.7197 46.9691ZM50.1366 34.384L50.6015 34.1998L50.3414 33.5434L49.8086 34.0067L50.1366 34.384ZM26.6091 52.4676C32.8662 59.1242 43.9094 58.7783 51.2647 51.8644L50.5798 51.1358C43.5463 57.7471 33.145 57.9608 27.3377 51.7827L26.6091 52.4676ZM28.7353 27.8965C21.38 34.8103 20.3521 45.811 26.6091 52.4676L27.3377 51.7827C21.5305 45.6046 22.3868 35.2364 29.4202 28.6251L28.7353 27.8965ZM53.3909 27.2933C47.1338 20.6367 36.0906 20.9826 28.7353 27.8965L29.4202 28.6251C36.4537 22.0138 46.855 21.8001 52.6622 27.9782L53.3909 27.2933ZM51.2647 51.8644C58.62 44.9506 59.6479 33.9499 53.3909 27.2933L52.6622 27.9782C58.4695 34.1564 57.6132 44.5245 50.5798 51.1358L51.2647 51.8644ZM29.7576 45.0673L46.6655 30.3661L46.0094 29.6114L29.1014 44.3127L29.7576 45.0673ZM46.5863 29.5551C42.4395 27.1758 36.6761 28.0607 32.5723 31.9182L33.2572 32.6469C37.0972 29.0373 42.3872 28.2987 46.0886 30.4224L46.5863 29.5551ZM32.5723 31.9182C28.7459 35.515 27.4124 40.7047 28.9609 44.8644L29.8981 44.5155C28.5095 40.7855 29.6809 36.0084 33.2572 32.6469L32.5723 31.9182ZM32.8763 49.5956C37.0342 52.1002 42.9018 51.2441 47.0622 47.3334L46.3773 46.6048C42.4833 50.265 37.1002 50.9726 33.3923 48.739L32.8763 49.5956ZM47.0622 47.3334C50.9458 43.6829 52.262 38.39 50.6015 34.1998L49.6718 34.5682C51.1593 38.3219 50.0078 43.1922 46.3773 46.6048L47.0622 47.3334ZM49.8086 34.0067L32.8063 48.79L33.4624 49.5446L50.4647 34.7613L49.8086 34.0067Z" fill="black" mask="url(#path-7-inside-2_1_445)"/>
</g>
<g filter="url(#filter1_d_1_445)">
<mask id="path-9-outside-3_1_445" maskUnits="userSpaceOnUse" x="172" y="309" width="36" height="36" fill="black">
<rect fill="white" x="172" y="309" width="36" height="36"/>
<path fill-rule="evenodd" clip-rule="evenodd" d="M200.922 338.5C193.728 345.263 183.006 345.543 176.973 339.125C170.941 332.708 171.883 322.023 179.078 315.261C186.272 308.498 196.994 308.218 203.027 314.636C209.059 321.053 208.117 331.738 200.922 338.5ZM179.43 331.69L196.337 316.989C192.413 314.737 186.887 315.549 182.915 319.283C179.213 322.762 177.961 327.745 179.43 331.69ZM183.134 336.167C187.067 338.536 192.693 337.755 196.72 333.969C200.477 330.438 201.711 325.356 200.137 321.384L183.134 336.167Z"/>
</mask>
<path fill-rule="evenodd" clip-rule="evenodd" d="M200.922 338.5C193.728 345.263 183.006 345.543 176.973 339.125C170.941 332.708 171.883 322.023 179.078 315.261C186.272 308.498 196.994 308.218 203.027 314.636C209.059 321.053 208.117 331.738 200.922 338.5ZM179.43 331.69L196.337 316.989C192.413 314.737 186.887 315.549 182.915 319.283C179.213 322.762 177.961 327.745 179.43 331.69ZM183.134 336.167C187.067 338.536 192.693 337.755 196.72 333.969C200.477 330.438 201.711 325.356 200.137 321.384L183.134 336.167Z" fill="white"/>
<path d="M176.973 339.125L177.338 338.783L177.338 338.783L176.973 339.125ZM200.922 338.5L200.58 338.136L200.58 338.136L200.922 338.5ZM179.078 315.261L179.42 315.625L179.42 315.625L179.078 315.261ZM203.027 314.636L202.662 314.978L202.662 314.978L203.027 314.636ZM179.43 331.69L178.961 331.864L179.213 332.541L179.758 332.067L179.43 331.69ZM196.337 316.989L196.666 317.366L197.196 316.905L196.586 316.555L196.337 316.989ZM182.915 319.283L182.572 318.918L182.572 318.918L182.915 319.283ZM183.134 336.167L182.806 335.79L182.288 336.241L182.876 336.596L183.134 336.167ZM196.72 333.969L197.062 334.333L197.062 334.333L196.72 333.969ZM200.137 321.384L200.601 321.2L200.341 320.543L199.809 321.007L200.137 321.384ZM176.609 339.468C182.866 346.124 193.909 345.778 201.265 338.864L200.58 338.136C193.546 344.747 183.145 344.961 177.338 338.783L176.609 339.468ZM178.735 314.896C171.38 321.81 170.352 332.811 176.609 339.468L177.338 338.783C171.53 332.605 172.387 322.236 179.42 315.625L178.735 314.896ZM203.391 314.293C197.134 307.637 186.091 307.983 178.735 314.896L179.42 315.625C186.454 309.014 196.855 308.8 202.662 314.978L203.391 314.293ZM201.265 338.864C208.62 331.951 209.648 320.95 203.391 314.293L202.662 314.978C208.47 321.156 207.613 331.525 200.58 338.136L201.265 338.864ZM179.758 332.067L196.666 317.366L196.009 316.611L179.101 331.313L179.758 332.067ZM196.586 316.555C192.439 314.176 186.676 315.061 182.572 318.918L183.257 319.647C187.097 316.037 192.387 315.299 196.089 317.422L196.586 316.555ZM182.572 318.918C178.746 322.515 177.412 327.705 178.961 331.864L179.898 331.516C178.51 327.786 179.681 323.008 183.257 319.647L182.572 318.918ZM182.876 336.596C187.034 339.1 192.902 338.244 197.062 334.333L196.377 333.605C192.483 337.265 187.1 337.973 183.392 335.739L182.876 336.596ZM197.062 334.333C200.946 330.683 202.262 325.39 200.601 321.2L199.672 321.568C201.159 325.322 200.008 330.192 196.377 333.605L197.062 334.333ZM199.809 321.007L182.806 335.79L183.462 336.545L200.465 321.761L199.809 321.007Z" fill="black" mask="url(#path-9-outside-3_1_445)"/>
</g>
<defs>
<filter id="filter0_d_1_445" x="22" y="22" width="38" height="37.7607" filterUnits="userSpaceOnUse" color-interpolation-filters="sRGB">
<feFlood flood-opacity="0" result="BackgroundImageFix"/>
<feColorMatrix in="SourceAlpha" type="matrix" values="0 0 0 0 0 0 0 0 0 0 0 0 0 0 0 0 0 0 127 0" result="hardAlpha"/>
<feOffset dx="1" dy="1"/>
<feGaussianBlur stdDeviation="1"/>
<feComposite in2="hardAlpha" operator="out"/>
<feColorMatrix type="matrix" values="0 0 0 0 0 0 0 0 0 0 0 0 0 0 0 0 0 0 0.8 0"/>
<feBlend mode="normal" in2="BackgroundImageFix" result="effect1_dropShadow_1_445"/>
<feBlend mode="normal" in="SourceGraphic" in2="effect1_dropShadow_1_445" result="shape"/>
</filter>
<filter id="filter1_d_1_445" x="169.499" y="306.5" width="39.0015" height="38.7612" filterUnits="userSpaceOnUse" color-interpolation-filters="sRGB">
<feFlood flood-opacity="0" result="BackgroundImageFix"/>
<feColorMatrix in="SourceAlpha" type="matrix" values="0 0 0 0 0 0 0 0 0 0 0 0 0 0 0 0 0 0 127 0" result="hardAlpha"/>
<feOffset dx="-1" dy="-1"/>
<feGaussianBlur stdDeviation="1"/>
<feComposite in2="hardAlpha" operator="out"/>
<feColorMatrix type="matrix" values="0 0 0 0 0 0 0 0 0 0 0 0 0 0 0 0 0 0 0.8 0"/>
<feBlend mode="normal" in2="BackgroundImageFix" result="effect1_dropShadow_1_445"/>
<feBlend mode="normal" in="SourceGraphic" in2="effect1_dropShadow_1_445" result="shape"/>
</filter>
</defs>
</svg>
