<svg width="405" height="307" viewBox="0 0 405 307" fill="none" xmlns="http://www.w3.org/2000/svg">
<g clip-path="url(#clip0_6_22)">
<ellipse cx="126.781" cy="197.175" rx="126.781" ry="197.175" transform="matrix(0.931818 0.362925 -0.669594 0.742727 222.714 -38.9126)" fill="#C60001"/>
<path fill-rule="evenodd" clip-rule="evenodd" d="M323.748 83.2395C322.903 84.0275 322.132 84.8884 321.436 85.8222C321.638 88.1399 322.161 90.5211 323.004 92.966C324.192 96.4095 325.859 99.4277 328.003 102.021C330.147 104.613 332.582 106.69 335.307 108.249C338 109.715 340.811 110.62 343.742 110.963C346.672 111.306 349.533 110.996 352.325 110.032C355.117 109.069 357.514 107.565 359.517 105.52C360.151 104.872 360.742 104.187 361.288 103.465C361.069 100.912 360.508 98.3256 359.605 95.7074C358.385 92.1708 356.765 89.1365 354.746 86.6046C352.727 84.0727 350.418 82.0576 347.818 80.5592C345.186 78.9677 342.467 78.031 339.662 77.749C336.825 77.3739 334.01 77.668 331.218 78.6313C328.426 79.5945 325.936 81.1306 323.748 83.2395ZM356.821 102.143C356.569 100.501 356.151 98.822 355.559 97.1034C354.473 93.9575 353.071 91.3699 351.4 89.2734C349.688 87.1274 347.78 85.4778 345.68 84.2678L345.641 84.2453L345.603 84.2221C343.465 82.9292 341.351 82.2208 339.234 82.008L339.168 82.0013L339.101 81.9925C336.944 81.7074 334.799 81.924 332.614 82.6777C330.428 83.4319 328.471 84.632 326.718 86.3218L326.692 86.3462L326.667 86.3702C326.406 86.6134 326.154 86.8657 325.911 87.1274C326.144 88.5525 326.52 90.0324 327.051 91.57C328.085 94.5685 329.51 97.1268 331.301 99.2926C333.13 101.504 335.162 103.228 337.394 104.511C339.613 105.714 341.887 106.436 344.239 106.711C346.53 106.979 348.744 106.74 350.929 105.986C353.114 105.232 354.936 104.08 356.458 102.525C356.581 102.4 356.702 102.272 356.821 102.143Z" fill="white"/>
<path fill-rule="evenodd" clip-rule="evenodd" d="M288.596 60.5963C286.24 64.9849 284.529 69.6201 283.467 74.4909L281.323 83.6805C280.491 85.857 279.803 88.084 279.26 90.36L266.464 53.2681L233.451 64.6574L230.991 65.5061L230.049 69.0568L225.583 85.889L230.376 99.781L196.422 77.4326L168.863 86.9401L165.952 87.9994L162.08 99.9154L158.801 90.4119L123.959 102.433L120.734 103.666L114.863 124.132L134.378 180.696L134.342 180.708C131.801 181.585 129.175 181.443 126.208 179.998C123.535 178.697 121.428 176.338 120.055 172.357L98.9122 111.074L61.3497 123.874L54.9485 144.72L56.3734 148.85C52.207 151.183 48.7182 154.281 45.9687 158.145L45.9566 158.163L45.9446 158.18C45.7351 158.48 45.5308 158.784 45.3317 159.092L43.6437 154.199L10.7756 165.538L6.18373 167.122L5.17906 170.838L0.665032 187.531L28.835 269.183L66.4483 256.206L71.5691 235.063L70.8862 233.162L60.3921 202.745C62.8839 201.394 66.0222 200.338 69.8989 199.658L72.5705 199.19L73.0886 197.3L75.1322 203.223C78.3289 212.489 83.2326 220.059 89.9391 225.735L89.9565 225.75L89.974 225.765C96.738 231.368 104.652 234.779 113.608 236.011C122.589 237.247 132.025 236.082 141.848 232.693C151.662 229.307 159.734 224.435 165.871 217.963C172.046 211.518 175.787 203.886 177.945 195.58L180.579 185.955C181.137 183.662 181.735 180.756 182.173 178.525C182.413 177.361 182.606 176.19 182.752 175.012L195.414 211.714L231.133 199.391L235.168 182.63L236.135 178.867L231.72 165.38L265.458 187.549L296.776 176.744L300.587 160.06L301.766 155.238L299.616 149.361C303.227 152.267 307.164 154.709 311.422 156.68L311.442 156.689L311.461 156.698C318.39 159.821 325.833 161.562 333.754 161.944L333.78 161.946L333.806 161.947C341.774 162.233 349.899 160.916 358.155 158.067C366.412 155.219 373.62 151.246 379.716 146.108L379.736 146.091L379.756 146.073C385.756 140.888 390.542 134.929 394.071 128.197L394.081 128.178L394.091 128.159C397.28 121.924 398.747 116.124 400.829 109.254C402.911 102.385 404.103 96.0318 404.527 89.4069C405.083 81.5388 403.98 73.6617 401.271 65.8079C398.564 57.9629 394.607 51.1629 389.362 45.482C384.218 39.7184 378.154 35.2517 371.196 32.1153C364.253 28.9853 356.807 27.2902 348.899 27.006C340.932 26.7197 332.807 28.0366 324.55 30.8851C316.294 33.7335 309.085 37.7068 302.99 42.8449C296.945 47.9397 292.132 53.8587 288.596 60.5963ZM323.748 83.2395C322.903 84.0275 322.132 84.8884 321.436 85.8222C321.638 88.1399 322.161 90.5211 323.004 92.966C324.192 96.4095 325.859 99.4277 328.003 102.021C330.147 104.613 332.582 106.69 335.307 108.249C338 109.715 340.811 110.62 343.742 110.963C346.672 111.306 349.533 110.996 352.325 110.032C355.117 109.069 357.514 107.565 359.517 105.52C360.151 104.872 360.742 104.187 361.288 103.465C361.069 100.912 360.508 98.3256 359.605 95.7074C358.385 92.1708 356.765 89.1365 354.746 86.6046C352.727 84.0727 350.418 82.0576 347.818 80.5592C345.186 78.9677 342.467 78.031 339.662 77.749C336.825 77.3739 334.01 77.668 331.218 78.6313C328.426 79.5945 325.936 81.1306 323.748 83.2395Z" fill="white"/>
<path d="M321.504 51.8329C329.322 49.1358 336.922 47.9199 344.303 48.1851C351.685 48.4504 358.582 50.0283 364.995 52.919C371.408 55.8097 376.993 59.9233 381.75 65.2598C386.568 70.4711 390.245 76.7529 392.782 84.1053C395.319 91.4577 396.329 98.7637 395.813 106.023C395.722 107.452 395.937 109.815 395.735 111.211C394.347 115.791 392.867 121.153 390.28 126.21C387.014 132.44 382.573 137.982 376.957 142.835C371.31 147.595 364.577 151.324 356.759 154.021C348.942 156.718 341.342 157.934 333.96 157.669C326.546 157.311 319.633 155.686 313.22 152.796C306.775 149.812 301.128 145.668 296.277 140.363C291.52 135.027 287.857 128.636 285.289 121.19C282.72 113.745 281.679 106.502 282.166 99.4601C282.556 94.3546 283.4 89.1641 284.789 84.5841C285.51 82.7339 286.986 81.2698 287.935 79.5047C291.201 73.2748 295.658 67.7796 301.306 63.0192C306.954 58.2588 313.687 54.53 321.504 51.8329ZM331.218 78.6315C328.426 79.5948 325.936 81.1309 323.748 83.2398C321.62 85.2235 319.964 87.6693 318.781 90.5772C317.658 93.36 317.036 96.3865 316.914 99.6569C316.793 102.927 317.342 106.331 318.562 109.867C319.75 113.311 321.416 116.329 323.561 118.922C325.705 121.515 328.139 123.591 330.864 125.15C333.557 126.617 336.369 127.521 339.299 127.864C342.229 128.207 345.091 127.897 347.883 126.934C350.675 125.97 353.072 124.466 355.074 122.422C357.077 120.377 358.639 117.963 359.762 115.181C360.853 112.305 361.396 109.201 361.393 105.87C361.389 102.539 360.793 99.1511 359.605 95.7076C358.385 92.171 356.765 89.1368 354.746 86.6049C352.727 84.073 350.418 82.0578 347.818 80.5594C345.186 78.968 342.467 78.0312 339.662 77.7492C336.825 77.3742 334.01 77.6683 331.218 78.6315Z" fill="black"/>
<path d="M284.789 84.5841C285.51 82.7339 286.986 81.2698 287.935 79.5047L287.565 75.4242L284.789 84.5841Z" fill="black"/>
<path d="M395.813 106.023C395.722 107.452 395.937 109.815 395.735 111.211L398.331 100.996L395.813 106.023Z" fill="black"/>
<path d="M164.302 108.412L191.385 99.0682L259.901 144.166L252.257 150.084L230.054 85.7272L259.371 75.613L293.133 173.474L266.05 182.817L214.854 149.177L210.294 146.181L197.77 137.951L205.413 132.033L210.294 146.181L227.52 196.11L198.064 206.273L164.302 108.412Z" fill="black"/>
<path d="M164.302 108.412L191.385 99.0682L168.705 91.406L164.302 108.412Z" fill="black"/>
<path d="M214.854 149.177L210.294 146.181L227.52 196.11L231.947 179.25L214.854 149.177Z" fill="black"/>
<path d="M259.371 75.613L293.133 173.474L297.582 156.592L259.371 75.613Z" fill="black"/>
<path d="M230.054 85.7272L259.371 75.613L234.524 68.8627L230.054 85.7272Z" fill="black"/>
<path d="M111.566 190.655C113.236 195.494 116.011 198.859 119.891 200.749C123.772 202.638 127.573 202.941 131.296 201.657C135.019 200.372 137.639 197.854 139.156 194.102C140.767 190.318 140.737 186.006 139.067 181.167L119.321 123.93L151.708 112.756L171.455 169.993C174.441 178.648 175.751 186.338 174.151 194.077C172.159 201.732 168.439 209.098 162.773 215.011C157.199 220.891 149.758 225.437 140.452 228.648C131.145 231.859 122.391 232.9 114.191 231.771C105.991 230.643 98.8287 227.542 92.7044 222.469C86.6731 217.364 82.1645 210.484 79.1784 201.828L59.4317 144.592L91.8193 133.418L111.566 190.655Z" fill="black"/>
<path d="M59.4317 144.592L91.8193 133.418L63.891 127.679L59.4317 144.592Z" fill="black"/>
<path d="M171.455 169.993C174.441 178.648 175.751 186.338 174.151 194.077L177.223 180.906L171.455 169.993Z" fill="black"/>
<path d="M119.321 123.93L151.708 112.756L123.695 107.094L119.321 123.93Z" fill="black"/>
<path d="M69.1596 195.443C64.2493 196.304 60.1704 197.763 56.9228 199.821C53.6752 201.878 51.4595 204.361 50.2757 207.269C49.1528 210.052 49.1693 213.118 50.3252 216.469L42.8635 217.481C40.0701 209.384 38.9023 201.924 39.3602 195.101C39.786 188.184 41.6706 182.327 45.0141 177.528C48.4506 172.698 53.2401 169.223 59.3826 167.104L69.1596 195.443ZM5.14035 187.379L19.9274 182.278L36.5507 176.543L50.3289 216.48L62.8957 252.905L31.4853 263.742L5.14035 187.379Z" fill="black"/>
<path d="M50.3289 216.48L62.8957 252.905L67.3394 235.963L50.3289 216.48Z" fill="black"/>
<path d="M5.14035 187.379L19.9274 182.278L9.64721 170.713L5.14035 187.379Z" fill="black"/>
<path d="M59.3826 167.104L69.1596 195.443L73.8924 178.184L59.3826 167.104Z" fill="black"/>
<path d="M325.946 34.9315C333.764 32.2344 341.364 31.0185 348.745 31.2837C356.127 31.549 363.024 33.1269 369.437 36.0176C375.85 38.9083 381.435 43.0219 386.192 48.3584C391.01 53.5697 394.688 59.8516 397.224 67.2039C399.761 74.5563 400.771 81.8624 400.256 89.1221C399.801 96.2567 397.957 102.985 394.722 109.308C391.456 115.538 387.015 121.08 381.4 125.934C375.752 130.694 369.019 134.423 361.201 137.12C353.384 139.817 345.784 141.033 338.402 140.768C330.989 140.409 324.075 138.785 317.662 135.894C311.217 132.91 305.57 128.766 300.72 123.462C295.962 118.126 292.3 111.735 289.731 104.289C287.162 96.8437 286.121 89.6002 286.608 82.5587C287.156 75.392 289.079 68.7403 292.377 62.6034C295.643 56.3734 300.1 50.8782 305.748 46.1178C311.396 41.3574 318.129 37.6286 325.946 34.9315ZM335.661 61.7302C332.868 62.6934 330.378 64.2295 328.19 66.3384C326.062 68.3221 324.407 70.768 323.223 73.6759C322.1 76.4586 321.478 79.4852 321.356 82.7556C321.235 86.026 321.784 89.4295 323.004 92.966C324.192 96.4095 325.858 99.4277 328.003 102.021C330.147 104.613 332.582 106.69 335.307 108.249C338 109.715 340.811 110.62 343.741 110.963C346.672 111.306 349.533 110.996 352.325 110.032C355.117 109.069 357.514 107.565 359.516 105.52C361.519 103.476 363.081 101.062 364.204 98.2793C365.295 95.4035 365.838 92.2999 365.835 88.9685C365.831 85.6372 365.235 82.2497 364.047 78.8062C362.827 75.2697 361.207 72.2354 359.188 69.7035C357.169 67.1716 354.86 65.1564 352.26 63.6581C349.628 62.0666 346.909 61.1299 344.104 60.8479C341.267 60.4728 338.453 60.7669 335.661 61.7302Z" fill="#FFFF00"/>
<path d="M168.744 91.5093L195.827 82.1657L264.343 127.263L256.7 133.181L234.497 68.8247L263.813 58.7106L297.575 156.571L270.492 165.915L202.212 121.048L209.856 115.131L231.962 179.208L202.506 189.37L168.744 91.5093Z" fill="#FFFF00"/>
<path d="M116.008 173.753C117.678 178.592 120.453 181.957 124.334 183.847C128.214 185.737 132.016 186.039 135.738 184.755C139.461 183.471 142.081 180.952 143.599 177.2C145.209 173.416 145.18 169.104 143.51 164.265L123.763 107.028L156.151 95.8545L175.898 153.091C178.884 161.746 179.576 169.943 177.976 177.681C176.469 185.387 172.882 192.197 167.215 198.109C161.641 203.99 154.201 208.535 144.894 211.746C135.587 214.957 126.834 215.998 118.634 214.87C110.433 213.741 103.271 210.641 97.1468 205.567C91.1156 200.462 86.6069 193.582 83.6208 184.927L63.8741 127.69L96.2617 116.516L116.008 173.753Z" fill="#FFFF00"/>
<path d="M73.6019 178.541C68.6917 179.402 64.6127 180.862 61.3651 182.919C58.1175 184.977 55.9018 187.46 54.718 190.368C53.5951 193.151 53.6117 196.217 54.7676 199.568L47.3059 200.58C44.5124 192.483 43.3447 185.023 43.8026 178.199C44.2283 171.283 46.113 165.426 49.4564 160.627C52.8929 155.796 57.6825 152.321 63.8249 150.202L73.6019 178.541ZM9.5827 170.478L40.9931 159.641L67.338 236.004L35.9276 246.84L9.5827 170.478Z" fill="#FFFF00"/>
<path fill-rule="evenodd" clip-rule="evenodd" d="M384.607 49.7981L384.594 49.7836C380.034 44.6674 374.692 40.735 368.557 37.9698C362.41 35.1987 355.787 33.6794 348.668 33.4236C341.579 33.1689 334.242 34.3343 326.644 36.9557C319.046 39.5772 312.551 43.1837 307.127 47.7553C301.681 52.346 297.403 57.626 294.272 63.5981L294.262 63.6176L294.262 63.6176C291.111 69.4809 289.269 75.8393 288.742 82.7151C288.279 89.4362 289.269 96.3894 291.754 103.592C294.238 110.792 297.762 116.926 302.308 122.029C306.964 127.119 312.375 131.087 318.551 133.948C324.699 136.718 331.34 138.283 338.492 138.63C345.577 138.883 352.909 137.717 360.503 135.098C368.097 132.478 374.588 128.874 380.01 124.307C385.426 119.623 389.69 114.297 392.822 108.325C395.919 102.267 397.684 95.8274 398.119 88.987L398.12 88.9715L398.12 88.9715C398.614 82.0189 397.65 75.0015 395.201 67.9029C392.751 60.8037 389.219 54.7859 384.62 49.8123L384.607 49.7981ZM394.722 109.309C391.456 115.539 387.015 121.081 381.399 125.935C375.752 130.695 369.019 134.424 361.201 137.121C353.383 139.818 345.784 141.034 338.402 140.769C330.988 140.41 324.075 138.786 317.662 135.895C311.217 132.911 305.57 128.767 300.719 123.463C295.962 118.126 292.299 111.736 289.731 104.29C287.162 96.8447 286.121 89.6012 286.608 82.5597C287.155 75.393 289.078 68.7412 292.377 62.6043C295.643 56.3744 300.1 50.8792 305.748 46.1188C311.396 41.3584 318.128 37.6296 325.946 34.9325C333.764 32.2354 341.363 31.0195 348.745 31.2847C356.127 31.55 363.024 33.1279 369.437 36.0186C375.85 38.9093 381.435 43.0229 386.192 48.3594C391.01 53.5707 394.687 59.8526 397.224 67.2049C399.76 74.5573 400.771 81.8633 400.255 89.1231C399.801 96.2577 397.956 102.986 394.722 109.309ZM323.222 73.6769C324.406 70.769 326.062 68.3231 328.189 66.3394C330.378 64.2305 332.868 62.6944 335.66 61.7311C338.452 60.7679 341.267 60.4738 344.104 60.8488C346.909 61.1308 349.628 62.0676 352.26 63.659C354.859 65.1574 357.169 67.1726 359.188 69.7045C361.207 72.2364 362.827 75.2706 364.047 78.8072C365.235 82.2507 365.831 85.6382 365.834 88.9695C365.838 92.3009 365.295 95.4044 364.204 98.2802C363.081 101.063 361.518 103.477 359.516 105.521C357.514 107.566 355.117 109.07 352.325 110.033C349.532 110.997 346.671 111.307 343.741 110.964C340.811 110.621 337.999 109.716 335.306 108.25C332.581 106.691 330.147 104.614 328.002 102.022C325.858 99.4287 324.192 96.4105 323.004 92.967C321.784 89.4304 321.235 86.0269 321.356 82.7565C321.477 79.4861 322.1 76.4596 323.222 73.6769ZM353.348 61.8161C350.485 60.0883 347.482 59.0426 344.351 58.7227C341.185 58.3094 338.047 58.6436 334.962 59.7079C331.873 60.7738 329.12 62.4738 326.717 64.786C324.351 66.9958 322.529 69.7031 321.24 72.8699L321.238 72.876C320.014 75.9084 319.347 79.1816 319.217 82.6771C319.085 86.2466 319.687 89.914 320.981 93.665C322.246 97.331 324.032 100.579 326.353 103.386C328.65 106.163 331.279 108.411 334.243 110.107L334.263 110.119L334.283 110.13C337.206 111.721 340.28 112.713 343.492 113.089C346.742 113.47 349.927 113.124 353.023 112.057C356.118 110.988 358.803 109.309 361.045 107.019C363.253 104.764 364.966 102.111 366.189 99.0811L366.197 99.0603L366.205 99.0392C367.395 95.9007 367.979 92.5369 367.975 88.9671C367.971 85.3779 367.328 81.7557 366.07 78.1092C364.783 74.3773 363.054 71.1197 360.861 68.3701C358.693 65.6515 356.19 63.4574 353.348 61.8161Z" fill="black"/>
<path fill-rule="evenodd" clip-rule="evenodd" d="M195.827 82.1657L251.812 119.015L234.497 68.8247L263.813 58.7106L297.575 156.571L270.492 165.915L214.737 129.278L231.962 179.208L202.506 189.37L168.744 91.5093L195.827 82.1657ZM250.027 120.402L195.53 84.5323L171.465 92.8345L203.831 186.649L229.241 177.883L212.951 130.666L210.666 124.043L216.522 127.89L270.789 163.549L294.854 155.246L262.488 61.4318L237.218 70.1499L253.598 117.628L255.885 124.258L250.027 120.402Z" fill="black"/>
<path fill-rule="evenodd" clip-rule="evenodd" d="M177.976 177.681C179.576 169.943 178.884 161.746 175.898 153.091L156.151 95.8545L123.763 107.028L143.51 164.265C145.18 169.104 145.209 173.416 143.599 177.2C142.081 180.952 139.461 183.471 135.738 184.755C132.016 186.039 128.214 185.737 124.334 183.847C120.453 181.957 117.678 178.592 116.008 173.753L96.2617 116.516L63.8741 127.69L83.6208 184.927C86.6069 193.582 91.1156 200.462 97.1468 205.567C103.271 210.641 110.433 213.741 118.634 214.87C126.834 215.998 135.587 214.957 144.894 211.746C154.201 208.535 161.641 203.99 167.215 198.109C172.882 192.197 176.469 185.387 177.976 177.681ZM98.5209 203.926C92.8315 199.108 88.5233 192.574 85.644 184.229L66.5954 129.015L94.9365 119.237L113.985 174.451C115.803 179.72 118.912 183.587 123.396 185.771C127.733 187.883 132.123 188.266 136.436 186.778C140.756 185.288 143.832 182.319 145.575 178.021C147.433 173.642 147.329 168.773 145.533 163.567L126.484 108.353L154.826 98.5757L173.874 153.789C176.755 162.139 177.391 169.943 175.88 177.248L175.876 177.27C174.451 184.556 171.066 190.998 165.67 196.628L165.662 196.637C160.37 202.219 153.247 206.6 144.196 209.723C135.147 212.845 126.735 213.824 118.925 212.75C111.107 211.674 104.323 208.73 98.5209 203.926Z" fill="black"/>
<path fill-rule="evenodd" clip-rule="evenodd" d="M54.7181 190.368C54.5511 190.782 54.4093 191.202 54.2927 191.628C53.7907 193.465 53.7559 195.417 54.1885 197.486C54.3309 198.167 54.524 198.861 54.7677 199.568L67.3381 236.004L35.9277 246.84L9.58282 170.478L40.9932 159.641L44.8839 170.919C45.1809 169.715 45.5342 168.551 45.9438 167.429C46.8432 164.964 48.0141 162.697 49.4565 160.627C52.5103 156.334 56.6323 153.112 61.8228 150.961C62.4734 150.691 63.1408 150.438 63.825 150.202L73.6021 178.541C72.8776 178.668 72.1712 178.808 71.483 178.962C67.5063 179.846 64.1337 181.165 61.3653 182.919C58.1177 184.977 55.902 187.46 54.7181 190.368ZM53.2141 188.502C54.6738 185.57 57.0553 183.116 60.2198 181.111C63.1818 179.235 66.7163 177.852 70.7807 176.926L62.5221 152.988C57.7319 154.997 53.9837 157.959 51.2066 161.859C49.3839 164.477 48.0145 167.46 47.1166 170.828C46.6277 172.497 45.6908 176.727 45.8542 180.294L42.6579 171.029L39.668 162.363L12.304 171.803L37.253 244.119L64.6169 234.678L53.3167 201.924L51.893 197.798C51.3156 194.42 52.5331 190.193 53.2141 188.502Z" fill="black"/>
</g>
<defs>
<clipPath id="clip0_6_22">
<rect width="405" height="307" fill="white"/>
</clipPath>
</defs>
</svg>
