<svg width="230" height="366" viewBox="0 0 230 366" fill="none" xmlns="http://www.w3.org/2000/svg">
<path d="M16 0.5H214C222.56 0.5 229.5 7.43959 229.5 16V350C229.5 358.56 222.56 365.5 214 365.5H16C7.43959 365.5 0.500004 358.56 0.500004 350V16C0.500004 7.43958 7.43959 0.5 16 0.5Z" fill="white" stroke="black"/>
<path d="M16 24C16 19.5817 19.5817 16 24 16H206C210.418 16 214 19.5817 214 24V342C214 346.418 210.418 350 206 350H24C19.5817 350 16 346.418 16 342V24Z" fill="#FF00FF"/>
<ellipse cx="115.174" cy="182.752" rx="79.14" ry="149.259" transform="rotate(30.6494 115.174 182.752)" fill="white"/>
<path d="M155.674 143.76C159.593 154.678 159.425 170.187 155.17 190.287C150.859 210.387 144.42 225.868 135.854 236.73C127.343 247.592 115.333 253.023 99.8242 253.023C84.3151 253.023 74.5729 247.592 70.5977 236.73C66.6784 225.868 66.8743 210.387 71.1855 190.287C75.4408 170.187 81.8516 154.678 90.418 143.76C98.9844 132.842 111.022 127.383 126.531 127.383C142.04 127.383 151.755 132.842 155.674 143.76ZM130.479 190.287C133.558 175.618 134.734 164.756 134.006 157.701C133.334 150.646 129.443 147.119 122.332 147.119C115.221 147.119 109.762 150.646 105.955 157.701C102.148 164.756 98.7044 175.618 95.625 190.287C92.6016 204.285 91.4538 215.007 92.1816 222.453C92.9095 229.844 96.8288 233.539 103.939 233.539C111.05 233.539 116.481 229.844 120.232 222.453C124.04 215.007 127.455 204.285 130.479 190.287Z" fill="black"/>
<g filter="url(#filter0_d_1_459)">
<mask id="path-5-outside-1_1_459" maskUnits="userSpaceOnUse" x="24" y="25" width="27" height="37" fill="black">
<rect fill="white" x="24" y="25" width="27" height="37"/>
<path d="M49.6172 30.3516C50.7109 33.3984 50.6641 37.7266 49.4766 43.3359C48.2734 48.9453 46.4766 53.2656 44.0859 56.2969C41.7109 59.3281 38.3594 60.8438 34.0312 60.8438C29.7031 60.8438 26.9844 59.3281 25.875 56.2969C24.7812 53.2656 24.8359 48.9453 26.0391 43.3359C27.2266 37.7266 29.0156 33.3984 31.4062 30.3516C33.7969 27.3047 37.1562 25.7812 41.4844 25.7812C45.8125 25.7812 48.5234 27.3047 49.6172 30.3516ZM42.5859 43.3359C43.4453 39.2422 43.7734 36.2109 43.5703 34.2422C43.3828 32.2734 42.2969 31.2891 40.3125 31.2891C38.3281 31.2891 36.8047 32.2734 35.7422 34.2422C34.6797 36.2109 33.7188 39.2422 32.8594 43.3359C32.0156 47.2422 31.6953 50.2344 31.8984 52.3125C32.1016 54.375 33.1953 55.4062 35.1797 55.4062C37.1641 55.4062 38.6797 54.375 39.7266 52.3125C40.7891 50.2344 41.7422 47.2422 42.5859 43.3359Z"/>
</mask>
<path d="M49.6172 30.3516C50.7109 33.3984 50.6641 37.7266 49.4766 43.3359C48.2734 48.9453 46.4766 53.2656 44.0859 56.2969C41.7109 59.3281 38.3594 60.8438 34.0312 60.8438C29.7031 60.8438 26.9844 59.3281 25.875 56.2969C24.7812 53.2656 24.8359 48.9453 26.0391 43.3359C27.2266 37.7266 29.0156 33.3984 31.4062 30.3516C33.7969 27.3047 37.1562 25.7812 41.4844 25.7812C45.8125 25.7812 48.5234 27.3047 49.6172 30.3516ZM42.5859 43.3359C43.4453 39.2422 43.7734 36.2109 43.5703 34.2422C43.3828 32.2734 42.2969 31.2891 40.3125 31.2891C38.3281 31.2891 36.8047 32.2734 35.7422 34.2422C34.6797 36.2109 33.7188 39.2422 32.8594 43.3359C32.0156 47.2422 31.6953 50.2344 31.8984 52.3125C32.1016 54.375 33.1953 55.4062 35.1797 55.4062C37.1641 55.4062 38.6797 54.375 39.7266 52.3125C40.7891 50.2344 41.7422 47.2422 42.5859 43.3359Z" fill="white"/>
<path d="M49.4766 43.3359L49.9654 43.4408L49.9657 43.4395L49.4766 43.3359ZM44.0859 56.2969L43.6933 55.9872L43.6924 55.9885L44.0859 56.2969ZM25.875 56.2969L25.4047 56.4666L25.4055 56.4687L25.875 56.2969ZM26.0391 43.3359L26.5279 43.4408L26.5282 43.4395L26.0391 43.3359ZM42.5859 43.3359L43.0747 43.4415L43.0753 43.4387L42.5859 43.3359ZM43.5703 34.2422L43.0725 34.2896L43.073 34.2935L43.5703 34.2422ZM32.8594 43.3359L33.3481 43.4415L33.3487 43.4387L32.8594 43.3359ZM31.8984 52.3125L31.4008 52.3611L31.4008 52.3615L31.8984 52.3125ZM39.7266 52.3125L39.2814 52.0849L39.2807 52.0862L39.7266 52.3125ZM49.1466 30.5205C50.1931 33.4358 50.1686 37.653 48.9874 43.2324L49.9657 43.4395C51.1596 37.8001 51.2288 33.3611 50.0878 30.1826L49.1466 30.5205ZM48.9877 43.2311C47.7934 48.7991 46.0193 53.038 43.6933 55.9872L44.4785 56.6065C46.9338 53.4932 48.7534 49.0916 49.9654 43.4408L48.9877 43.2311ZM43.6924 55.9885C41.4247 58.8827 38.2274 60.3438 34.0312 60.3438V61.3438C38.4914 61.3438 41.9971 59.7736 44.4795 56.6052L43.6924 55.9885ZM34.0312 60.3438C31.9208 60.3438 30.2511 59.9736 28.9896 59.2703C27.739 58.5732 26.8597 57.5327 26.3445 56.125L25.4055 56.4687C25.9997 58.0923 27.0344 59.3253 28.5026 60.1438C29.9599 60.9561 31.8136 61.3438 34.0312 61.3438V60.3438ZM26.3453 56.1272C25.2995 53.2288 25.3312 49.0206 26.5279 43.4408L25.5502 43.2311C24.3407 48.87 24.263 53.3024 25.4047 56.4666L26.3453 56.1272ZM26.5282 43.4395C27.7069 37.8719 29.4733 33.6251 31.7996 30.6602L31.0129 30.0429C28.5579 33.1718 26.7462 37.5812 25.5499 43.2324L26.5282 43.4395ZM31.7996 30.6602C34.0834 27.7494 37.2892 26.2812 41.4844 26.2812V25.2812C37.0233 25.2812 33.5103 26.8599 31.0129 30.0429L31.7996 30.6602ZM41.4844 26.2812C43.5946 26.2812 45.2617 26.6533 46.5187 27.3597C47.7647 28.0599 48.6385 29.1052 49.1466 30.5205L50.0878 30.1826C49.5021 28.551 48.4736 27.3112 47.0086 26.4879C45.5547 25.6709 43.7023 25.2812 41.4844 25.2812V26.2812ZM43.0753 43.4387C43.9362 39.3377 44.2793 36.2418 44.0677 34.1909L43.073 34.2935C43.2676 36.1801 42.9545 39.1467 42.0966 43.2332L43.0753 43.4387ZM44.0681 34.1948C43.9667 33.1303 43.6146 32.2584 42.951 31.6569C42.2877 31.0556 41.3843 30.7891 40.3125 30.7891V31.7891C41.225 31.7891 41.8568 32.0147 42.2794 32.3978C42.7018 32.7807 42.9864 33.3853 43.0726 34.2896L44.0681 34.1948ZM40.3125 30.7891C39.2335 30.7891 38.2604 31.0581 37.4103 31.6074C36.5632 32.1547 35.8642 32.9634 35.3022 34.0047L36.1822 34.4797C36.6827 33.5523 37.2766 32.8843 37.953 32.4473C38.6263 32.0122 39.4072 31.7891 40.3125 31.7891V30.7891ZM35.3022 34.0047C34.2049 36.0379 33.2323 39.1257 32.37 43.2332L33.3487 43.4387C34.2052 39.3586 35.1545 36.384 36.1822 34.4797L35.3022 34.0047ZM32.3706 43.2304C31.524 47.1499 31.1899 50.2037 31.4008 52.3611L32.3961 52.2639C32.2007 50.265 32.5072 47.3345 33.3481 43.4415L32.3706 43.2304ZM31.4008 52.3615C31.5098 53.4674 31.865 54.3714 32.5281 54.9966C33.1943 55.6248 34.1019 55.9062 35.1797 55.9062V54.9062C34.2731 54.9062 33.6416 54.6721 33.2141 54.269C32.7834 53.863 32.4902 53.2201 32.396 52.2635L31.4008 52.3615ZM35.1797 55.9062C36.2635 55.9062 37.2383 55.6229 38.086 55.0462C38.9295 54.4722 39.6206 53.626 40.1724 52.5388L39.2807 52.0862C38.7857 53.0615 38.1955 53.7621 37.5234 54.2194C36.8554 54.6739 36.0802 54.9062 35.1797 54.9062V55.9062ZM40.1717 52.5401C41.2631 50.4055 42.2273 47.3647 43.0747 43.4415L42.0972 43.2304C41.2571 47.1197 40.315 50.0632 39.2814 52.0849L40.1717 52.5401Z" fill="black" mask="url(#path-5-outside-1_1_459)"/>
</g>
<mask id="path-7-outside-2_1_459" maskUnits="userSpaceOnUse" x="61" y="117" width="96" height="131" fill="black">
<rect fill="white" x="61" y="117" width="96" height="131"/>
<path d="M151.674 135.76C155.593 146.678 155.425 162.187 151.17 182.287C146.859 202.387 140.42 217.868 131.854 228.73C123.343 239.592 111.333 245.023 95.8242 245.023C80.3151 245.023 70.5729 239.592 66.5977 228.73C62.6784 217.868 62.8743 202.387 67.1855 182.287C71.4408 162.187 77.8516 146.678 86.418 135.76C94.9844 124.842 107.022 119.383 122.531 119.383C138.04 119.383 147.755 124.842 151.674 135.76ZM126.479 182.287C129.558 167.618 130.734 156.756 130.006 149.701C129.334 142.646 125.443 139.119 118.332 139.119C111.221 139.119 105.762 142.646 101.955 149.701C98.1478 156.756 94.7044 167.618 91.625 182.287C88.6016 196.285 87.4538 207.007 88.1816 214.453C88.9095 221.844 92.8288 225.539 99.9395 225.539C107.05 225.539 112.481 221.844 116.232 214.453C120.04 207.007 123.455 196.285 126.479 182.287Z"/>
</mask>
<path d="M151.674 135.76C155.593 146.678 155.425 162.187 151.17 182.287C146.859 202.387 140.42 217.868 131.854 228.73C123.343 239.592 111.333 245.023 95.8242 245.023C80.3151 245.023 70.5729 239.592 66.5977 228.73C62.6784 217.868 62.8743 202.387 67.1855 182.287C71.4408 162.187 77.8516 146.678 86.418 135.76C94.9844 124.842 107.022 119.383 122.531 119.383C138.04 119.383 147.755 124.842 151.674 135.76ZM126.479 182.287C129.558 167.618 130.734 156.756 130.006 149.701C129.334 142.646 125.443 139.119 118.332 139.119C111.221 139.119 105.762 142.646 101.955 149.701C98.1478 156.756 94.7044 167.618 91.625 182.287C88.6016 196.285 87.4538 207.007 88.1816 214.453C88.9095 221.844 92.8288 225.539 99.9395 225.539C107.05 225.539 112.481 221.844 116.232 214.453C120.04 207.007 123.455 196.285 126.479 182.287Z" fill="#FF00FF"/>
<path d="M151.17 182.287L153.125 182.707L153.127 182.701L151.17 182.287ZM131.854 228.73L130.283 227.492L130.279 227.497L131.854 228.73ZM66.5977 228.73L64.7164 229.409L64.7195 229.418L66.5977 228.73ZM67.1855 182.287L69.1411 182.707L69.1422 182.701L67.1855 182.287ZM126.479 182.287L128.433 182.709L128.436 182.698L126.479 182.287ZM130.006 149.701L128.015 149.891L128.016 149.899L128.016 149.906L130.006 149.701ZM91.625 182.287L93.5799 182.709L93.5823 182.698L91.625 182.287ZM88.1816 214.453L86.1911 214.648L86.1913 214.649L88.1816 214.453ZM116.232 214.453L114.452 213.543L114.449 213.548L116.232 214.453ZM149.791 136.435C153.522 146.827 153.443 161.893 149.213 181.873L153.127 182.701C157.407 162.481 157.664 146.528 153.556 135.084L149.791 136.435ZM149.214 181.868C144.939 201.802 138.591 216.958 130.283 227.492L133.424 229.969C142.249 218.779 148.779 202.972 153.125 182.707L149.214 181.868ZM130.279 227.497C122.198 237.811 110.805 243.023 95.8242 243.023V247.023C111.861 247.023 124.488 241.374 133.428 229.964L130.279 227.497ZM95.8242 243.023C88.2841 243.023 82.3392 241.701 77.8596 239.203C73.4238 236.73 70.3054 233.042 68.4758 228.043L64.7195 229.418C66.8652 235.281 70.6055 239.739 75.9119 242.697C81.1745 245.631 87.8552 247.023 95.8242 247.023V243.023ZM68.4789 228.052C64.7515 217.721 64.8552 202.689 69.1411 182.707L65.23 181.868C60.8935 202.086 60.6053 218.016 64.7164 229.409L68.4789 228.052ZM69.1422 182.701C73.362 162.768 79.6824 147.584 87.9914 136.994L84.8445 134.525C76.0207 145.771 69.5195 161.606 65.2289 181.873L69.1422 182.701ZM87.9914 136.994C96.1307 126.621 107.554 121.383 122.531 121.383V117.383C106.49 117.383 93.8381 123.063 84.8445 134.525L87.9914 136.994ZM122.531 121.383C130.07 121.383 136.006 122.712 140.469 125.221C144.888 127.704 147.987 131.409 149.791 136.435L153.556 135.084C151.441 129.192 147.724 124.709 142.429 121.733C137.178 118.783 130.501 117.383 122.531 117.383V121.383ZM128.436 182.698C131.521 168 132.757 156.879 131.995 149.496L128.016 149.906C128.71 156.632 127.595 167.236 124.521 181.876L128.436 182.698ZM131.997 149.512C131.63 145.664 130.355 142.484 127.927 140.283C125.5 138.083 122.206 137.119 118.332 137.119V141.119C121.569 141.119 123.776 141.919 125.24 143.246C126.704 144.573 127.709 146.684 128.015 149.891L131.997 149.512ZM118.332 137.119C114.429 137.119 110.903 138.093 107.819 140.085C104.748 142.069 102.222 144.996 100.195 148.751L103.715 150.651C105.496 147.352 107.602 144.988 109.99 143.444C112.366 141.909 115.124 141.119 118.332 141.119V137.119ZM100.195 148.751C96.2487 156.064 92.7586 167.152 89.6677 181.876L93.5823 182.698C96.6502 168.084 100.047 157.448 103.715 150.651L100.195 148.751ZM89.6701 181.865C86.6352 195.915 85.4323 206.884 86.1911 214.648L90.1722 214.259C89.4753 207.129 90.5679 196.654 93.5799 182.709L89.6701 181.865ZM86.1913 214.649C86.5846 218.643 87.8705 221.937 90.295 224.223C92.7321 226.521 96.0418 227.539 99.9395 227.539V223.539C96.7264 223.539 94.5212 222.71 93.039 221.312C91.5442 219.903 90.5065 217.654 90.172 214.257L86.1913 214.649ZM99.9395 227.539C103.861 227.539 107.396 226.513 110.471 224.421C113.529 222.34 116.027 219.277 118.016 215.358L114.449 213.548C112.687 217.02 110.593 219.5 108.221 221.114C105.864 222.717 103.128 223.539 99.9395 223.539V227.539ZM118.013 215.364C121.936 207.691 125.395 196.774 128.433 182.709L124.524 181.865C121.515 195.795 118.144 206.322 114.452 213.543L118.013 215.364Z" fill="black" mask="url(#path-7-outside-2_1_459)"/>
<g filter="url(#filter1_d_1_459)">
<mask id="path-9-outside-3_1_459" maskUnits="userSpaceOnUse" x="177" y="304" width="27" height="37" fill="black">
<rect fill="white" x="177" y="304" width="27" height="37"/>
<path d="M178.383 335.648C177.289 332.602 177.336 328.273 178.523 322.664C179.727 317.055 181.523 312.734 183.914 309.703C186.289 306.672 189.641 305.156 193.969 305.156C198.297 305.156 201.016 306.672 202.125 309.703C203.219 312.734 203.164 317.055 201.961 322.664C200.773 328.273 198.984 332.602 196.594 335.648C194.203 338.695 190.844 340.219 186.516 340.219C182.188 340.219 179.477 338.695 178.383 335.648ZM185.414 322.664C184.555 326.758 184.227 329.789 184.43 331.758C184.617 333.727 185.703 334.711 187.688 334.711C189.672 334.711 191.195 333.727 192.258 331.758C193.32 329.789 194.281 326.758 195.141 322.664C195.984 318.758 196.305 315.766 196.102 313.687C195.898 311.625 194.805 310.594 192.82 310.594C190.836 310.594 189.32 311.625 188.273 313.687C187.211 315.766 186.258 318.758 185.414 322.664Z"/>
</mask>
<path d="M178.383 335.648C177.289 332.602 177.336 328.273 178.523 322.664C179.727 317.055 181.523 312.734 183.914 309.703C186.289 306.672 189.641 305.156 193.969 305.156C198.297 305.156 201.016 306.672 202.125 309.703C203.219 312.734 203.164 317.055 201.961 322.664C200.773 328.273 198.984 332.602 196.594 335.648C194.203 338.695 190.844 340.219 186.516 340.219C182.188 340.219 179.477 338.695 178.383 335.648ZM185.414 322.664C184.555 326.758 184.227 329.789 184.43 331.758C184.617 333.727 185.703 334.711 187.688 334.711C189.672 334.711 191.195 333.727 192.258 331.758C193.32 329.789 194.281 326.758 195.141 322.664C195.984 318.758 196.305 315.766 196.102 313.687C195.898 311.625 194.805 310.594 192.82 310.594C190.836 310.594 189.32 311.625 188.273 313.687C187.211 315.766 186.258 318.758 185.414 322.664Z" fill="white"/>
<path d="M178.523 322.664L178.035 322.559L178.034 322.561L178.523 322.664ZM183.914 309.703L184.307 310.013L184.308 310.011L183.914 309.703ZM202.125 309.703L202.595 309.533L202.595 309.531L202.125 309.703ZM201.961 322.664L201.472 322.559L201.472 322.561L201.961 322.664ZM185.414 322.664L184.925 322.558L184.925 322.561L185.414 322.664ZM184.43 331.758L184.927 331.71L184.927 331.706L184.43 331.758ZM195.141 322.664L194.652 322.558L194.651 322.561L195.141 322.664ZM196.102 313.687L196.599 313.639L196.599 313.638L196.102 313.687ZM188.273 313.687L188.719 313.915L188.719 313.914L188.273 313.687ZM178.853 335.48C177.807 332.564 177.831 328.347 179.013 322.768L178.034 322.561C176.84 328.2 176.771 332.639 177.912 335.817L178.853 335.48ZM179.012 322.769C180.207 317.201 181.981 312.962 184.307 310.013L183.521 309.393C181.066 312.507 179.247 316.908 178.035 322.559L179.012 322.769ZM184.308 310.011C186.575 307.117 189.773 305.656 193.969 305.656L193.969 304.656C189.509 304.656 186.003 306.226 183.52 309.395L184.308 310.011ZM193.969 305.656C196.079 305.656 197.749 306.026 199.01 306.73C200.261 307.427 201.14 308.467 201.655 309.875L202.595 309.531C202 307.908 200.966 306.675 199.497 305.856C198.04 305.044 196.186 304.656 193.969 304.656L193.969 305.656ZM201.655 309.873C202.7 312.771 202.669 316.979 201.472 322.559L202.45 322.769C203.659 317.13 203.737 312.698 202.595 309.533L201.655 309.873ZM201.472 322.561C200.293 328.128 198.527 332.375 196.2 335.34L196.987 335.957C199.442 332.828 201.254 328.419 202.45 322.768L201.472 322.561ZM196.2 335.34C193.917 338.251 190.711 339.719 186.516 339.719L186.516 340.719C190.977 340.719 194.49 339.14 196.987 335.957L196.2 335.34ZM186.516 339.719C184.405 339.719 182.738 339.347 181.481 338.64C180.235 337.94 179.361 336.895 178.853 335.48L177.912 335.817C178.498 337.449 179.526 338.689 180.991 339.512C182.445 340.329 184.298 340.719 186.516 340.719L186.516 339.719ZM184.925 322.561C184.064 326.662 183.721 329.758 183.932 331.809L184.927 331.706C184.732 329.82 185.046 326.853 185.903 322.767L184.925 322.561ZM183.932 331.805C184.033 332.87 184.385 333.742 185.049 334.343C185.712 334.944 186.616 335.211 187.688 335.211L187.688 334.211C186.775 334.211 186.143 333.985 185.721 333.602C185.298 333.219 185.014 332.615 184.927 331.71L183.932 331.805ZM187.688 335.211C188.767 335.211 189.74 334.942 190.59 334.393C191.437 333.845 192.136 333.037 192.698 331.995L191.818 331.52C191.317 332.448 190.723 333.116 190.047 333.553C189.374 333.988 188.593 334.211 187.688 334.211L187.688 335.211ZM192.698 331.995C193.795 329.962 194.768 326.874 195.63 322.767L194.651 322.561C193.795 326.641 192.846 329.616 191.818 331.52L192.698 331.995ZM195.629 322.77C196.476 318.85 196.81 315.796 196.599 313.639L195.604 313.736C195.799 315.735 195.493 318.666 194.652 322.558L195.629 322.77ZM196.599 313.638C196.49 312.533 196.135 311.629 195.472 311.003C194.806 310.375 193.898 310.094 192.82 310.094L192.82 311.094C193.727 311.094 194.358 311.328 194.786 311.731C195.217 312.137 195.51 312.78 195.604 313.737L196.599 313.638ZM192.82 310.094C191.736 310.094 190.762 310.377 189.914 310.954C189.071 311.528 188.379 312.374 187.828 313.461L188.719 313.914C189.214 312.938 189.805 312.238 190.477 311.781C191.145 311.326 191.92 311.094 192.82 311.094L192.82 310.094ZM187.828 313.46C186.737 315.594 185.773 318.635 184.925 322.558L185.903 322.77C186.743 318.88 187.685 315.937 188.719 313.915L187.828 313.46Z" fill="black" mask="url(#path-9-outside-3_1_459)"/>
</g>
<defs>
<filter id="filter0_d_1_459" x="23.5938" y="24.2812" width="30.31" height="40.0625" filterUnits="userSpaceOnUse" color-interpolation-filters="sRGB">
<feFlood flood-opacity="0" result="BackgroundImageFix"/>
<feColorMatrix in="SourceAlpha" type="matrix" values="0 0 0 0 0 0 0 0 0 0 0 0 0 0 0 0 0 0 127 0" result="hardAlpha"/>
<feOffset dx="1" dy="1"/>
<feGaussianBlur stdDeviation="1"/>
<feComposite in2="hardAlpha" operator="out"/>
<feColorMatrix type="matrix" values="0 0 0 0 0 0 0 0 0 0 0 0 0 0 0 0 0 0 0.8 0"/>
<feBlend mode="normal" in2="BackgroundImageFix" result="effect1_dropShadow_1_459"/>
<feBlend mode="normal" in="SourceGraphic" in2="effect1_dropShadow_1_459" result="shape"/>
</filter>
<filter id="filter1_d_1_459" x="174.096" y="301.656" width="30.31" height="40.0625" filterUnits="userSpaceOnUse" color-interpolation-filters="sRGB">
<feFlood flood-opacity="0" result="BackgroundImageFix"/>
<feColorMatrix in="SourceAlpha" type="matrix" values="0 0 0 0 0 0 0 0 0 0 0 0 0 0 0 0 0 0 127 0" result="hardAlpha"/>
<feOffset dx="-1" dy="-1"/>
<feGaussianBlur stdDeviation="1"/>
<feComposite in2="hardAlpha" operator="out"/>
<feColorMatrix type="matrix" values="0 0 0 0 0 0 0 0 0 0 0 0 0 0 0 0 0 0 0.8 0"/>
<feBlend mode="normal" in2="BackgroundImageFix" result="effect1_dropShadow_1_459"/>
<feBlend mode="normal" in="SourceGraphic" in2="effect1_dropShadow_1_459" result="shape"/>
</filter>
</defs>
</svg>
