<svg width="230" height="366" viewBox="0 0 230 366" fill="none" xmlns="http://www.w3.org/2000/svg">
<path d="M16 0.5H214C222.56 0.5 229.5 7.43959 229.5 16V350C229.5 358.56 222.56 365.5 214 365.5H16C7.43959 365.5 0.5 358.56 0.5 350V16C0.5 7.43958 7.43959 0.5 16 0.5Z" fill="white" stroke="black"/>
<path d="M16 24C16 19.5817 19.5817 16 24 16H206C210.418 16 214 19.5817 214 24V342C214 346.418 210.418 350 206 350H24C19.5817 350 16 346.418 16 342V24Z" fill="#FF00FF"/>
<ellipse cx="115.174" cy="182.752" rx="79.14" ry="149.259" transform="rotate(30.6494 115.174 182.752)" fill="white"/>
<g filter="url(#filter0_d_1_481)">
<mask id="path-4-outside-1_1_481" maskUnits="userSpaceOnUse" x="27" y="26" width="20" height="36" fill="black">
<rect fill="white" x="27" y="26" width="20" height="36"/>
<path d="M39.2656 28.375C39.5781 27.7656 39.7656 27.3125 39.8281 27.0156H45.3828L38.1641 61H31.3203L36.2891 37.5625H28.2969L29.2578 33.0156C31.3984 32.9219 32.9062 32.7812 33.7812 32.5938C35.1875 32.2969 36.4062 31.7031 37.4375 30.8125C38.1562 30.2031 38.7656 29.3906 39.2656 28.375Z"/>
</mask>
<path d="M39.2656 28.375C39.5781 27.7656 39.7656 27.3125 39.8281 27.0156H45.3828L38.1641 61H31.3203L36.2891 37.5625H28.2969L29.2578 33.0156C31.3984 32.9219 32.9062 32.7812 33.7812 32.5938C35.1875 32.2969 36.4062 31.7031 37.4375 30.8125C38.1562 30.2031 38.7656 29.3906 39.2656 28.375Z" fill="white"/>
<path d="M39.2656 28.375L38.8207 28.1468L38.817 28.1542L39.2656 28.375ZM39.8281 27.0156V26.5156H39.4224L39.3389 26.9126L39.8281 27.0156ZM45.3828 27.0156L45.8719 27.1195L46.0002 26.5156H45.3828V27.0156ZM38.1641 61V61.5H38.569L38.6532 61.1039L38.1641 61ZM31.3203 61L30.8312 60.8963L30.7032 61.5H31.3203V61ZM36.2891 37.5625L36.7782 37.6662L36.9062 37.0625H36.2891V37.5625ZM28.2969 37.5625L27.8077 37.4591L27.6802 38.0625H28.2969V37.5625ZM29.2578 33.0156L29.2359 32.5161L28.8488 32.5331L28.7686 32.9122L29.2578 33.0156ZM33.7812 32.5938L33.678 32.1045L33.6765 32.1048L33.7812 32.5938ZM37.4375 30.8125L37.1141 30.4311L37.1107 30.4341L37.4375 30.8125ZM39.7105 28.6032C40.0244 27.9911 40.24 27.4864 40.3174 27.1186L39.3389 26.9126C39.2913 27.1386 39.1318 27.5402 38.8207 28.1468L39.7105 28.6032ZM39.8281 27.5156H45.3828V26.5156H39.8281V27.5156ZM44.8937 26.9117L37.675 60.8961L38.6532 61.1039L45.8719 27.1195L44.8937 26.9117ZM38.1641 60.5H31.3203V61.5H38.1641V60.5ZM31.8094 61.1037L36.7782 37.6662L35.7999 37.4588L30.8312 60.8963L31.8094 61.1037ZM36.2891 37.0625H28.2969V38.0625H36.2891V37.0625ZM28.7861 37.6659L29.747 33.119L28.7686 32.9122L27.8077 37.4591L28.7861 37.6659ZM29.2797 33.5151C31.4205 33.4214 32.9658 33.2798 33.886 33.0827L33.6765 32.1048C32.8467 32.2827 31.3764 32.4224 29.2359 32.5161L29.2797 33.5151ZM33.8845 33.083C35.3688 32.7696 36.6656 32.1398 37.7643 31.1909L37.1107 30.4341C36.1469 31.2664 35.0062 31.8241 33.678 32.1045L33.8845 33.083ZM37.7608 31.1939C38.5413 30.5322 39.1899 29.6609 39.7142 28.5958L38.817 28.1542C38.3414 29.1204 37.7712 29.8741 37.1142 30.4311L37.7608 31.1939Z" fill="black" mask="url(#path-4-outside-1_1_481)"/>
</g>
<path d="M125.164 133.094C126.284 130.91 126.956 129.286 127.18 128.223H147.084L121.217 250H96.6934L114.498 166.016H85.8594L89.3027 149.723C96.9733 149.387 102.376 148.883 105.512 148.211C110.551 147.147 114.918 145.02 118.613 141.828C121.189 139.645 123.372 136.733 125.164 133.094Z" fill="black"/>
<mask id="path-7-outside-2_1_481" maskUnits="userSpaceOnUse" x="78" y="118" width="67" height="126" fill="black">
<rect fill="white" x="78" y="118" width="67" height="126"/>
<path d="M120.164 125.094C121.284 122.91 121.956 121.286 122.18 120.223H142.084L116.217 242H91.6934L109.498 158.016H80.8594L84.3027 141.723C91.9733 141.387 97.3763 140.883 100.512 140.211C105.551 139.147 109.918 137.02 113.613 133.828C116.189 131.645 118.372 128.733 120.164 125.094Z"/>
</mask>
<path d="M120.164 125.094C121.284 122.91 121.956 121.286 122.18 120.223H142.084L116.217 242H91.6934L109.498 158.016H80.8594L84.3027 141.723C91.9733 141.387 97.3763 140.883 100.512 140.211C105.551 139.147 109.918 137.02 113.613 133.828C116.189 131.645 118.372 128.733 120.164 125.094Z" fill="#FF00FF"/>
<path d="M120.164 125.094L118.384 124.181L118.377 124.196L118.37 124.21L120.164 125.094ZM122.18 120.223V118.223H120.557L120.223 119.811L122.18 120.223ZM142.084 120.223L144.04 120.638L144.553 118.223H142.084V120.223ZM116.217 242V244H117.837L118.173 242.416L116.217 242ZM91.6934 242L89.7368 241.585L89.2249 244H91.6934V242ZM109.498 158.016L111.455 158.43L111.966 156.016H109.498V158.016ZM80.8594 158.016L78.9026 157.602L78.3925 160.016H80.8594V158.016ZM84.3027 141.723L84.2152 139.725L82.6665 139.792L82.346 141.309L84.3027 141.723ZM100.512 140.211L100.099 138.254L100.093 138.255L100.512 140.211ZM113.613 133.828L112.32 132.303L112.313 132.309L112.306 132.314L113.613 133.828ZM121.944 126.006C123.069 123.812 123.853 121.982 124.137 120.635L120.223 119.811C120.058 120.591 119.499 122.008 118.384 124.181L121.944 126.006ZM122.18 122.223H142.084V118.223H122.18V122.223ZM140.128 119.807L114.26 241.584L118.173 242.416L144.04 120.638L140.128 119.807ZM116.217 240H91.6934V244H116.217V240ZM93.6499 242.415L111.455 158.43L107.542 157.601L89.7368 241.585L93.6499 242.415ZM109.498 156.016H80.8594V160.016H109.498V156.016ZM82.8162 158.429L86.2595 142.136L82.346 141.309L78.9026 157.602L82.8162 158.429ZM84.3902 143.721C92.0614 143.385 97.6146 142.877 100.931 142.167L100.093 138.255C97.138 138.888 91.8852 139.389 84.2152 139.725L84.3902 143.721ZM100.925 142.168C106.276 141.038 110.955 138.766 114.921 135.342L112.306 132.314C108.881 135.273 104.826 137.256 100.099 138.254L100.925 142.168ZM114.907 135.354C117.729 132.961 120.069 129.814 121.958 125.977L118.37 124.21C116.675 127.652 114.648 130.328 112.32 132.303L114.907 135.354Z" fill="black" mask="url(#path-7-outside-2_1_481)"/>
<g filter="url(#filter1_d_1_481)">
<mask id="path-9-outside-3_1_481" maskUnits="userSpaceOnUse" x="183" y="307" width="20" height="36" fill="black">
<rect fill="white" x="183" y="307" width="20" height="36"/>
<path d="M190.734 340.625C190.422 341.234 190.234 341.687 190.172 341.984L184.617 341.984L191.836 308L198.68 308L193.711 331.437L201.703 331.437L200.742 335.984C198.602 336.078 197.094 336.219 196.219 336.406C194.813 336.703 193.594 337.297 192.563 338.187C191.844 338.797 191.234 339.609 190.734 340.625Z"/>
</mask>
<path d="M190.734 340.625C190.422 341.234 190.234 341.687 190.172 341.984L184.617 341.984L191.836 308L198.68 308L193.711 331.437L201.703 331.437L200.742 335.984C198.602 336.078 197.094 336.219 196.219 336.406C194.813 336.703 193.594 337.297 192.563 338.187C191.844 338.797 191.234 339.609 190.734 340.625Z" fill="white"/>
<path d="M190.734 340.625L191.179 340.853L191.183 340.846L190.734 340.625ZM190.172 341.984L190.172 342.484L190.578 342.484L190.661 342.087L190.172 341.984ZM184.617 341.984L184.128 341.88L184 342.484L184.617 342.484L184.617 341.984ZM191.836 308L191.836 307.5L191.431 307.5L191.347 307.896L191.836 308ZM198.68 308L199.169 308.104L199.297 307.5L198.68 307.5L198.68 308ZM193.711 331.437L193.222 331.334L193.094 331.937L193.711 331.937L193.711 331.437ZM201.703 331.437L202.192 331.541L202.32 330.937L201.703 330.937L201.703 331.437ZM200.742 335.984L200.764 336.484L201.151 336.467L201.231 336.088L200.742 335.984ZM196.219 336.406L196.322 336.895L196.324 336.895L196.219 336.406ZM192.563 338.187L192.886 338.569L192.889 338.566L192.563 338.187ZM190.289 340.397C189.976 341.009 189.76 341.514 189.683 341.881L190.661 342.087C190.709 341.861 190.868 341.46 191.179 340.853L190.289 340.397ZM190.172 341.484L184.617 341.484L184.617 342.484L190.172 342.484L190.172 341.484ZM185.106 342.088L192.325 308.104L191.347 307.896L184.128 341.88L185.106 342.088ZM191.836 308.5L198.68 308.5L198.68 307.5L191.836 307.5L191.836 308.5ZM198.191 307.896L193.222 331.334L194.2 331.541L199.169 308.104L198.191 307.896ZM193.711 331.937L201.703 331.937L201.703 330.937L193.711 330.937L193.711 331.937ZM201.214 331.334L200.253 335.881L201.231 336.088L202.192 331.541L201.214 331.334ZM200.72 335.485C198.58 335.579 197.034 335.72 196.114 335.917L196.324 336.895C197.153 336.717 198.624 336.578 200.764 336.484L200.72 335.485ZM196.115 335.917C194.631 336.23 193.334 336.86 192.236 337.809L192.889 338.566C193.853 337.734 194.994 337.176 196.322 336.895L196.115 335.917ZM192.239 337.806C191.459 338.468 190.81 339.339 190.286 340.404L191.183 340.846C191.659 339.88 192.229 339.126 192.886 338.569L192.239 337.806Z" fill="black" mask="url(#path-9-outside-3_1_481)"/>
</g>
<defs>
<filter id="filter0_d_1_481" x="26.6802" y="25.5156" width="22.32" height="38.9844" filterUnits="userSpaceOnUse" color-interpolation-filters="sRGB">
<feFlood flood-opacity="0" result="BackgroundImageFix"/>
<feColorMatrix in="SourceAlpha" type="matrix" values="0 0 0 0 0 0 0 0 0 0 0 0 0 0 0 0 0 0 127 0" result="hardAlpha"/>
<feOffset dx="1" dy="1"/>
<feGaussianBlur stdDeviation="1"/>
<feComposite in2="hardAlpha" operator="out"/>
<feColorMatrix type="matrix" values="0 0 0 0 0 0 0 0 0 0 0 0 0 0 0 0 0 0 0.8 0"/>
<feBlend mode="normal" in2="BackgroundImageFix" result="effect1_dropShadow_1_481"/>
<feBlend mode="normal" in="SourceGraphic" in2="effect1_dropShadow_1_481" result="shape"/>
</filter>
<filter id="filter1_d_1_481" x="181" y="304.5" width="22.32" height="38.9844" filterUnits="userSpaceOnUse" color-interpolation-filters="sRGB">
<feFlood flood-opacity="0" result="BackgroundImageFix"/>
<feColorMatrix in="SourceAlpha" type="matrix" values="0 0 0 0 0 0 0 0 0 0 0 0 0 0 0 0 0 0 127 0" result="hardAlpha"/>
<feOffset dx="-1" dy="-1"/>
<feGaussianBlur stdDeviation="1"/>
<feComposite in2="hardAlpha" operator="out"/>
<feColorMatrix type="matrix" values="0 0 0 0 0 0 0 0 0 0 0 0 0 0 0 0 0 0 0.8 0"/>
<feBlend mode="normal" in2="BackgroundImageFix" result="effect1_dropShadow_1_481"/>
<feBlend mode="normal" in="SourceGraphic" in2="effect1_dropShadow_1_481" result="shape"/>
</filter>
</defs>
</svg>
