<svg width="230" height="366" viewBox="0 0 230 366" fill="none" xmlns="http://www.w3.org/2000/svg">
<path d="M16 0.5H214C222.56 0.5 229.5 7.43959 229.5 16V350C229.5 358.56 222.56 365.5 214 365.5H16C7.43959 365.5 0.5 358.56 0.5 350V16C0.5 7.43958 7.43959 0.5 16 0.5Z" fill="white" stroke="black"/>
<path d="M16 24C16 19.5817 19.5817 16 24 16H206C210.418 16 214 19.5817 214 24V342C214 346.418 210.418 350 206 350H24C19.5817 350 16 346.418 16 342V24Z" fill="#FF00FF"/>
<ellipse cx="115.174" cy="182.752" rx="79.14" ry="149.259" transform="rotate(30.6494 115.174 182.752)" fill="white"/>
<g filter="url(#filter0_d_1_489)">
<mask id="path-4-outside-1_1_489" maskUnits="userSpaceOnUse" x="20" y="26" width="31" height="36" fill="black">
<rect fill="white" x="20" y="26" width="31" height="36"/>
<path d="M34.6719 34.7734C34.0625 35.6484 33.5234 37.0391 33.0547 38.9453H26.5625C27.2812 36.0547 28.2969 33.7188 29.6094 31.9375C32.1094 28.5469 35.6328 26.8516 40.1797 26.8516C43.7734 26.8516 46.4219 27.8516 48.125 29.8516C49.8281 31.8359 50.3281 34.4688 49.625 37.75C49.0938 40.2656 47.875 42.5 45.9688 44.4531C44.7031 45.75 42.7734 47.1953 40.1797 48.7891L37.1094 50.6875C35.1875 51.875 33.8594 52.7344 33.125 53.2656C32.3906 53.7969 31.7422 54.4141 31.1797 55.1172H46.0156L44.7734 61H21.5C22.0781 58.5625 23.0703 56.3359 24.4766 54.3203C25.9141 52.0547 28.6719 49.6562 32.75 47.125C36.2969 44.9219 38.625 43.3438 39.7344 42.3906C41.4375 40.9062 42.4766 39.2812 42.8516 37.5156C43.1641 36.0781 43.0234 34.8828 42.4297 33.9297C41.8359 32.9766 40.7969 32.5 39.3125 32.5C37.2812 32.5 35.7344 33.2578 34.6719 34.7734Z"/>
</mask>
<path d="M34.6719 34.7734C34.0625 35.6484 33.5234 37.0391 33.0547 38.9453H26.5625C27.2812 36.0547 28.2969 33.7188 29.6094 31.9375C32.1094 28.5469 35.6328 26.8516 40.1797 26.8516C43.7734 26.8516 46.4219 27.8516 48.125 29.8516C49.8281 31.8359 50.3281 34.4688 49.625 37.75C49.0938 40.2656 47.875 42.5 45.9688 44.4531C44.7031 45.75 42.7734 47.1953 40.1797 48.7891L37.1094 50.6875C35.1875 51.875 33.8594 52.7344 33.125 53.2656C32.3906 53.7969 31.7422 54.4141 31.1797 55.1172H46.0156L44.7734 61H21.5C22.0781 58.5625 23.0703 56.3359 24.4766 54.3203C25.9141 52.0547 28.6719 49.6562 32.75 47.125C36.2969 44.9219 38.625 43.3438 39.7344 42.3906C41.4375 40.9062 42.4766 39.2812 42.8516 37.5156C43.1641 36.0781 43.0234 34.8828 42.4297 33.9297C41.8359 32.9766 40.7969 32.5 39.3125 32.5C37.2812 32.5 35.7344 33.2578 34.6719 34.7734Z" fill="white"/>
<path d="M34.6719 34.7734L34.2625 34.4864L34.2616 34.4877L34.6719 34.7734ZM33.0547 38.9453V39.4453H33.4466L33.5402 39.0647L33.0547 38.9453ZM26.5625 38.9453L26.0773 38.8247L25.923 39.4453H26.5625V38.9453ZM29.6094 31.9375L29.2069 31.6408L29.2068 31.6409L29.6094 31.9375ZM48.125 29.8516L47.7443 30.1757L47.7456 30.1772L48.125 29.8516ZM49.625 37.75L49.1361 37.6452L49.1358 37.6467L49.625 37.75ZM45.9688 44.4531L45.6109 44.1039L45.6109 44.1039L45.9688 44.4531ZM40.1797 48.7891L39.9179 48.3631L39.9167 48.3638L40.1797 48.7891ZM37.1094 50.6875L37.3722 51.1129L37.3723 51.1128L37.1094 50.6875ZM31.1797 55.1172L30.7893 54.8048L30.1394 55.6172H31.1797V55.1172ZM46.0156 55.1172L46.5048 55.2205L46.6322 54.6172H46.0156V55.1172ZM44.7734 61V61.5H45.1789L45.2627 61.1033L44.7734 61ZM21.5 61L21.0135 60.8846L20.8675 61.5H21.5V61ZM24.4766 54.3203L24.8866 54.6064L24.8929 54.5974L24.8988 54.5882L24.4766 54.3203ZM32.75 47.125L33.0137 47.5498L33.0138 47.5497L32.75 47.125ZM39.7344 42.3906L40.0602 42.7699L40.0629 42.7676L39.7344 42.3906ZM42.8516 37.5156L42.363 37.4094L42.3625 37.4117L42.8516 37.5156ZM34.2616 34.4877C33.599 35.4391 33.0424 36.9016 32.5692 38.8259L33.5402 39.0647C34.0045 37.1766 34.526 35.8578 35.0822 35.0592L34.2616 34.4877ZM33.0547 38.4453H26.5625V39.4453H33.0547V38.4453ZM27.0477 39.066C27.7558 36.2181 28.7491 33.9479 30.0119 32.2341L29.2068 31.6409C27.8446 33.4896 26.8067 35.8912 26.0773 38.8247L27.0477 39.066ZM30.0118 32.2342C32.4092 28.9828 35.777 27.3516 40.1797 27.3516V26.3516C35.4887 26.3516 31.8096 28.111 29.2069 31.6408L30.0118 32.2342ZM40.1797 27.3516C43.6836 27.3516 46.1676 28.3242 47.7443 30.1757L48.5057 29.5274C46.6761 27.3789 43.8633 26.3516 40.1797 26.3516V27.3516ZM47.7456 30.1772C49.3191 32.0106 49.8167 34.4693 49.1361 37.6452L50.1139 37.8548C50.8396 34.4682 50.3371 31.6613 48.5044 29.5259L47.7456 30.1772ZM49.1358 37.6467C48.6254 40.0637 47.4552 42.2143 45.6109 44.1039L46.3266 44.8024C48.2948 42.7857 49.5621 40.4675 50.1142 37.8533L49.1358 37.6467ZM45.6109 44.1039C44.3869 45.3581 42.4969 46.7784 39.9179 48.3631L40.4414 49.2151C43.05 47.6122 45.0193 46.1419 46.3266 44.8023L45.6109 44.1039ZM39.9167 48.3638L36.8464 50.2622L37.3723 51.1128L40.4426 49.2143L39.9167 48.3638ZM36.8466 50.2621C34.9251 51.4494 33.5828 52.3174 32.8319 52.8605L33.4181 53.6707C34.136 53.1514 35.4499 52.3006 37.3722 51.1129L36.8466 50.2621ZM32.8319 52.8605C32.0613 53.418 31.3801 54.0663 30.7893 54.8048L31.5701 55.4295C32.1043 54.7618 32.7199 54.1758 33.4181 53.6707L32.8319 52.8605ZM31.1797 55.6172H46.0156V54.6172H31.1797V55.6172ZM45.5264 55.0139L44.2842 60.8967L45.2627 61.1033L46.5048 55.2205L45.5264 55.0139ZM44.7734 60.5H21.5V61.5H44.7734V60.5ZM21.9865 61.1154C22.5504 58.7379 23.5171 56.5694 24.8866 54.6064L24.0665 54.0342C22.6236 56.1024 21.6059 58.3871 21.0135 60.8846L21.9865 61.1154ZM24.8988 54.5882C26.2756 52.4182 28.9567 50.0679 33.0137 47.5498L32.4863 46.7002C28.387 49.2446 25.5525 51.6912 24.0544 54.0524L24.8988 54.5882ZM33.0138 47.5497C36.5564 45.3493 38.9171 43.752 40.0602 42.7699L39.4085 42.0114C38.3329 42.9355 36.0374 44.4945 32.4862 46.7003L33.0138 47.5497ZM40.0629 42.7676C41.8269 41.2302 42.938 39.5154 43.3407 37.6195L42.3625 37.4117C42.0151 39.0471 41.0481 40.5823 39.4059 42.0137L40.0629 42.7676ZM43.3402 37.6218C43.6714 36.098 43.5359 34.7599 42.8541 33.6653L42.0053 34.1941C42.5109 35.0057 42.6567 36.0583 42.363 37.4094L43.3402 37.6218ZM42.8541 33.6653C42.1402 32.5194 40.907 32 39.3125 32V33C40.6868 33 41.5316 33.4337 42.0053 34.1941L42.8541 33.6653ZM39.3125 32C37.1368 32 35.4287 32.8228 34.2625 34.4864L35.0813 35.0605C36.04 33.6928 37.4257 33 39.3125 33V32Z" fill="black" mask="url(#path-4-outside-1_1_489)"/>
</g>
<path d="M108.703 156.021C106.52 159.157 104.588 164.14 102.908 170.971H79.6445C82.2201 160.613 85.8594 152.242 90.5625 145.859C99.5208 133.71 112.146 127.635 128.439 127.635C141.317 127.635 150.807 131.218 156.91 138.385C163.013 145.495 164.805 154.93 162.285 166.688C160.382 175.702 156.014 183.708 149.184 190.707C144.648 195.354 137.734 200.533 128.439 206.244L117.438 213.047C110.551 217.302 105.792 220.382 103.16 222.285C100.529 224.189 98.2051 226.4 96.1895 228.92H149.352L144.9 250H61.5039C63.5755 241.266 67.1309 233.287 72.1699 226.064C77.321 217.946 87.2031 209.352 101.816 200.281C114.526 192.387 122.868 186.732 126.844 183.316C132.947 177.997 136.67 172.174 138.014 165.848C139.133 160.697 138.63 156.413 136.502 152.998C134.374 149.583 130.651 147.875 125.332 147.875C118.053 147.875 112.51 150.59 108.703 156.021Z" fill="black"/>
<mask id="path-7-outside-2_1_489" maskUnits="userSpaceOnUse" x="53" y="117" width="108" height="127" fill="black">
<rect fill="white" x="53" y="117" width="108" height="127"/>
<path d="M103.703 148.021C101.52 151.157 99.5879 156.14 97.9082 162.971H74.6445C77.2201 152.613 80.8594 144.242 85.5625 137.859C94.5208 125.71 107.146 119.635 123.439 119.635C136.317 119.635 145.807 123.218 151.91 130.385C158.013 137.495 159.805 146.93 157.285 158.688C155.382 167.702 151.014 175.708 144.184 182.707C139.648 187.354 132.734 192.533 123.439 198.244L112.438 205.047C105.551 209.302 100.792 212.382 98.1602 214.285C95.5286 216.189 93.2051 218.4 91.1895 220.92H144.352L139.9 242H56.5039C58.5755 233.266 62.1309 225.287 67.1699 218.064C72.321 209.946 82.2031 201.352 96.8164 192.281C109.526 184.387 117.868 178.732 121.844 175.316C127.947 169.997 131.67 164.174 133.014 157.848C134.133 152.697 133.63 148.413 131.502 144.998C129.374 141.583 125.651 139.875 120.332 139.875C113.053 139.875 107.51 142.59 103.703 148.021Z"/>
</mask>
<path d="M103.703 148.021C101.52 151.157 99.5879 156.14 97.9082 162.971H74.6445C77.2201 152.613 80.8594 144.242 85.5625 137.859C94.5208 125.71 107.146 119.635 123.439 119.635C136.317 119.635 145.807 123.218 151.91 130.385C158.013 137.495 159.805 146.93 157.285 158.688C155.382 167.702 151.014 175.708 144.184 182.707C139.648 187.354 132.734 192.533 123.439 198.244L112.438 205.047C105.551 209.302 100.792 212.382 98.1602 214.285C95.5286 216.189 93.2051 218.4 91.1895 220.92H144.352L139.9 242H56.5039C58.5755 233.266 62.1309 225.287 67.1699 218.064C72.321 209.946 82.2031 201.352 96.8164 192.281C109.526 184.387 117.868 178.732 121.844 175.316C127.947 169.997 131.67 164.174 133.014 157.848C134.133 152.697 133.63 148.413 131.502 144.998C129.374 141.583 125.651 139.875 120.332 139.875C113.053 139.875 107.51 142.59 103.703 148.021Z" fill="#FF00FF"/>
<path d="M103.703 148.021L102.065 146.873L102.062 146.878L103.703 148.021ZM97.9082 162.971V164.971H99.476L99.8503 163.448L97.9082 162.971ZM74.6445 162.971L72.7036 162.488L72.0863 164.971H74.6445V162.971ZM85.5625 137.859L83.9528 136.672L83.9524 136.673L85.5625 137.859ZM151.91 130.385L150.387 131.681L150.392 131.687L151.91 130.385ZM157.285 158.688L155.33 158.268L155.328 158.274L157.285 158.688ZM144.184 182.707L142.752 181.31L142.752 181.31L144.184 182.707ZM123.439 198.244L122.392 196.54L122.388 196.543L123.439 198.244ZM112.438 205.047L113.489 206.748L113.489 206.748L112.438 205.047ZM91.1895 220.92L89.6277 219.671L87.0282 222.92H91.1895V220.92ZM144.352 220.92L146.308 221.333L146.818 218.92H144.352V220.92ZM139.9 242V244H141.522L141.857 242.413L139.9 242ZM56.5039 242L54.5579 241.538L53.9741 244H56.5039V242ZM67.1699 218.064L68.8102 219.209L68.8352 219.173L68.8587 219.136L67.1699 218.064ZM96.8164 192.281L97.8711 193.981L97.8717 193.98L96.8164 192.281ZM121.844 175.316L123.147 176.833L123.152 176.829L123.158 176.824L121.844 175.316ZM133.014 157.848L131.059 157.423L131.057 157.432L133.014 157.848ZM102.062 146.878C99.6655 150.319 97.6636 155.59 95.9661 162.493L99.8503 163.448C101.512 156.69 103.374 151.994 105.344 149.164L102.062 146.878ZM97.9082 160.971H74.6445V164.971H97.9082V160.971ZM76.5854 163.453C79.1184 153.266 82.6684 145.159 87.1726 139.046L83.9524 136.673C79.0503 143.326 75.3217 151.959 72.7036 162.488L76.5854 163.453ZM87.1722 139.046C95.7201 127.453 107.723 121.635 123.439 121.635V117.635C106.57 117.635 93.3216 123.966 83.9528 136.672L87.1722 139.046ZM123.439 121.635C135.958 121.635 144.79 125.109 150.387 131.681L153.433 129.088C146.824 121.327 136.677 117.635 123.439 117.635V121.635ZM150.392 131.687C155.977 138.194 157.759 146.932 155.33 158.268L159.241 159.107C161.851 146.928 160.049 136.797 153.428 129.082L150.392 131.687ZM155.328 158.274C153.508 166.894 149.335 174.565 142.752 181.31L145.615 184.104C152.693 176.851 157.255 168.509 159.242 159.101L155.328 158.274ZM142.752 181.31C138.384 185.787 131.628 190.866 122.392 196.54L124.487 199.948C133.84 194.201 140.913 188.922 145.615 184.104L142.752 181.31ZM122.388 196.543L111.386 203.346L113.489 206.748L124.491 199.945L122.388 196.543ZM111.386 203.345C104.501 207.6 99.6852 210.713 96.9879 212.665L99.3324 215.906C101.898 214.05 106.6 211.004 113.489 206.748L111.386 203.345ZM96.9879 212.665C94.2114 214.673 91.7566 217.009 89.6277 219.671L92.7512 222.169C94.6535 219.791 96.8459 217.704 99.3324 215.906L96.9879 212.665ZM91.1895 222.92H144.352V218.92H91.1895V222.92ZM142.395 220.507L137.944 241.587L141.857 242.413L146.308 221.333L142.395 220.507ZM139.9 240H56.5039V244H139.9V240ZM58.4499 242.462C60.4646 233.967 63.9179 226.221 68.8102 219.209L65.5297 216.92C60.3438 224.353 56.6864 232.564 54.5579 241.538L58.4499 242.462ZM68.8587 219.136C73.7671 211.4 83.3424 202.998 97.8711 193.981L95.7617 190.582C81.0638 199.705 70.8749 208.492 65.4812 216.993L68.8587 219.136ZM97.8717 193.98C110.564 186.096 119.037 180.365 123.147 176.833L120.54 173.799C116.7 177.099 108.488 182.677 95.7611 190.582L97.8717 193.98ZM123.158 176.824C129.504 171.293 133.516 165.111 134.97 158.263L131.057 157.432C129.824 163.238 126.389 168.702 120.53 173.809L123.158 176.824ZM134.968 158.273C136.163 152.776 135.68 147.922 133.2 143.941L129.804 146.056C131.58 148.905 132.104 152.617 131.059 157.423L134.968 158.273ZM133.2 143.941C130.592 139.754 126.091 137.875 120.332 137.875V141.875C125.211 141.875 128.157 143.411 129.804 146.056L133.2 143.941ZM120.332 137.875C112.476 137.875 106.288 140.85 102.065 146.873L105.341 149.17C108.733 144.331 113.631 141.875 120.332 141.875V137.875Z" fill="black" mask="url(#path-7-outside-2_1_489)"/>
<g filter="url(#filter1_d_1_489)">
<mask id="path-9-outside-3_1_489" maskUnits="userSpaceOnUse" x="179" y="307" width="31" height="36" fill="black">
<rect fill="white" x="179" y="307" width="31" height="36"/>
<path d="M195.328 334.227C195.938 333.352 196.477 331.961 196.945 330.055L203.438 330.055C202.719 332.945 201.703 335.281 200.391 337.062C197.891 340.453 194.367 342.148 189.82 342.148C186.227 342.148 183.578 341.148 181.875 339.148C180.172 337.164 179.672 334.531 180.375 331.25C180.906 328.734 182.125 326.5 184.031 324.547C185.297 323.25 187.227 321.805 189.82 320.211L192.891 318.312C194.813 317.125 196.141 316.266 196.875 315.734C197.609 315.203 198.258 314.586 198.82 313.883L183.984 313.883L185.227 308L208.5 308C207.922 310.437 206.93 312.664 205.523 314.68C204.086 316.945 201.328 319.344 197.25 321.875C193.703 324.078 191.375 325.656 190.266 326.609C188.563 328.094 187.523 329.719 187.148 331.484C186.836 332.922 186.977 334.117 187.57 335.07C188.164 336.023 189.203 336.5 190.688 336.5C192.719 336.5 194.266 335.742 195.328 334.227Z"/>
</mask>
<path d="M195.328 334.227C195.938 333.352 196.477 331.961 196.945 330.055L203.438 330.055C202.719 332.945 201.703 335.281 200.391 337.062C197.891 340.453 194.367 342.148 189.82 342.148C186.227 342.148 183.578 341.148 181.875 339.148C180.172 337.164 179.672 334.531 180.375 331.25C180.906 328.734 182.125 326.5 184.031 324.547C185.297 323.25 187.227 321.805 189.82 320.211L192.891 318.312C194.813 317.125 196.141 316.266 196.875 315.734C197.609 315.203 198.258 314.586 198.82 313.883L183.984 313.883L185.227 308L208.5 308C207.922 310.437 206.93 312.664 205.523 314.68C204.086 316.945 201.328 319.344 197.25 321.875C193.703 324.078 191.375 325.656 190.266 326.609C188.563 328.094 187.523 329.719 187.148 331.484C186.836 332.922 186.977 334.117 187.57 335.07C188.164 336.023 189.203 336.5 190.688 336.5C192.719 336.5 194.266 335.742 195.328 334.227Z" fill="white"/>
<path d="M195.328 334.227L195.738 334.514L195.738 334.512L195.328 334.227ZM196.945 330.055L196.945 329.555L196.553 329.555L196.46 329.935L196.945 330.055ZM203.438 330.055L203.923 330.175L204.077 329.555L203.438 329.555L203.438 330.055ZM200.391 337.062L200.793 337.359L200.793 337.359L200.391 337.062ZM181.875 339.148L182.256 338.824L182.254 338.823L181.875 339.148ZM180.375 331.25L180.864 331.355L180.864 331.353L180.375 331.25ZM184.031 324.547L184.389 324.896L184.389 324.896L184.031 324.547ZM189.82 320.211L190.082 320.637L190.083 320.636L189.82 320.211ZM192.891 318.312L192.628 317.887L192.628 317.887L192.891 318.312ZM198.82 313.883L199.211 314.195L199.861 313.383L198.82 313.383L198.82 313.883ZM183.984 313.883L183.495 313.78L183.368 314.383L183.984 314.383L183.984 313.883ZM185.227 308L185.227 307.5L184.821 307.5L184.737 307.897L185.227 308ZM208.5 308L208.987 308.115L209.132 307.5L208.5 307.5L208.5 308ZM205.523 314.68L205.113 314.394L205.107 314.403L205.101 314.412L205.523 314.68ZM197.25 321.875L196.986 321.45L196.986 321.45L197.25 321.875ZM190.266 326.609L189.94 326.23L189.937 326.232L190.266 326.609ZM187.148 331.484L187.637 331.591L187.638 331.588L187.148 331.484ZM195.738 334.512C196.401 333.561 196.958 332.098 197.431 330.174L196.46 329.935C195.995 331.823 195.474 333.142 194.918 333.941L195.738 334.512ZM196.945 330.555L203.438 330.555L203.438 329.555L196.945 329.555L196.945 330.555ZM202.952 329.934C202.244 332.782 201.251 335.052 199.988 336.766L200.793 337.359C202.155 335.51 203.193 333.109 203.923 330.175L202.952 329.934ZM199.988 336.766C197.591 340.017 194.223 341.648 189.82 341.648L189.82 342.648C194.511 342.648 198.19 340.889 200.793 337.359L199.988 336.766ZM189.82 341.648C186.316 341.648 183.832 340.676 182.256 338.824L181.494 339.473C183.324 341.621 186.137 342.648 189.82 342.648L189.82 341.648ZM182.254 338.823C180.681 336.989 180.183 334.531 180.864 331.355L179.886 331.145C179.16 334.532 179.663 337.339 181.496 339.474L182.254 338.823ZM180.864 331.353C181.375 328.936 182.545 326.786 184.389 324.896L183.673 324.198C181.705 326.214 180.438 328.532 179.886 331.147L180.864 331.353ZM184.389 324.896C185.613 323.642 187.503 322.222 190.082 320.637L189.559 319.785C186.95 321.388 184.981 322.858 183.673 324.198L184.389 324.896ZM190.083 320.636L193.154 318.738L192.628 317.887L189.557 319.786L190.083 320.636ZM193.153 318.738C195.075 317.551 196.417 316.683 197.168 316.139L196.582 315.329C195.864 315.849 194.55 316.699 192.628 317.887L193.153 318.738ZM197.168 316.139C197.939 315.582 198.62 314.934 199.211 314.195L198.43 313.57C197.896 314.238 197.28 314.824 196.582 315.329L197.168 316.139ZM198.82 313.383L183.984 313.383L183.984 314.383L198.82 314.383L198.82 313.383ZM184.474 313.986L185.716 308.103L184.737 307.897L183.495 313.78L184.474 313.986ZM185.227 308.5L208.5 308.5L208.5 307.5L185.227 307.5L185.227 308.5ZM208.014 307.885C207.45 310.262 206.483 312.431 205.113 314.394L205.934 314.966C207.376 312.898 208.394 310.613 208.987 308.115L208.014 307.885ZM205.101 314.412C203.724 316.582 201.043 318.932 196.986 321.45L197.514 322.3C201.613 319.755 204.447 317.309 205.946 314.948L205.101 314.412ZM196.986 321.45C193.444 323.651 191.083 325.248 189.94 326.23L190.591 326.989C191.667 326.065 193.963 324.506 197.514 322.3L196.986 321.45ZM189.937 326.232C188.173 327.77 187.062 329.485 186.659 331.38L187.638 331.588C187.985 329.953 188.952 328.418 190.594 326.986L189.937 326.232ZM186.66 331.378C186.329 332.902 186.464 334.24 187.146 335.335L187.995 334.806C187.489 333.994 187.343 332.942 187.637 331.591L186.66 331.378ZM187.146 335.335C187.86 336.481 189.093 337 190.688 337L190.688 336C189.313 336 188.468 335.566 187.995 334.806L187.146 335.335ZM190.688 337C192.863 337 194.571 336.177 195.738 334.514L194.919 333.94C193.96 335.307 192.574 336 190.688 336L190.688 337Z" fill="black" mask="url(#path-9-outside-3_1_489)"/>
</g>
<defs>
<filter id="filter0_d_1_489" x="19.8676" y="25.3516" width="33.5654" height="39.1484" filterUnits="userSpaceOnUse" color-interpolation-filters="sRGB">
<feFlood flood-opacity="0" result="BackgroundImageFix"/>
<feColorMatrix in="SourceAlpha" type="matrix" values="0 0 0 0 0 0 0 0 0 0 0 0 0 0 0 0 0 0 127 0" result="hardAlpha"/>
<feOffset dx="1" dy="1"/>
<feGaussianBlur stdDeviation="1"/>
<feComposite in2="hardAlpha" operator="out"/>
<feColorMatrix type="matrix" values="0 0 0 0 0 0 0 0 0 0 0 0 0 0 0 0 0 0 0.8 0"/>
<feBlend mode="normal" in2="BackgroundImageFix" result="effect1_dropShadow_1_489"/>
<feBlend mode="normal" in="SourceGraphic" in2="effect1_dropShadow_1_489" result="shape"/>
</filter>
<filter id="filter1_d_1_489" x="176.567" y="304.5" width="33.5654" height="39.1484" filterUnits="userSpaceOnUse" color-interpolation-filters="sRGB">
<feFlood flood-opacity="0" result="BackgroundImageFix"/>
<feColorMatrix in="SourceAlpha" type="matrix" values="0 0 0 0 0 0 0 0 0 0 0 0 0 0 0 0 0 0 127 0" result="hardAlpha"/>
<feOffset dx="-1" dy="-1"/>
<feGaussianBlur stdDeviation="1"/>
<feComposite in2="hardAlpha" operator="out"/>
<feColorMatrix type="matrix" values="0 0 0 0 0 0 0 0 0 0 0 0 0 0 0 0 0 0 0.8 0"/>
<feBlend mode="normal" in2="BackgroundImageFix" result="effect1_dropShadow_1_489"/>
<feBlend mode="normal" in="SourceGraphic" in2="effect1_dropShadow_1_489" result="shape"/>
</filter>
</defs>
</svg>
