<svg width="230" height="366" viewBox="0 0 230 366" fill="none" xmlns="http://www.w3.org/2000/svg">
<path d="M16 0.5H214C222.56 0.5 229.5 7.43959 229.5 16V350C229.5 358.56 222.56 365.5 214 365.5H16C7.43959 365.5 0.5 358.56 0.5 350V16C0.5 7.43958 7.43959 0.5 16 0.5Z" fill="white" stroke="black"/>
<path d="M16 24C16 19.5817 19.5817 16 24 16H206C210.418 16 214 19.5817 214 24V342C214 346.418 210.418 350 206 350H24C19.5817 350 16 346.418 16 342V24Z" fill="#FF00FF"/>
<ellipse cx="115.174" cy="182.752" rx="79.14" ry="149.259" transform="rotate(30.6494 115.174 182.752)" fill="white"/>
<g filter="url(#filter0_d_1_497)">
<mask id="path-4-outside-1_1_497" maskUnits="userSpaceOnUse" x="22" y="26" width="28" height="37" fill="black">
<rect fill="white" x="22" y="26" width="28" height="37"/>
<path d="M33.3828 46.0703L34.3906 41.2891C36.5781 41.2578 38.1406 41.0469 39.0781 40.6562C40.7031 40 41.7266 38.6719 42.1484 36.6719C42.4297 35.375 42.2734 34.3203 41.6797 33.5078C41.1016 32.6953 40.125 32.2891 38.75 32.2891C37.1719 32.2891 35.9062 32.7891 34.9531 33.7891C34 34.7891 33.3594 36.125 33.0312 37.7969H26.7969C27.2188 36.1094 27.8516 34.5078 28.6953 32.9922C29.5234 31.6641 30.6406 30.4375 32.0469 29.3125C33.0938 28.5156 34.2578 27.9062 35.5391 27.4844C36.8359 27.0625 38.3594 26.8516 40.1094 26.8516C43.3594 26.8516 45.7969 27.6953 47.4219 29.3828C49.0625 31.0547 49.5859 33.3047 48.9922 36.1328C48.5703 38.1328 47.6172 39.8203 46.1328 41.1953C45.1953 42.0547 44.2891 42.6406 43.4141 42.9531C44.0234 42.9531 44.7891 43.4766 45.7109 44.5234C47.0703 46.1016 47.4609 48.2578 46.8828 50.9922C46.2734 53.8672 44.7422 56.3984 42.2891 58.5859C39.8359 60.7578 36.6562 61.8438 32.75 61.8438C27.9375 61.8438 24.9297 60.2734 23.7266 57.1328C23.0859 55.4609 23 53.2734 23.4688 50.5703H30.0312C29.75 51.9297 29.7266 53.0547 29.9609 53.9453C30.4297 55.5859 31.7344 56.4062 33.875 56.4062C35.1875 56.4062 36.4297 55.9609 37.6016 55.0703C38.7734 54.1641 39.5391 52.8672 39.8984 51.1797C40.3672 48.9453 39.7734 47.4531 38.1172 46.7031C37.1797 46.2812 35.6016 46.0703 33.3828 46.0703Z"/>
</mask>
<path d="M33.3828 46.0703L34.3906 41.2891C36.5781 41.2578 38.1406 41.0469 39.0781 40.6562C40.7031 40 41.7266 38.6719 42.1484 36.6719C42.4297 35.375 42.2734 34.3203 41.6797 33.5078C41.1016 32.6953 40.125 32.2891 38.75 32.2891C37.1719 32.2891 35.9062 32.7891 34.9531 33.7891C34 34.7891 33.3594 36.125 33.0312 37.7969H26.7969C27.2188 36.1094 27.8516 34.5078 28.6953 32.9922C29.5234 31.6641 30.6406 30.4375 32.0469 29.3125C33.0938 28.5156 34.2578 27.9062 35.5391 27.4844C36.8359 27.0625 38.3594 26.8516 40.1094 26.8516C43.3594 26.8516 45.7969 27.6953 47.4219 29.3828C49.0625 31.0547 49.5859 33.3047 48.9922 36.1328C48.5703 38.1328 47.6172 39.8203 46.1328 41.1953C45.1953 42.0547 44.2891 42.6406 43.4141 42.9531C44.0234 42.9531 44.7891 43.4766 45.7109 44.5234C47.0703 46.1016 47.4609 48.2578 46.8828 50.9922C46.2734 53.8672 44.7422 56.3984 42.2891 58.5859C39.8359 60.7578 36.6562 61.8438 32.75 61.8438C27.9375 61.8438 24.9297 60.2734 23.7266 57.1328C23.0859 55.4609 23 53.2734 23.4688 50.5703H30.0312C29.75 51.9297 29.7266 53.0547 29.9609 53.9453C30.4297 55.5859 31.7344 56.4062 33.875 56.4062C35.1875 56.4062 36.4297 55.9609 37.6016 55.0703C38.7734 54.1641 39.5391 52.8672 39.8984 51.1797C40.3672 48.9453 39.7734 47.4531 38.1172 46.7031C37.1797 46.2812 35.6016 46.0703 33.3828 46.0703Z" fill="white"/>
<path d="M33.3828 46.0703L32.8936 45.9672L32.7664 46.5703H33.3828V46.0703ZM34.3906 41.2891L34.3835 40.7891L33.9838 40.7948L33.9014 41.1859L34.3906 41.2891ZM39.0781 40.6562L38.8909 40.1926L38.8858 40.1947L39.0781 40.6562ZM42.1484 36.6719L41.6598 36.5659L41.6592 36.5687L42.1484 36.6719ZM41.6797 33.5078L41.2723 33.7977L41.276 33.8028L41.6797 33.5078ZM33.0312 37.7969V38.2969H33.4427L33.5219 37.8932L33.0312 37.7969ZM26.7969 37.7969L26.3118 37.6756L26.1565 38.2969H26.7969V37.7969ZM28.6953 32.9922L28.271 32.7276L28.2645 32.7382L28.2584 32.749L28.6953 32.9922ZM32.0469 29.3125L31.7439 28.9145L31.7345 28.9221L32.0469 29.3125ZM35.5391 27.4844L35.3844 27.0089L35.3827 27.0095L35.5391 27.4844ZM47.4219 29.3828L47.0617 29.7296L47.065 29.733L47.4219 29.3828ZM48.9922 36.1328L49.4814 36.236L49.4815 36.2355L48.9922 36.1328ZM46.1328 41.1953L46.4707 41.5639L46.4726 41.5621L46.1328 41.1953ZM43.4141 42.9531L43.2459 42.4823L43.4141 43.4531V42.9531ZM45.7109 44.5234L46.0898 44.1971L46.0862 44.193L45.7109 44.5234ZM46.8828 50.9922L47.3719 51.0959L47.372 51.0956L46.8828 50.9922ZM42.2891 58.5859L42.6205 58.9603L42.6218 58.9591L42.2891 58.5859ZM23.7266 57.1328L24.1935 56.9539L24.1935 56.9539L23.7266 57.1328ZM23.4688 50.5703V50.0703H23.048L22.9761 50.4849L23.4688 50.5703ZM30.0312 50.5703L30.5209 50.6716L30.6453 50.0703H30.0312V50.5703ZM29.9609 53.9453L29.4773 54.0726L29.4802 54.0827L29.9609 53.9453ZM37.6016 55.0703L37.9041 55.4684L37.9074 55.4658L37.6016 55.0703ZM39.8984 51.1797L40.3875 51.2838L40.3878 51.2823L39.8984 51.1797ZM38.1172 46.7031L38.3234 46.2476L38.3224 46.2472L38.1172 46.7031ZM33.8721 46.1734L34.8799 41.3922L33.9014 41.1859L32.8936 45.9672L33.8721 46.1734ZM34.3978 41.789C36.5924 41.7577 38.2382 41.5479 39.2704 41.1178L38.8858 40.1947C38.043 40.5459 36.5638 40.758 34.3835 40.7891L34.3978 41.789ZM39.2654 41.1199C41.0723 40.3901 42.188 38.9066 42.6377 36.7751L41.6592 36.5687C41.2651 38.4371 40.334 39.6099 38.8909 40.1926L39.2654 41.1199ZM42.6371 36.7778C42.9384 35.3884 42.7862 34.1746 42.0834 33.2128L41.276 33.8028C41.7607 34.4661 41.921 35.3616 41.6598 36.5659L42.6371 36.7778ZM42.0871 33.2179C41.3824 32.2275 40.2205 31.7891 38.75 31.7891V32.7891C40.0295 32.7891 40.8207 33.1631 41.2723 33.7977L42.0871 33.2179ZM38.75 31.7891C37.0564 31.7891 35.6524 32.3306 34.5912 33.4441L35.3151 34.134C36.1601 33.2475 37.2873 32.7891 38.75 32.7891V31.7891ZM34.5912 33.4441C33.5585 34.5275 32.8828 35.9571 32.5406 37.7006L33.5219 37.8932C33.836 36.2929 34.4415 35.0506 35.3151 34.134L34.5912 33.4441ZM33.0312 37.2969H26.7969V38.2969H33.0312V37.2969ZM27.2819 37.9181C27.6932 36.2731 28.3098 34.7126 29.1322 33.2354L28.2584 32.749C27.3933 34.3031 26.7443 35.9456 26.3118 37.6756L27.2819 37.9181ZM29.1196 33.2567C29.9137 31.9832 30.9906 30.7978 32.3592 29.7029L31.7345 28.9221C30.2907 30.0772 29.1332 31.3449 28.271 32.7276L29.1196 33.2567ZM32.3497 29.7104C33.3513 28.948 34.4656 28.3642 35.6954 27.9593L35.3827 27.0095C34.05 27.4483 32.8362 28.0833 31.744 28.9146L32.3497 29.7104ZM35.6937 27.9598C36.9288 27.5581 38.3978 27.3516 40.1094 27.3516V26.3516C38.3209 26.3516 36.7431 26.5669 35.3844 27.0089L35.6937 27.9598ZM40.1094 27.3516C43.2774 27.3516 45.5628 28.173 47.0617 29.7296L47.782 29.036C46.031 27.2176 43.4413 26.3516 40.1094 26.3516V27.3516ZM47.065 29.733C48.5605 31.257 49.0714 33.322 48.5029 36.0301L49.4815 36.2355C50.1005 33.2873 49.5645 30.8524 47.7787 29.0326L47.065 29.733ZM48.503 36.0296C48.1022 37.9295 47.2007 39.5246 45.793 40.8285L46.4726 41.5621C48.0337 40.1161 49.0384 38.3361 49.4814 36.236L48.503 36.0296ZM45.795 40.8267C44.8896 41.6566 44.0395 42.1988 43.2459 42.4823L43.5822 43.424C44.5386 43.0824 45.501 42.4528 46.4707 41.5639L45.795 40.8267ZM43.4141 43.4531C43.5781 43.4531 43.8229 43.5258 44.1631 43.7585C44.499 43.9881 44.8899 44.3477 45.3357 44.8539L46.0862 44.193C45.6101 43.6523 45.1572 43.2267 44.7275 42.9329C44.3021 42.6421 43.8594 42.4531 43.4141 42.4531V43.4531ZM45.3321 44.8498C46.5572 46.272 46.9514 48.2507 46.3936 50.8888L47.372 51.0956C47.9705 48.2649 47.5834 45.9311 46.0898 44.1971L45.3321 44.8498ZM46.3937 50.8885C45.809 53.6471 44.3398 56.0874 41.9563 58.2128L42.6218 58.9591C45.1446 56.7095 46.7379 54.0873 47.3719 51.0959L46.3937 50.8885ZM41.9576 58.2116C39.6129 60.2875 36.5589 61.3438 32.75 61.3438V62.3438C36.7536 62.3438 40.059 61.2281 42.6205 58.9603L41.9576 58.2116ZM32.75 61.3438C30.3927 61.3438 28.5251 60.9583 27.1162 60.2228C25.7193 59.4935 24.751 58.4093 24.1935 56.9539L23.2597 57.3117C23.9053 58.997 25.0424 60.2682 26.6534 61.1092C28.2523 61.944 30.2948 62.3438 32.75 62.3438V61.3438ZM24.1935 56.9539C23.5979 55.3996 23.5005 53.3136 23.9614 50.6557L22.9761 50.4849C22.4995 53.2333 22.574 55.5223 23.2597 57.3117L24.1935 56.9539ZM23.4688 51.0703H30.0312V50.0703H23.4688V51.0703ZM29.5416 50.469C29.252 51.869 29.2159 53.079 29.4774 54.0726L30.4445 53.8181C30.2372 53.0304 30.248 51.9904 30.5209 50.6716L29.5416 50.469ZM29.4802 54.0827C29.7445 55.0078 30.2567 55.7313 31.0249 56.2143C31.7822 56.6905 32.7457 56.9062 33.875 56.9062V55.9062C32.8637 55.9062 32.1045 55.7119 31.5572 55.3677C31.0206 55.0304 30.6461 54.5235 30.4417 53.808L29.4802 54.0827ZM33.875 56.9062C35.31 56.9062 36.6563 56.4167 37.9041 55.4684L37.299 54.6722C36.203 55.5052 35.065 55.9062 33.875 55.9062V56.9062ZM37.9074 55.4658C39.188 54.4756 40.0077 53.067 40.3875 51.2838L39.4094 51.0755C39.0704 52.6674 38.3589 53.8526 37.2957 54.6748L37.9074 55.4658ZM40.3878 51.2823C40.6342 50.1078 40.6148 49.0683 40.2693 48.1999C39.9181 47.3174 39.2526 46.6684 38.3234 46.2476L37.9109 47.1586C38.638 47.4879 39.0975 47.9599 39.3401 48.5696C39.5883 49.1934 39.6314 50.0172 39.4091 51.077L40.3878 51.2823ZM38.3224 46.2472C37.2805 45.7783 35.609 45.5703 33.3828 45.5703V46.5703C35.5941 46.5703 37.0789 46.7842 37.912 47.1591L38.3224 46.2472Z" fill="black" mask="url(#path-4-outside-1_1_497)"/>
</g>
<path d="M104.084 196.502L107.695 179.369C115.534 179.257 121.133 178.501 124.492 177.102C130.315 174.75 133.982 169.991 135.494 162.824C136.502 158.177 135.942 154.398 133.814 151.486C131.743 148.575 128.243 147.119 123.316 147.119C117.661 147.119 113.126 148.911 109.711 152.494C106.296 156.077 104 160.865 102.824 166.855H80.4844C81.9961 160.809 84.2637 155.07 87.2871 149.639C90.2546 144.88 94.2578 140.484 99.2969 136.453C103.048 133.598 107.219 131.414 111.811 129.902C116.458 128.391 121.917 127.635 128.188 127.635C139.833 127.635 148.568 130.658 154.391 136.705C160.27 142.696 162.145 150.758 160.018 160.893C158.506 168.059 155.09 174.106 149.771 179.033C146.412 182.113 143.165 184.212 140.029 185.332C142.213 185.332 144.956 187.208 148.26 190.959C153.131 196.614 154.531 204.34 152.459 214.139C150.275 224.441 144.788 233.511 135.998 241.35C127.208 249.132 115.814 253.023 101.816 253.023C84.5716 253.023 73.7936 247.396 69.4824 236.143C67.1868 230.152 66.8789 222.313 68.5586 212.627H92.0742C91.0664 217.498 90.9824 221.529 91.8223 224.721C93.502 230.6 98.1771 233.539 105.848 233.539C110.551 233.539 115.002 231.943 119.201 228.752C123.4 225.505 126.144 220.857 127.432 214.811C129.111 206.804 126.984 201.457 121.049 198.77C117.689 197.258 112.035 196.502 104.084 196.502Z" fill="black"/>
<mask id="path-7-outside-2_1_497" maskUnits="userSpaceOnUse" x="60" y="117" width="98" height="131" fill="black">
<rect fill="white" x="60" y="117" width="98" height="131"/>
<path d="M99.084 188.502L102.695 171.369C110.534 171.257 116.133 170.501 119.492 169.102C125.315 166.75 128.982 161.991 130.494 154.824C131.502 150.177 130.942 146.398 128.814 143.486C126.743 140.575 123.243 139.119 118.316 139.119C112.661 139.119 108.126 140.911 104.711 144.494C101.296 148.077 99 152.865 97.8242 158.855H75.4844C76.9961 152.809 79.2637 147.07 82.2871 141.639C85.2546 136.88 89.2578 132.484 94.2969 128.453C98.0482 125.598 102.219 123.414 106.811 121.902C111.458 120.391 116.917 119.635 123.188 119.635C134.833 119.635 143.568 122.658 149.391 128.705C155.27 134.696 157.145 142.758 155.018 152.893C153.506 160.059 150.09 166.106 144.771 171.033C141.412 174.113 138.165 176.212 135.029 177.332C137.213 177.332 139.956 179.208 143.26 182.959C148.131 188.614 149.531 196.34 147.459 206.139C145.275 216.441 139.788 225.511 130.998 233.35C122.208 241.132 110.814 245.023 96.8164 245.023C79.5716 245.023 68.7936 239.396 64.4824 228.143C62.1868 222.152 61.8789 214.313 63.5586 204.627H87.0742C86.0664 209.498 85.9824 213.529 86.8223 216.721C88.502 222.6 93.1771 225.539 100.848 225.539C105.551 225.539 110.002 223.943 114.201 220.752C118.4 217.505 121.144 212.857 122.432 206.811C124.111 198.804 121.984 193.457 116.049 190.77C112.689 189.258 107.035 188.502 99.084 188.502Z"/>
</mask>
<path d="M99.084 188.502L102.695 171.369C110.534 171.257 116.133 170.501 119.492 169.102C125.315 166.75 128.982 161.991 130.494 154.824C131.502 150.177 130.942 146.398 128.814 143.486C126.743 140.575 123.243 139.119 118.316 139.119C112.661 139.119 108.126 140.911 104.711 144.494C101.296 148.077 99 152.865 97.8242 158.855H75.4844C76.9961 152.809 79.2637 147.07 82.2871 141.639C85.2546 136.88 89.2578 132.484 94.2969 128.453C98.0482 125.598 102.219 123.414 106.811 121.902C111.458 120.391 116.917 119.635 123.188 119.635C134.833 119.635 143.568 122.658 149.391 128.705C155.27 134.696 157.145 142.758 155.018 152.893C153.506 160.059 150.09 166.106 144.771 171.033C141.412 174.113 138.165 176.212 135.029 177.332C137.213 177.332 139.956 179.208 143.26 182.959C148.131 188.614 149.531 196.34 147.459 206.139C145.275 216.441 139.788 225.511 130.998 233.35C122.208 241.132 110.814 245.023 96.8164 245.023C79.5716 245.023 68.7936 239.396 64.4824 228.143C62.1868 222.152 61.8789 214.313 63.5586 204.627H87.0742C86.0664 209.498 85.9824 213.529 86.8223 216.721C88.502 222.6 93.1771 225.539 100.848 225.539C105.551 225.539 110.002 223.943 114.201 220.752C118.4 217.505 121.144 212.857 122.432 206.811C124.111 198.804 121.984 193.457 116.049 190.77C112.689 189.258 107.035 188.502 99.084 188.502Z" fill="#FF00FF"/>
<path d="M99.084 188.502L97.127 188.089L96.6185 190.502H99.084V188.502ZM102.695 171.369L102.667 169.369L101.068 169.392L100.738 170.957L102.695 171.369ZM119.492 169.102L118.743 167.247L118.733 167.251L118.723 167.255L119.492 169.102ZM130.494 154.824L128.54 154.4L128.537 154.411L130.494 154.824ZM128.814 143.486L127.185 144.646L127.192 144.656L127.2 144.666L128.814 143.486ZM97.8242 158.855V160.855H99.4699L99.7868 159.241L97.8242 158.855ZM75.4844 158.855L73.5441 158.37L72.9228 160.855H75.4844V158.855ZM82.2871 141.639L80.59 140.58L80.5638 140.623L80.5396 140.666L82.2871 141.639ZM94.2969 128.453L93.0855 126.862L93.0663 126.876L93.0475 126.891L94.2969 128.453ZM106.811 121.902L106.192 120L106.185 120.003L106.811 121.902ZM149.391 128.705L147.95 130.092L147.957 130.099L147.963 130.106L149.391 128.705ZM155.018 152.893L156.975 153.305L156.975 153.304L155.018 152.893ZM144.771 171.033L146.123 172.508L146.131 172.5L144.771 171.033ZM135.029 177.332L134.357 175.449L135.029 179.332V177.332ZM143.26 182.959L144.775 181.654L144.768 181.645L144.761 181.637L143.26 182.959ZM147.459 206.139L149.416 206.553L149.416 206.552L147.459 206.139ZM130.998 233.35L132.324 234.847L132.329 234.842L130.998 233.35ZM64.4824 228.143L66.3501 227.427L66.35 227.427L64.4824 228.143ZM63.5586 204.627V202.627H61.8756L61.588 204.285L63.5586 204.627ZM87.0742 204.627L89.0327 205.032L89.5304 202.627H87.0742V204.627ZM86.8223 216.721L84.8881 217.23L84.8935 217.25L84.8992 217.27L86.8223 216.721ZM114.201 220.752L115.411 222.344L115.418 222.339L115.425 222.334L114.201 220.752ZM122.432 206.811L124.388 207.227L124.389 207.221L122.432 206.811ZM116.049 190.77L116.874 188.948L116.87 188.946L116.049 190.77ZM101.041 188.914L104.652 171.782L100.738 170.957L97.127 188.089L101.041 188.914ZM102.724 173.369C110.591 173.257 116.523 172.505 120.261 170.948L118.723 167.255C115.742 168.497 110.477 169.258 102.667 169.369L102.724 173.369ZM120.241 170.956C126.792 168.311 130.828 162.93 132.451 155.237L128.537 154.411C127.136 161.052 123.838 165.189 118.743 167.247L120.241 170.956ZM132.449 155.248C133.537 150.231 132.993 145.815 130.429 142.306L127.2 144.666C128.891 146.981 129.467 150.124 128.54 154.4L132.449 155.248ZM130.444 142.327C127.866 138.704 123.626 137.119 118.316 137.119V141.119C122.861 141.119 125.62 142.446 127.185 144.646L130.444 142.327ZM118.316 137.119C112.2 137.119 107.111 139.077 103.263 143.114L106.159 145.874C109.142 142.744 113.123 141.119 118.316 141.119V137.119ZM103.263 143.114C99.5297 147.031 97.0937 152.193 95.8617 158.47L99.7868 159.241C100.906 153.536 103.061 149.124 106.159 145.874L103.263 143.114ZM97.8242 156.855H75.4844V160.855H97.8242V156.855ZM77.4247 159.341C78.8939 153.464 81.0968 147.889 84.0346 142.611L80.5396 140.666C77.4306 146.251 75.0983 152.154 73.5441 158.37L77.4247 159.341ZM83.9842 142.697C86.8155 138.156 90.6577 133.926 95.5463 130.015L93.0475 126.891C87.8579 131.043 83.6937 135.603 80.59 140.58L83.9842 142.697ZM95.5082 130.045C99.0783 127.327 103.051 125.246 107.436 123.802L106.185 120.003C101.388 121.582 97.0181 123.868 93.0855 126.862L95.5082 130.045ZM107.429 123.804C111.829 122.373 117.07 121.635 123.188 121.635V117.635C116.763 117.635 111.086 118.408 106.192 120L107.429 123.804ZM123.188 121.635C134.505 121.635 142.631 124.569 147.95 130.092L150.831 127.318C144.504 120.747 135.161 117.635 123.188 117.635V121.635ZM147.963 130.106C153.261 135.505 155.087 142.828 153.06 152.482L156.975 153.304C159.203 142.689 157.278 133.887 150.818 127.304L147.963 130.106ZM153.061 152.48C151.633 159.246 148.425 164.923 143.412 169.566L146.131 172.5C151.756 167.289 155.378 160.872 156.975 153.305L153.061 152.48ZM143.42 169.559C140.189 172.52 137.166 174.445 134.357 175.449L135.702 179.216C139.163 177.979 142.635 175.705 146.123 172.508L143.42 169.559ZM135.029 179.332C135.558 179.332 136.394 179.568 137.596 180.39C138.78 181.199 140.168 182.474 141.759 184.281L144.761 181.637C143.048 179.693 141.413 178.154 139.853 177.088C138.311 176.034 136.684 175.332 135.029 175.332V179.332ZM141.744 184.264C146.079 189.296 147.492 196.312 145.502 205.725L149.416 206.552C151.569 196.369 150.183 187.932 144.775 181.654L141.744 184.264ZM145.502 205.724C143.418 215.56 138.179 224.267 129.667 231.857L132.329 234.842C141.398 226.755 147.133 217.321 149.416 206.553L145.502 205.724ZM129.672 231.852C121.315 239.251 110.424 243.023 96.8164 243.023V247.023C111.203 247.023 123.1 243.013 132.324 234.847L129.672 231.852ZM96.8164 243.023C88.3899 243.023 81.7339 241.645 76.7249 239.03C71.7642 236.44 68.3294 232.594 66.3501 227.427L62.6148 228.858C64.9466 234.945 69.0565 239.539 74.8737 242.576C80.6427 245.588 87.9982 247.023 96.8164 247.023V243.023ZM66.35 227.427C64.2347 221.906 63.8809 214.474 65.5292 204.969L61.588 204.285C59.8769 214.153 60.139 222.397 62.6148 228.858L66.35 227.427ZM63.5586 206.627H87.0742V202.627H63.5586V206.627ZM85.1157 204.222C84.0743 209.255 83.9399 213.626 84.8881 217.23L88.7564 216.212C88.0249 213.432 88.0585 209.741 89.0327 205.032L85.1157 204.222ZM84.8992 217.27C85.8588 220.629 87.7231 223.267 90.5238 225.028C93.2815 226.761 96.7764 227.539 100.848 227.539V223.539C97.2483 223.539 94.5704 222.847 92.6529 221.641C90.7786 220.463 89.4654 218.691 88.7453 216.171L84.8992 217.27ZM100.848 227.539C106.041 227.539 110.909 225.766 115.411 222.344L112.991 219.16C109.095 222.12 105.061 223.539 100.848 223.539V227.539ZM115.425 222.334C120.059 218.751 123.019 213.657 124.388 207.227L120.476 206.394C119.269 212.058 116.742 216.259 112.978 219.17L115.425 222.334ZM124.389 207.221C125.277 202.988 125.212 199.219 123.954 196.056C122.673 192.837 120.245 190.474 116.874 188.948L115.224 192.591C117.787 193.752 119.391 195.407 120.237 197.535C121.107 199.719 121.266 202.626 120.474 206.4L124.389 207.221ZM116.87 188.946C113.093 187.246 107.064 186.502 99.084 186.502V190.502C107.005 190.502 112.286 191.27 115.228 192.593L116.87 188.946Z" fill="black" mask="url(#path-7-outside-2_1_497)"/>
<g filter="url(#filter1_d_1_497)">
<mask id="path-9-outside-3_1_497" maskUnits="userSpaceOnUse" x="180" y="306" width="28" height="37" fill="black">
<rect fill="white" x="180" y="306" width="28" height="37"/>
<path d="M196.617 322.93L195.609 327.711C193.422 327.742 191.859 327.953 190.922 328.344C189.297 329 188.273 330.328 187.852 332.328C187.57 333.625 187.727 334.68 188.32 335.492C188.898 336.305 189.875 336.711 191.25 336.711C192.828 336.711 194.094 336.211 195.047 335.211C196 334.211 196.641 332.875 196.969 331.203L203.203 331.203C202.781 332.891 202.148 334.492 201.305 336.008C200.477 337.336 199.359 338.562 197.953 339.687C196.906 340.484 195.742 341.094 194.461 341.516C193.164 341.937 191.641 342.148 189.891 342.148C186.641 342.148 184.203 341.305 182.578 339.617C180.938 337.945 180.414 335.695 181.008 332.867C181.43 330.867 182.383 329.18 183.867 327.805C184.805 326.945 185.711 326.359 186.586 326.047C185.977 326.047 185.211 325.523 184.289 324.477C182.93 322.898 182.539 320.742 183.117 318.008C183.727 315.133 185.258 312.602 187.711 310.414C190.164 308.242 193.344 307.156 197.25 307.156C202.063 307.156 205.07 308.727 206.273 311.867C206.914 313.539 207 315.727 206.531 318.43L199.969 318.43C200.25 317.07 200.273 315.945 200.039 315.055C199.57 313.414 198.266 312.594 196.125 312.594C194.813 312.594 193.57 313.039 192.398 313.93C191.227 314.836 190.461 316.133 190.102 317.82C189.633 320.055 190.227 321.547 191.883 322.297C192.82 322.719 194.398 322.93 196.617 322.93Z"/>
</mask>
<path d="M196.617 322.93L195.609 327.711C193.422 327.742 191.859 327.953 190.922 328.344C189.297 329 188.273 330.328 187.852 332.328C187.57 333.625 187.727 334.68 188.32 335.492C188.898 336.305 189.875 336.711 191.25 336.711C192.828 336.711 194.094 336.211 195.047 335.211C196 334.211 196.641 332.875 196.969 331.203L203.203 331.203C202.781 332.891 202.148 334.492 201.305 336.008C200.477 337.336 199.359 338.562 197.953 339.687C196.906 340.484 195.742 341.094 194.461 341.516C193.164 341.937 191.641 342.148 189.891 342.148C186.641 342.148 184.203 341.305 182.578 339.617C180.938 337.945 180.414 335.695 181.008 332.867C181.43 330.867 182.383 329.18 183.867 327.805C184.805 326.945 185.711 326.359 186.586 326.047C185.977 326.047 185.211 325.523 184.289 324.477C182.93 322.898 182.539 320.742 183.117 318.008C183.727 315.133 185.258 312.602 187.711 310.414C190.164 308.242 193.344 307.156 197.25 307.156C202.063 307.156 205.07 308.727 206.273 311.867C206.914 313.539 207 315.727 206.531 318.43L199.969 318.43C200.25 317.07 200.273 315.945 200.039 315.055C199.57 313.414 198.266 312.594 196.125 312.594C194.813 312.594 193.57 313.039 192.398 313.93C191.227 314.836 190.461 316.133 190.102 317.82C189.633 320.055 190.227 321.547 191.883 322.297C192.82 322.719 194.398 322.93 196.617 322.93Z" fill="white"/>
<path d="M196.617 322.93L197.106 323.033L197.234 322.43L196.617 322.43L196.617 322.93ZM195.609 327.711L195.617 328.211L196.016 328.205L196.099 327.814L195.609 327.711ZM190.922 328.344L191.109 328.807L191.114 328.805L190.922 328.344ZM187.852 332.328L188.34 332.434L188.341 332.431L187.852 332.328ZM188.32 335.492L188.728 335.202L188.724 335.197L188.32 335.492ZM196.969 331.203L196.969 330.703L196.557 330.703L196.478 331.107L196.969 331.203ZM203.203 331.203L203.688 331.324L203.844 330.703L203.203 330.703L203.203 331.203ZM201.305 336.008L201.729 336.272L201.736 336.262L201.742 336.251L201.305 336.008ZM197.953 339.687L198.256 340.085L198.265 340.078L197.953 339.687ZM194.461 341.516L194.616 341.991L194.617 341.991L194.461 341.516ZM182.578 339.617L182.938 339.27L182.935 339.267L182.578 339.617ZM181.008 332.867L180.519 332.764L180.518 332.764L181.008 332.867ZM183.867 327.805L183.529 327.436L183.527 327.438L183.867 327.805ZM186.586 326.047L186.754 326.518L186.586 325.547L186.586 326.047ZM184.289 324.477L183.91 324.803L183.914 324.807L184.289 324.477ZM183.117 318.008L182.628 317.904L182.628 317.904L183.117 318.008ZM187.711 310.414L187.379 310.04L187.378 310.041L187.711 310.414ZM206.273 311.867L205.807 312.046L205.807 312.046L206.273 311.867ZM206.531 318.43L206.531 318.93L206.952 318.93L207.024 318.515L206.531 318.43ZM199.969 318.43L199.479 318.328L199.355 318.93L199.969 318.93L199.969 318.43ZM200.039 315.055L200.523 314.927L200.52 314.917L200.039 315.055ZM192.398 313.93L192.096 313.532L192.093 313.534L192.398 313.93ZM190.102 317.82L189.613 317.716L189.612 317.718L190.102 317.82ZM191.883 322.297L191.677 322.752L191.678 322.753L191.883 322.297ZM196.128 322.827L195.12 327.608L196.099 327.814L197.106 323.033L196.128 322.827ZM195.602 327.211C193.408 327.242 191.762 327.452 190.73 327.882L191.114 328.805C191.957 328.454 193.436 328.242 195.617 328.211L195.602 327.211ZM190.735 327.88C188.928 328.61 187.812 330.093 187.362 332.225L188.341 332.431C188.735 330.563 189.666 329.39 191.109 328.807L190.735 327.88ZM187.363 332.222C187.062 333.612 187.214 334.825 187.917 335.787L188.724 335.197C188.239 334.534 188.079 333.638 188.34 332.434L187.363 332.222ZM187.913 335.782C188.618 336.772 189.779 337.211 191.25 337.211L191.25 336.211C189.971 336.211 189.179 335.837 188.728 335.202L187.913 335.782ZM191.25 337.211C192.944 337.211 194.348 336.669 195.409 335.556L194.685 334.866C193.84 335.753 192.713 336.211 191.25 336.211L191.25 337.211ZM195.409 335.556C196.441 334.472 197.117 333.043 197.459 331.299L196.478 331.107C196.164 332.707 195.559 333.949 194.685 334.866L195.409 335.556ZM196.969 331.703L203.203 331.703L203.203 330.703L196.969 330.703L196.969 331.703ZM202.718 331.082C202.307 332.727 201.69 334.287 200.868 335.765L201.742 336.251C202.607 334.697 203.256 333.054 203.688 331.324L202.718 331.082ZM200.88 335.743C200.086 337.017 199.009 338.202 197.641 339.297L198.265 340.078C199.709 338.923 200.867 337.655 201.729 336.272L200.88 335.743ZM197.65 339.29C196.649 340.052 195.534 340.636 194.305 341.041L194.617 341.991C195.95 341.552 197.164 340.917 198.256 340.085L197.65 339.29ZM194.306 341.04C193.071 341.442 191.602 341.648 189.891 341.648L189.891 342.648C191.679 342.648 193.257 342.433 194.616 341.991L194.306 341.04ZM189.891 341.648C186.723 341.648 184.437 340.827 182.938 339.27L182.218 339.964C183.969 341.782 186.559 342.648 189.891 342.648L189.891 341.648ZM182.935 339.267C181.44 337.743 180.929 335.678 181.497 332.97L180.518 332.764C179.9 335.713 180.435 338.148 182.221 339.967L182.935 339.267ZM181.497 332.97C181.898 331.07 182.799 329.475 184.207 328.171L183.527 327.438C181.966 328.884 180.962 330.664 180.519 332.764L181.497 332.97ZM184.205 328.173C185.11 327.343 185.961 326.801 186.754 326.518L186.418 325.576C185.461 325.918 184.499 326.547 183.529 327.436L184.205 328.173ZM186.586 325.547C186.422 325.547 186.177 325.474 185.837 325.242C185.501 325.012 185.11 324.652 184.664 324.146L183.914 324.807C184.39 325.348 184.843 325.773 185.272 326.067C185.698 326.358 186.141 326.547 186.586 326.547L186.586 325.547ZM184.668 324.15C183.443 322.728 183.049 320.749 183.606 318.111L182.628 317.904C182.03 320.735 182.417 323.069 183.91 324.803L184.668 324.15ZM183.606 318.111C184.191 315.353 185.66 312.913 188.044 310.787L187.378 310.041C184.855 312.29 183.262 314.913 182.628 317.904L183.606 318.111ZM188.042 310.788C190.387 308.713 193.441 307.656 197.25 307.656L197.25 306.656C193.246 306.656 189.941 307.772 187.379 310.04L188.042 310.788ZM197.25 307.656C199.607 307.656 201.475 308.042 202.884 308.777C204.281 309.506 205.249 310.591 205.807 312.046L206.74 311.688C206.095 310.003 204.958 308.732 203.347 307.891C201.748 307.056 199.705 306.656 197.25 306.656L197.25 307.656ZM205.807 312.046C206.402 313.6 206.5 315.686 206.039 318.344L207.024 318.515C207.501 315.767 207.426 313.478 206.74 311.688L205.807 312.046ZM206.531 317.93L199.969 317.93L199.969 318.93L206.531 318.93L206.531 317.93ZM200.458 318.531C200.748 317.131 200.784 315.921 200.523 314.927L199.556 315.182C199.763 315.97 199.752 317.01 199.479 318.328L200.458 318.531ZM200.52 314.917C200.256 313.992 199.743 313.269 198.975 312.786C198.218 312.31 197.254 312.094 196.125 312.094L196.125 313.094C197.136 313.094 197.896 313.288 198.443 313.632C198.979 313.97 199.354 314.477 199.558 315.192L200.52 314.917ZM196.125 312.094C194.69 312.094 193.344 312.583 192.096 313.532L192.701 314.328C193.797 313.495 194.935 313.094 196.125 313.094L196.125 312.094ZM192.093 313.534C190.812 314.524 189.992 315.933 189.613 317.716L190.591 317.924C190.93 316.333 191.641 315.147 192.704 314.325L192.093 313.534ZM189.612 317.718C189.366 318.892 189.385 319.932 189.731 320.8C190.082 321.683 190.747 322.332 191.677 322.752L192.089 321.841C191.362 321.512 190.902 321.04 190.66 320.43C190.412 319.807 190.369 318.983 190.591 317.923L189.612 317.718ZM191.678 322.753C192.72 323.222 194.391 323.43 196.617 323.43L196.617 322.43C194.406 322.43 192.921 322.216 192.088 321.841L191.678 322.753Z" fill="black" mask="url(#path-9-outside-3_1_497)"/>
</g>
<defs>
<filter id="filter0_d_1_497" x="21.6716" y="25.3516" width="31.0569" height="39.9922" filterUnits="userSpaceOnUse" color-interpolation-filters="sRGB">
<feFlood flood-opacity="0" result="BackgroundImageFix"/>
<feColorMatrix in="SourceAlpha" type="matrix" values="0 0 0 0 0 0 0 0 0 0 0 0 0 0 0 0 0 0 127 0" result="hardAlpha"/>
<feOffset dx="1" dy="1"/>
<feGaussianBlur stdDeviation="1"/>
<feComposite in2="hardAlpha" operator="out"/>
<feColorMatrix type="matrix" values="0 0 0 0 0 0 0 0 0 0 0 0 0 0 0 0 0 0 0.8 0"/>
<feBlend mode="normal" in2="BackgroundImageFix" result="effect1_dropShadow_1_497"/>
<feBlend mode="normal" in="SourceGraphic" in2="effect1_dropShadow_1_497" result="shape"/>
</filter>
<filter id="filter1_d_1_497" x="177.271" y="303.656" width="31.0569" height="39.9922" filterUnits="userSpaceOnUse" color-interpolation-filters="sRGB">
<feFlood flood-opacity="0" result="BackgroundImageFix"/>
<feColorMatrix in="SourceAlpha" type="matrix" values="0 0 0 0 0 0 0 0 0 0 0 0 0 0 0 0 0 0 127 0" result="hardAlpha"/>
<feOffset dx="-1" dy="-1"/>
<feGaussianBlur stdDeviation="1"/>
<feComposite in2="hardAlpha" operator="out"/>
<feColorMatrix type="matrix" values="0 0 0 0 0 0 0 0 0 0 0 0 0 0 0 0 0 0 0.8 0"/>
<feBlend mode="normal" in2="BackgroundImageFix" result="effect1_dropShadow_1_497"/>
<feBlend mode="normal" in="SourceGraphic" in2="effect1_dropShadow_1_497" result="shape"/>
</filter>
</defs>
</svg>
