<svg width="230" height="366" viewBox="0 0 230 366" fill="none" xmlns="http://www.w3.org/2000/svg">
<path d="M16 0.5H214C222.56 0.5 229.5 7.43959 229.5 16V350C229.5 358.56 222.56 365.5 214 365.5H16C7.43959 365.5 0.5 358.56 0.5 350V16C0.5 7.43958 7.43959 0.5 16 0.5Z" fill="white" stroke="black"/>
<path d="M16 24C16 19.5817 19.5817 16 24 16H206C210.418 16 214 19.5817 214 24V342C214 346.418 210.418 350 206 350H24C19.5817 350 16 346.418 16 342V24Z" fill="#FF00FF"/>
<ellipse cx="115.174" cy="182.752" rx="79.14" ry="149.259" transform="rotate(30.6494 115.174 182.752)" fill="white"/>
<g filter="url(#filter0_d_1_505)">
<mask id="path-4-outside-1_1_505" maskUnits="userSpaceOnUse" x="22" y="26" width="28" height="36" fill="black">
<rect fill="white" x="22" y="26" width="28" height="36"/>
<path d="M42.8047 53.6875L41.2578 61H34.7188L36.2656 53.6875H22.8125L24.0547 47.8516L40.9297 27.2266H48.4297L43.9062 48.4609H47.75L46.6484 53.6875H42.8047ZM28.8594 48.4609H37.3672L40.4844 33.7891L28.8594 48.4609Z"/>
</mask>
<path d="M42.8047 53.6875L41.2578 61H34.7188L36.2656 53.6875H22.8125L24.0547 47.8516L40.9297 27.2266H48.4297L43.9062 48.4609H47.75L46.6484 53.6875H42.8047ZM28.8594 48.4609H37.3672L40.4844 33.7891L28.8594 48.4609Z" fill="white"/>
<path d="M42.8047 53.6875V53.1875H42.3994L42.3155 53.584L42.8047 53.6875ZM41.2578 61V61.5H41.6631L41.747 61.1035L41.2578 61ZM34.7188 61L34.2296 60.8965L34.1019 61.5H34.7188V61ZM36.2656 53.6875L36.7548 53.791L36.8825 53.1875H36.2656V53.6875ZM22.8125 53.6875L22.3235 53.5834L22.1949 54.1875H22.8125V53.6875ZM24.0547 47.8516L23.6677 47.5349L23.5909 47.6288L23.5656 47.7475L24.0547 47.8516ZM40.9297 27.2266V26.7266H40.6927L40.5427 26.9099L40.9297 27.2266ZM48.4297 27.2266L48.9187 27.3307L49.0474 26.7266H48.4297V27.2266ZM43.9062 48.4609L43.4172 48.3568L43.2885 48.9609H43.9062V48.4609ZM47.75 48.4609L48.2393 48.5641L48.3664 47.9609H47.75V48.4609ZM46.6484 53.6875V54.1875H47.054L47.1377 53.7906L46.6484 53.6875ZM28.8594 48.4609L28.4675 48.1504L27.8253 48.9609H28.8594V48.4609ZM37.3672 48.4609V48.9609H37.7721L37.8563 48.5648L37.3672 48.4609ZM40.4844 33.7891L40.9735 33.893L40.0925 33.4786L40.4844 33.7891ZM42.3155 53.584L40.7686 60.8965L41.747 61.1035L43.2939 53.791L42.3155 53.584ZM41.2578 60.5H34.7188V61.5H41.2578V60.5ZM35.2079 61.1035L36.7548 53.791L35.7765 53.584L34.2296 60.8965L35.2079 61.1035ZM36.2656 53.1875H22.8125V54.1875H36.2656V53.1875ZM23.3015 53.7916L24.5437 47.9557L23.5656 47.7475L22.3235 53.5834L23.3015 53.7916ZM24.4417 48.1682L41.3167 27.5432L40.5427 26.9099L23.6677 47.5349L24.4417 48.1682ZM40.9297 27.7266H48.4297V26.7266H40.9297V27.7266ZM47.9407 27.1224L43.4172 48.3568L44.3953 48.5651L48.9187 27.3307L47.9407 27.1224ZM43.9062 48.9609H47.75V47.9609H43.9062V48.9609ZM47.2607 48.3578L46.1592 53.5844L47.1377 53.7906L48.2393 48.5641L47.2607 48.3578ZM46.6484 53.1875H42.8047V54.1875H46.6484V53.1875ZM28.8594 48.9609H37.3672V47.9609H28.8594V48.9609ZM37.8563 48.5648L40.9735 33.893L39.9953 33.6852L36.8781 48.357L37.8563 48.5648ZM40.0925 33.4786L28.4675 48.1504L29.2513 48.7714L40.8763 34.0996L40.0925 33.4786Z" fill="black" mask="url(#path-4-outside-1_1_505)"/>
</g>
<path d="M137.846 223.797L132.303 250H108.871L114.414 223.797H66.207L70.6582 202.885L131.127 128.979H158.002L141.793 205.068H155.566L151.619 223.797H137.846ZM87.875 205.068H118.361L129.531 152.494L87.875 205.068Z" fill="black"/>
<mask id="path-7-outside-2_1_505" maskUnits="userSpaceOnUse" x="58" y="118" width="98" height="126" fill="black">
<rect fill="white" x="58" y="118" width="98" height="126"/>
<path d="M132.846 215.797L127.303 242H103.871L109.414 215.797H61.207L65.6582 194.885L126.127 120.979H153.002L136.793 197.068H150.566L146.619 215.797H132.846ZM82.875 197.068H113.361L124.531 144.494L82.875 197.068Z"/>
</mask>
<path d="M132.846 215.797L127.303 242H103.871L109.414 215.797H61.207L65.6582 194.885L126.127 120.979H153.002L136.793 197.068H150.566L146.619 215.797H132.846ZM82.875 197.068H113.361L124.531 144.494L82.875 197.068Z" fill="#FF00FF"/>
<path d="M132.846 215.797V213.797H131.225L130.889 215.383L132.846 215.797ZM127.303 242V244H128.924L129.259 242.414L127.303 242ZM103.871 242L101.914 241.586L101.404 244H103.871V242ZM109.414 215.797L111.371 216.211L111.881 213.797H109.414V215.797ZM61.207 215.797L59.2509 215.38L58.7365 217.797H61.207V215.797ZM65.6582 194.885L64.1103 193.618L63.803 193.994L63.702 194.468L65.6582 194.885ZM126.127 120.979V118.979H125.179L124.579 119.712L126.127 120.979ZM153.002 120.979L154.958 121.395L155.473 118.979H153.002V120.979ZM136.793 197.068L134.837 196.652L134.322 199.068H136.793V197.068ZM150.566 197.068L152.523 197.481L153.032 195.068H150.566V197.068ZM146.619 215.797V217.797H148.242L148.576 216.209L146.619 215.797ZM82.875 197.068L81.3074 195.826L78.7386 199.068H82.875V197.068ZM113.361 197.068V199.068H114.981L115.318 197.484L113.361 197.068ZM124.531 144.494L126.488 144.91L122.964 143.252L124.531 144.494ZM130.889 215.383L125.346 241.586L129.259 242.414L134.802 216.211L130.889 215.383ZM127.303 240H103.871V244H127.303V240ZM105.828 242.414L111.371 216.211L107.457 215.383L101.914 241.586L105.828 242.414ZM109.414 213.797H61.207V217.797H109.414V213.797ZM63.1632 216.213L67.6144 195.301L63.702 194.468L59.2509 215.38L63.1632 216.213ZM67.2061 196.151L127.675 122.245L124.579 119.712L64.1103 193.618L67.2061 196.151ZM126.127 122.979H153.002V118.979H126.127V122.979ZM151.046 120.562L134.837 196.652L138.749 197.485L154.958 121.395L151.046 120.562ZM136.793 199.068H150.566V195.068H136.793V199.068ZM148.609 196.656L144.662 215.384L148.576 216.209L152.523 197.481L148.609 196.656ZM146.619 213.797H132.846V217.797H146.619V213.797ZM82.875 199.068H113.361V195.068H82.875V199.068ZM115.318 197.484L126.488 144.91L122.575 144.078L111.405 196.653L115.318 197.484ZM122.964 143.252L81.3074 195.826L84.4426 198.31L126.099 145.736L122.964 143.252Z" fill="black" mask="url(#path-7-outside-2_1_505)"/>
<g filter="url(#filter1_d_1_505)">
<mask id="path-9-outside-3_1_505" maskUnits="userSpaceOnUse" x="180" y="307" width="28" height="36" fill="black">
<rect fill="white" x="180" y="307" width="28" height="36"/>
<path d="M187.195 315.312L188.742 308L195.281 308L193.734 315.312L207.188 315.312L205.945 321.148L189.07 341.773L181.57 341.773L186.094 320.539L182.25 320.539L183.352 315.312L187.195 315.312ZM201.141 320.539L192.633 320.539L189.516 335.211L201.141 320.539Z"/>
</mask>
<path d="M187.195 315.312L188.742 308L195.281 308L193.734 315.312L207.188 315.312L205.945 321.148L189.07 341.773L181.57 341.773L186.094 320.539L182.25 320.539L183.352 315.312L187.195 315.312ZM201.141 320.539L192.633 320.539L189.516 335.211L201.141 320.539Z" fill="white"/>
<path d="M187.195 315.312L187.195 315.812L187.601 315.812L187.684 315.416L187.195 315.312ZM188.742 308L188.742 307.5L188.337 307.5L188.253 307.897L188.742 308ZM195.281 308L195.77 308.103L195.898 307.5L195.281 307.5L195.281 308ZM193.734 315.312L193.245 315.209L193.118 315.812L193.734 315.812L193.734 315.312ZM207.188 315.312L207.677 315.417L207.805 314.812L207.188 314.812L207.188 315.312ZM205.945 321.148L206.332 321.465L206.409 321.371L206.434 321.253L205.945 321.148ZM189.07 341.773L189.07 342.273L189.307 342.273L189.457 342.09L189.07 341.773ZM181.57 341.773L181.081 341.669L180.953 342.273L181.57 342.273L181.57 341.773ZM186.094 320.539L186.583 320.643L186.711 320.039L186.094 320.039L186.094 320.539ZM182.25 320.539L181.761 320.436L181.634 321.039L182.25 321.039L182.25 320.539ZM183.352 315.312L183.352 314.812L182.946 314.812L182.862 315.209L183.352 315.312ZM201.141 320.539L201.533 320.85L202.175 320.039L201.141 320.039L201.141 320.539ZM192.633 320.539L192.633 320.039L192.228 320.039L192.144 320.435L192.633 320.539ZM189.516 335.211L189.027 335.107L189.908 335.521L189.516 335.211ZM187.684 315.416L189.231 308.103L188.253 307.897L186.706 315.209L187.684 315.416ZM188.742 308.5L195.281 308.5L195.281 307.5L188.742 307.5L188.742 308.5ZM194.792 307.897L193.245 315.209L194.224 315.416L195.77 308.103L194.792 307.897ZM193.734 315.812L207.188 315.812L207.188 314.812L193.734 314.812L193.734 315.812ZM206.698 315.208L205.456 321.044L206.434 321.253L207.677 315.417L206.698 315.208ZM205.558 320.832L188.683 341.457L189.457 342.09L206.332 321.465L205.558 320.832ZM189.07 341.273L181.57 341.273L181.57 342.273L189.07 342.273L189.07 341.273ZM182.059 341.878L186.583 320.643L185.605 320.435L181.081 341.669L182.059 341.878ZM186.094 320.039L182.25 320.039L182.25 321.039L186.094 321.039L186.094 320.039ZM182.739 320.642L183.841 315.416L182.862 315.209L181.761 320.436L182.739 320.642ZM183.352 315.812L187.195 315.812L187.195 314.812L183.352 314.812L183.352 315.812ZM201.141 320.039L192.633 320.039L192.633 321.039L201.141 321.039L201.141 320.039ZM192.144 320.435L189.027 335.107L190.005 335.315L193.122 320.643L192.144 320.435ZM189.908 335.521L201.533 320.85L200.749 320.229L189.124 334.9L189.908 335.521Z" fill="black" mask="url(#path-9-outside-3_1_505)"/>
</g>
<defs>
<filter id="filter0_d_1_505" x="21.1948" y="25.7266" width="30.8525" height="38.7734" filterUnits="userSpaceOnUse" color-interpolation-filters="sRGB">
<feFlood flood-opacity="0" result="BackgroundImageFix"/>
<feColorMatrix in="SourceAlpha" type="matrix" values="0 0 0 0 0 0 0 0 0 0 0 0 0 0 0 0 0 0 127 0" result="hardAlpha"/>
<feOffset dx="1" dy="1"/>
<feGaussianBlur stdDeviation="1"/>
<feComposite in2="hardAlpha" operator="out"/>
<feColorMatrix type="matrix" values="0 0 0 0 0 0 0 0 0 0 0 0 0 0 0 0 0 0 0.8 0"/>
<feBlend mode="normal" in2="BackgroundImageFix" result="effect1_dropShadow_1_505"/>
<feBlend mode="normal" in="SourceGraphic" in2="effect1_dropShadow_1_505" result="shape"/>
</filter>
<filter id="filter1_d_1_505" x="177.953" y="304.5" width="30.8525" height="38.7734" filterUnits="userSpaceOnUse" color-interpolation-filters="sRGB">
<feFlood flood-opacity="0" result="BackgroundImageFix"/>
<feColorMatrix in="SourceAlpha" type="matrix" values="0 0 0 0 0 0 0 0 0 0 0 0 0 0 0 0 0 0 127 0" result="hardAlpha"/>
<feOffset dx="-1" dy="-1"/>
<feGaussianBlur stdDeviation="1"/>
<feComposite in2="hardAlpha" operator="out"/>
<feColorMatrix type="matrix" values="0 0 0 0 0 0 0 0 0 0 0 0 0 0 0 0 0 0 0.8 0"/>
<feBlend mode="normal" in2="BackgroundImageFix" result="effect1_dropShadow_1_505"/>
<feBlend mode="normal" in="SourceGraphic" in2="effect1_dropShadow_1_505" result="shape"/>
</filter>
</defs>
</svg>
