<svg width="230" height="366" viewBox="0 0 230 366" fill="none" xmlns="http://www.w3.org/2000/svg">
<path d="M16 0.5H214C222.56 0.5 229.5 7.43959 229.5 16V350C229.5 358.56 222.56 365.5 214 365.5H16C7.43959 365.5 0.5 358.56 0.5 350V16C0.5 7.43958 7.43959 0.5 16 0.5Z" fill="white" stroke="black"/>
<path d="M16 24C16 19.5817 19.5817 16 24 16H206C210.418 16 214 19.5817 214 24V342C214 346.418 210.418 350 206 350H24C19.5817 350 16 346.418 16 342V24Z" fill="#FF00FF"/>
<ellipse cx="115.174" cy="182.752" rx="79.14" ry="149.259" transform="rotate(30.6494 115.174 182.752)" fill="white"/>
<g filter="url(#filter0_d_1_529)">
<mask id="path-4-outside-1_1_529" maskUnits="userSpaceOnUse" x="25" y="26" width="29" height="36" fill="black">
<rect fill="white" x="25" y="26" width="29" height="36"/>
<path d="M44 33.4609H27.0547L28.4375 27.4609H52.4375L51.3125 32.6875C50.1094 33.6719 48.3438 35.4297 46.0156 37.9609C43.7031 40.4766 41.6641 43.0781 39.8984 45.7656C38.4922 47.875 37.0781 50.4531 35.6562 53.5C34.25 56.5469 33.3438 59.0469 32.9375 61H26C27.4844 54.9062 30.8281 48.5703 36.0312 41.9922C39.3438 37.9141 42 35.0703 44 33.4609Z"/>
</mask>
<path d="M44 33.4609H27.0547L28.4375 27.4609H52.4375L51.3125 32.6875C50.1094 33.6719 48.3438 35.4297 46.0156 37.9609C43.7031 40.4766 41.6641 43.0781 39.8984 45.7656C38.4922 47.875 37.0781 50.4531 35.6562 53.5C34.25 56.5469 33.3438 59.0469 32.9375 61H26C27.4844 54.9062 30.8281 48.5703 36.0312 41.9922C39.3438 37.9141 42 35.0703 44 33.4609Z" fill="white"/>
<path d="M44 33.4609L44.3135 33.8505L45.4189 32.9609H44V33.4609ZM27.0547 33.4609L26.5675 33.3486L26.4263 33.9609H27.0547V33.4609ZM28.4375 27.4609V26.9609H28.0396L27.9503 27.3486L28.4375 27.4609ZM52.4375 27.4609L52.9263 27.5662L53.0566 26.9609H52.4375V27.4609ZM51.3125 32.6875L51.6291 33.0745L51.7645 32.9637L51.8013 32.7927L51.3125 32.6875ZM46.0156 37.9609L45.6476 37.6225L45.6475 37.6226L46.0156 37.9609ZM39.8984 45.7656L40.3145 46.043L40.3163 46.0402L39.8984 45.7656ZM35.6562 53.5L35.2032 53.2886L35.2023 53.2905L35.6562 53.5ZM32.9375 61V61.5H33.3442L33.427 61.1018L32.9375 61ZM26 61L25.5142 60.8817L25.3636 61.5H26V61ZM36.0312 41.9922L35.6431 41.6769L35.6391 41.682L36.0312 41.9922ZM44 32.9609H27.0547V33.9609H44V32.9609ZM27.5419 33.5732L28.9247 27.5732L27.9503 27.3486L26.5675 33.3486L27.5419 33.5732ZM28.4375 27.9609H52.4375V26.9609H28.4375V27.9609ZM51.9487 27.3557L50.8237 32.5823L51.8013 32.7927L52.9263 27.5662L51.9487 27.3557ZM50.9959 32.3005C49.7633 33.309 47.9773 35.0895 45.6476 37.6225L46.3836 38.2994C48.7102 35.7699 50.4555 34.0347 51.6291 33.0745L50.9959 32.3005ZM45.6475 37.6226C43.3179 40.1568 41.2619 42.7796 39.4806 45.4911L40.3163 46.0402C42.0662 43.3766 44.0884 40.7963 46.3837 38.2993L45.6475 37.6226ZM39.4824 45.4883C38.0585 47.6242 36.6325 50.2257 35.2032 53.2886L36.1093 53.7114C37.5238 50.6805 38.9259 48.1258 40.3145 46.043L39.4824 45.4883ZM35.2023 53.2905C33.7893 56.3519 32.8654 58.8913 32.448 60.8982L33.427 61.1018C33.8221 59.2025 34.7107 56.7419 36.1102 53.7095L35.2023 53.2905ZM32.9375 60.5H26V61.5H32.9375V60.5ZM26.4858 61.1183C27.9484 55.1139 31.2506 48.8421 36.4234 42.3024L35.6391 41.682C30.4056 48.2985 27.0203 54.6986 25.5142 60.8817L26.4858 61.1183ZM36.4194 42.3074C39.7277 38.2345 42.3566 35.4251 44.3135 33.8505L43.6865 33.0714C41.6434 34.7155 38.9598 37.5937 35.6431 41.6769L36.4194 42.3074Z" fill="black" mask="url(#path-4-outside-1_1_529)"/>
</g>
<path d="M142.129 151.318H81.4082L86.3633 129.818H172.363L168.332 148.547C164.021 152.074 157.694 158.373 149.352 167.443C141.065 176.458 133.758 185.78 127.432 195.41C122.393 202.969 117.326 212.207 112.23 223.125C107.191 234.043 103.944 243.001 102.488 250H77.6289C82.9479 228.164 94.9297 205.46 113.574 181.889C125.444 167.275 134.962 157.085 142.129 151.318Z" fill="black"/>
<mask id="path-7-outside-2_1_529" maskUnits="userSpaceOnUse" x="70" y="119" width="100" height="125" fill="black">
<rect fill="white" x="70" y="119" width="100" height="125"/>
<path d="M137.129 143.318H76.4082L81.3633 121.818H167.363L163.332 140.547C159.021 144.074 152.694 150.373 144.352 159.443C136.065 168.458 128.758 177.78 122.432 187.41C117.393 194.969 112.326 204.207 107.23 215.125C102.191 226.043 98.944 235.001 97.4883 242H72.6289C77.9479 220.164 89.9297 197.46 108.574 173.889C120.444 159.275 129.962 149.085 137.129 143.318Z"/>
</mask>
<path d="M137.129 143.318H76.4082L81.3633 121.818H167.363L163.332 140.547C159.021 144.074 152.694 150.373 144.352 159.443C136.065 168.458 128.758 177.78 122.432 187.41C117.393 194.969 112.326 204.207 107.23 215.125C102.191 226.043 98.944 235.001 97.4883 242H72.6289C77.9479 220.164 89.9297 197.46 108.574 173.889C120.444 159.275 129.962 149.085 137.129 143.318Z" fill="#FF00FF"/>
<path d="M137.129 143.318L138.383 144.877L142.805 141.318H137.129V143.318ZM76.4082 143.318L74.4593 142.869L73.8948 145.318H76.4082V143.318ZM81.3633 121.818V119.818H79.7718L79.4144 121.369L81.3633 121.818ZM167.363 121.818L169.319 122.239L169.84 119.818H167.363V121.818ZM163.332 140.547L164.599 142.095L165.14 141.652L165.287 140.968L163.332 140.547ZM144.352 159.443L142.88 158.089L142.879 158.09L144.352 159.443ZM122.432 187.41L124.096 188.52L124.103 188.508L122.432 187.41ZM107.23 215.125L105.418 214.279L105.415 214.287L107.23 215.125ZM97.4883 242V244H99.1151L99.4464 242.407L97.4883 242ZM72.6289 242L70.6857 241.527L70.0832 244H72.6289V242ZM108.574 173.889L107.022 172.628L107.014 172.638L107.006 172.648L108.574 173.889ZM137.129 141.318H76.4082V145.318H137.129V141.318ZM78.3571 143.768L83.3122 122.268L79.4144 121.369L74.4593 142.869L78.3571 143.768ZM81.3633 123.818H167.363V119.818H81.3633V123.818ZM165.408 121.398L161.377 140.126L165.287 140.968L169.319 122.239L165.408 121.398ZM162.066 138.999C157.636 142.623 151.228 149.012 142.88 158.089L145.824 160.797C154.16 151.734 160.405 145.526 164.599 142.095L162.066 138.999ZM142.879 158.09C134.524 167.179 127.15 176.586 120.76 186.312L124.103 188.508C130.367 178.974 137.606 169.737 145.824 160.797L142.879 158.09ZM120.768 186.301C115.658 193.965 110.543 203.297 105.418 214.279L109.043 215.971C114.108 205.117 119.127 195.972 124.096 188.52L120.768 186.301ZM105.415 214.287C100.349 225.263 97.0307 234.379 95.5302 241.593L99.4464 242.407C100.857 235.624 104.034 226.823 109.046 215.963L105.415 214.287ZM97.4883 240H72.6289V244H97.4883V240ZM74.5721 242.473C79.8041 220.995 91.6197 198.548 110.143 175.129L107.006 172.648C88.2396 196.373 76.0918 219.333 70.6857 241.527L74.5721 242.473ZM110.127 175.15C121.98 160.557 131.389 150.505 138.383 144.877L135.875 141.76C128.536 147.666 118.908 157.994 107.022 172.628L110.127 175.15Z" fill="black" mask="url(#path-7-outside-2_1_529)"/>
<g filter="url(#filter1_d_1_529)">
<mask id="path-9-outside-3_1_529" maskUnits="userSpaceOnUse" x="176" y="307" width="29" height="36" fill="black">
<rect fill="white" x="176" y="307" width="29" height="36"/>
<path d="M186 335.539L202.945 335.539L201.563 341.539L177.563 341.539L178.688 336.312C179.891 335.328 181.656 333.57 183.984 331.039C186.297 328.523 188.336 325.922 190.102 323.234C191.508 321.125 192.922 318.547 194.344 315.5C195.75 312.453 196.656 309.953 197.063 308L204 308C202.516 314.094 199.172 320.43 193.969 327.008C190.656 331.086 188 333.93 186 335.539Z"/>
</mask>
<path d="M186 335.539L202.945 335.539L201.563 341.539L177.563 341.539L178.688 336.312C179.891 335.328 181.656 333.57 183.984 331.039C186.297 328.523 188.336 325.922 190.102 323.234C191.508 321.125 192.922 318.547 194.344 315.5C195.75 312.453 196.656 309.953 197.063 308L204 308C202.516 314.094 199.172 320.43 193.969 327.008C190.656 331.086 188 333.93 186 335.539Z" fill="white"/>
<path d="M186 335.539L185.687 335.15L184.581 336.039L186 336.039L186 335.539ZM202.945 335.539L203.433 335.651L203.574 335.039L202.945 335.039L202.945 335.539ZM201.563 341.539L201.563 342.039L201.96 342.039L202.05 341.651L201.563 341.539ZM177.563 341.539L177.074 341.434L176.943 342.039L177.563 342.039L177.563 341.539ZM178.688 336.312L178.371 335.926L178.236 336.036L178.199 336.207L178.688 336.312ZM183.984 331.039L184.352 331.378L184.352 331.377L183.984 331.039ZM190.102 323.234L189.686 322.957L189.684 322.96L190.102 323.234ZM194.344 315.5L194.797 315.711L194.798 315.71L194.344 315.5ZM197.063 308L197.063 307.5L196.656 307.5L196.573 307.898L197.063 308ZM204 308L204.486 308.118L204.636 307.5L204 307.5L204 308ZM193.969 327.008L194.357 327.323L194.361 327.318L193.969 327.008ZM186 336.039L202.945 336.039L202.945 335.039L186 335.039L186 336.039ZM202.458 335.427L201.075 341.427L202.05 341.651L203.433 335.651L202.458 335.427ZM201.563 341.039L177.563 341.039L177.563 342.039L201.563 342.039L201.563 341.039ZM178.051 341.644L179.176 336.418L178.199 336.207L177.074 341.434L178.051 341.644ZM179.004 336.699C180.237 335.691 182.023 333.911 184.352 331.378L183.616 330.701C181.29 333.23 179.545 334.965 178.371 335.926L179.004 336.699ZM184.352 331.377C186.682 328.843 188.738 326.22 190.519 323.509L189.684 322.96C187.934 325.623 185.912 328.204 183.616 330.701L184.352 331.377ZM190.518 323.512C191.942 321.376 193.368 318.774 194.797 315.711L193.891 315.289C192.476 318.319 191.074 320.874 189.686 322.957L190.518 323.512ZM194.798 315.71C196.211 312.648 197.135 310.109 197.552 308.102L196.573 307.898C196.178 309.798 195.289 312.258 193.89 315.29L194.798 315.71ZM197.063 308.5L204 308.5L204 307.5L197.063 307.5L197.063 308.5ZM203.514 307.882C202.052 313.886 198.749 320.158 193.577 326.698L194.361 327.318C199.594 320.701 202.98 314.301 204.486 308.118L203.514 307.882ZM193.581 326.693C190.272 330.766 187.643 333.575 185.687 335.15L186.313 335.929C188.357 334.284 191.04 331.406 194.357 327.323L193.581 326.693Z" fill="black" mask="url(#path-9-outside-3_1_529)"/>
</g>
<defs>
<filter id="filter0_d_1_529" x="24.3636" y="25.9609" width="31.693" height="38.5391" filterUnits="userSpaceOnUse" color-interpolation-filters="sRGB">
<feFlood flood-opacity="0" result="BackgroundImageFix"/>
<feColorMatrix in="SourceAlpha" type="matrix" values="0 0 0 0 0 0 0 0 0 0 0 0 0 0 0 0 0 0 127 0" result="hardAlpha"/>
<feOffset dx="1" dy="1"/>
<feGaussianBlur stdDeviation="1"/>
<feComposite in2="hardAlpha" operator="out"/>
<feColorMatrix type="matrix" values="0 0 0 0 0 0 0 0 0 0 0 0 0 0 0 0 0 0 0.8 0"/>
<feBlend mode="normal" in2="BackgroundImageFix" result="effect1_dropShadow_1_529"/>
<feBlend mode="normal" in="SourceGraphic" in2="effect1_dropShadow_1_529" result="shape"/>
</filter>
<filter id="filter1_d_1_529" x="173.943" y="304.5" width="31.693" height="38.5391" filterUnits="userSpaceOnUse" color-interpolation-filters="sRGB">
<feFlood flood-opacity="0" result="BackgroundImageFix"/>
<feColorMatrix in="SourceAlpha" type="matrix" values="0 0 0 0 0 0 0 0 0 0 0 0 0 0 0 0 0 0 127 0" result="hardAlpha"/>
<feOffset dx="-1" dy="-1"/>
<feGaussianBlur stdDeviation="1"/>
<feComposite in2="hardAlpha" operator="out"/>
<feColorMatrix type="matrix" values="0 0 0 0 0 0 0 0 0 0 0 0 0 0 0 0 0 0 0.8 0"/>
<feBlend mode="normal" in2="BackgroundImageFix" result="effect1_dropShadow_1_529"/>
<feBlend mode="normal" in="SourceGraphic" in2="effect1_dropShadow_1_529" result="shape"/>
</filter>
</defs>
</svg>
