<svg width="230" height="366" viewBox="0 0 230 366" fill="none" xmlns="http://www.w3.org/2000/svg">
<path d="M16 0.5H214C222.56 0.5 229.5 7.43959 229.5 16V350C229.5 358.56 222.56 365.5 214 365.5H16C7.43959 365.5 0.5 358.56 0.5 350V16C0.5 7.43958 7.43959 0.5 16 0.5Z" fill="white" stroke="black"/>
<path d="M16 24C16 19.5817 19.5817 16 24 16H206C210.418 16 214 19.5817 214 24V342C214 346.418 210.418 350 206 350H24C19.5817 350 16 346.418 16 342V24Z" fill="#FF00FF"/>
<ellipse cx="115.174" cy="182.752" rx="79.14" ry="149.259" transform="rotate(30.6494 115.174 182.752)" fill="white"/>
<g filter="url(#filter0_d_1_537)">
<mask id="path-4-outside-1_1_537" maskUnits="userSpaceOnUse" x="22" y="26" width="28" height="37" fill="black">
<rect fill="white" x="22" y="26" width="28" height="37"/>
<path d="M32.6094 61.8906C28.8125 61.8906 26.1484 60.8906 24.6172 58.8906C23.1016 56.875 22.6484 54.4375 23.2578 51.5781C23.6641 49.6719 24.4609 47.9453 25.6484 46.3984C26.8516 44.8516 28.375 43.6875 30.2188 42.9062C28.7969 41.8125 27.9766 40.6328 27.7578 39.3672C27.5391 38.0859 27.5469 36.8906 27.7812 35.7812C28.3125 33.3125 29.6875 31.2109 31.9062 29.4766C34.1406 27.7266 36.9531 26.8516 40.3438 26.8516C43.7344 26.8516 46.1719 27.7266 47.6562 29.4766C49.1562 31.2109 49.6406 33.3125 49.1094 35.7812C48.875 36.8906 48.375 38.0859 47.6094 39.3672C46.8438 40.6328 45.5469 41.7344 43.7188 42.6719C45.1875 43.6094 46.1797 44.8516 46.6953 46.3984C47.2109 47.9453 47.2656 49.6719 46.8594 51.5781C46.25 54.4375 44.6719 56.875 42.125 58.8906C39.5781 60.8906 36.4062 61.8906 32.6094 61.8906ZM32.4688 47.1719C31.3906 48.0781 30.6641 49.3984 30.2891 51.1328C29.9297 52.8047 30.0859 54.1016 30.7578 55.0234C31.4297 55.9453 32.5312 56.4062 34.0625 56.4062C35.5938 56.4062 36.8906 55.9453 37.9531 55.0234C39.0156 54.1016 39.7266 52.8047 40.0859 51.1328C40.4609 49.3984 40.2969 48.0859 39.5938 47.1953C38.9062 46.2891 37.8125 45.8359 36.3125 45.8359C34.8125 45.8359 33.5312 46.2812 32.4688 47.1719ZM34.5078 39.5547C35.0859 40.3359 36.0469 40.7266 37.3906 40.7266C38.75 40.7266 39.8828 40.3359 40.7891 39.5547C41.7109 38.7734 42.2969 37.7656 42.5469 36.5312C42.8438 35.1875 42.6953 34.1406 42.1016 33.3906C41.5234 32.625 40.5547 32.2422 39.1953 32.2422C37.8516 32.2422 36.7188 32.625 35.7969 33.3906C34.8906 34.1406 34.2891 35.1875 33.9922 36.5312C33.7422 37.7656 33.9141 38.7734 34.5078 39.5547Z"/>
</mask>
<path d="M32.6094 61.8906C28.8125 61.8906 26.1484 60.8906 24.6172 58.8906C23.1016 56.875 22.6484 54.4375 23.2578 51.5781C23.6641 49.6719 24.4609 47.9453 25.6484 46.3984C26.8516 44.8516 28.375 43.6875 30.2188 42.9062C28.7969 41.8125 27.9766 40.6328 27.7578 39.3672C27.5391 38.0859 27.5469 36.8906 27.7812 35.7812C28.3125 33.3125 29.6875 31.2109 31.9062 29.4766C34.1406 27.7266 36.9531 26.8516 40.3438 26.8516C43.7344 26.8516 46.1719 27.7266 47.6562 29.4766C49.1562 31.2109 49.6406 33.3125 49.1094 35.7812C48.875 36.8906 48.375 38.0859 47.6094 39.3672C46.8438 40.6328 45.5469 41.7344 43.7188 42.6719C45.1875 43.6094 46.1797 44.8516 46.6953 46.3984C47.2109 47.9453 47.2656 49.6719 46.8594 51.5781C46.25 54.4375 44.6719 56.875 42.125 58.8906C39.5781 60.8906 36.4062 61.8906 32.6094 61.8906ZM32.4688 47.1719C31.3906 48.0781 30.6641 49.3984 30.2891 51.1328C29.9297 52.8047 30.0859 54.1016 30.7578 55.0234C31.4297 55.9453 32.5312 56.4062 34.0625 56.4062C35.5938 56.4062 36.8906 55.9453 37.9531 55.0234C39.0156 54.1016 39.7266 52.8047 40.0859 51.1328C40.4609 49.3984 40.2969 48.0859 39.5938 47.1953C38.9062 46.2891 37.8125 45.8359 36.3125 45.8359C34.8125 45.8359 33.5312 46.2812 32.4688 47.1719ZM34.5078 39.5547C35.0859 40.3359 36.0469 40.7266 37.3906 40.7266C38.75 40.7266 39.8828 40.3359 40.7891 39.5547C41.7109 38.7734 42.2969 37.7656 42.5469 36.5312C42.8438 35.1875 42.6953 34.1406 42.1016 33.3906C41.5234 32.625 40.5547 32.2422 39.1953 32.2422C37.8516 32.2422 36.7188 32.625 35.7969 33.3906C34.8906 34.1406 34.2891 35.1875 33.9922 36.5312C33.7422 37.7656 33.9141 38.7734 34.5078 39.5547Z" fill="white"/>
<path d="M24.6172 58.8906L24.2175 59.1911L24.2202 59.1946L24.6172 58.8906ZM25.6484 46.3984L25.2538 46.0915L25.2518 46.094L25.6484 46.3984ZM30.2188 42.9062L30.4138 43.3666L31.2027 43.0323L30.5236 42.5099L30.2188 42.9062ZM27.7578 39.3672L27.2649 39.4513L27.2651 39.4523L27.7578 39.3672ZM27.7812 35.7812L27.2924 35.6761L27.292 35.6779L27.7812 35.7812ZM31.9062 29.4766L32.2142 29.8705L32.2146 29.8702L31.9062 29.4766ZM47.6562 29.4766L47.2749 29.8L47.2781 29.8036L47.6562 29.4766ZM49.1094 35.7812L48.6206 35.6761L48.6202 35.6779L49.1094 35.7812ZM47.6094 39.3672L48.0372 39.626L48.0386 39.6237L47.6094 39.3672ZM43.7188 42.6719L43.4906 42.227L42.7153 42.6246L43.4497 43.0933L43.7188 42.6719ZM42.125 58.8906L42.4338 59.2839L42.4353 59.2827L42.125 58.8906ZM32.4688 47.1719L32.1476 46.7887L32.147 46.7891L32.4688 47.1719ZM30.2891 51.1328L29.8004 51.0271L29.8002 51.0277L30.2891 51.1328ZM40.0859 51.1328L39.5972 51.0271L39.5971 51.0277L40.0859 51.1328ZM39.5938 47.1953L39.1953 47.4976L39.2013 47.5051L39.5938 47.1953ZM34.5078 39.5547L34.9098 39.2572L34.9059 39.2521L34.5078 39.5547ZM40.7891 39.5547L40.4658 39.1732L40.4626 39.176L40.7891 39.5547ZM42.5469 36.5312L42.0586 36.4234L42.0568 36.432L42.5469 36.5312ZM42.1016 33.3906L41.7024 33.692L41.7095 33.701L42.1016 33.3906ZM35.7969 33.3906L36.1157 33.7758L36.1163 33.7753L35.7969 33.3906ZM33.9922 36.5312L33.5039 36.4234L33.5021 36.432L33.9922 36.5312ZM32.6094 61.3906C28.8867 61.3906 26.4104 60.4103 25.0142 58.5867L24.2202 59.1946C25.8865 61.3709 28.7383 62.3906 32.6094 62.3906V61.3906ZM25.0168 58.5901C23.6024 56.7091 23.1623 54.4252 23.7468 51.6823L22.7688 51.4739C22.1346 54.4498 22.6008 57.0409 24.2176 59.1911L25.0168 58.5901ZM23.7468 51.6823C24.1376 49.8489 24.9028 48.1908 26.045 46.7029L25.2518 46.094C24.019 47.6999 23.1906 49.4948 22.7688 51.4739L23.7468 51.6823ZM26.0431 46.7054C27.1927 45.2274 28.6468 44.1154 30.4138 43.3666L30.0237 42.4459C28.1032 43.2596 26.5104 44.4758 25.2538 46.0915L26.0431 46.7054ZM30.5236 42.5099C29.1616 41.4622 28.4407 40.3824 28.2505 39.282L27.2651 39.4523C27.5124 40.8833 28.4322 42.1628 29.9139 43.3026L30.5236 42.5099ZM28.2507 39.283C28.041 38.055 28.0509 36.9239 28.2705 35.8846L27.292 35.6779C27.0429 36.8573 27.0371 38.1169 27.2649 39.4513L28.2507 39.283ZM28.2701 35.8864C28.7738 33.5455 30.0763 31.5416 32.2142 29.8705L31.5983 29.0826C29.2987 30.8803 27.8512 33.0795 27.2924 35.6761L28.2701 35.8864ZM32.2146 29.8702C34.3447 28.2018 37.0424 27.3516 40.3438 27.3516V26.3516C36.8639 26.3516 33.9365 27.2513 31.5979 29.0829L32.2146 29.8702ZM40.3438 27.3516C43.6591 27.3516 45.9238 28.207 47.2749 29.8L48.0376 29.1531C46.42 27.2461 43.8096 26.3516 40.3438 26.3516V27.3516ZM47.2781 29.8036C48.664 31.4061 49.1226 33.3429 48.6206 35.6761L49.5982 35.8864C50.1586 33.2821 49.6485 31.0158 48.0344 29.1495L47.2781 29.8036ZM48.6202 35.6779C48.4002 36.7192 47.9259 37.8627 47.1802 39.1107L48.0386 39.6237C48.8241 38.3091 49.3498 37.062 49.5986 35.8846L48.6202 35.6779ZM47.1816 39.1084C46.4791 40.2695 45.267 41.316 43.4906 42.227L43.9469 43.1168C45.8268 42.1527 47.2084 40.9961 48.0372 39.626L47.1816 39.1084ZM43.4497 43.0933C44.829 43.9737 45.7442 45.1261 46.221 46.5566L47.1697 46.2403C46.6152 44.577 45.546 43.245 43.9878 42.2504L43.4497 43.0933ZM46.221 46.5566C46.7033 48.0037 46.7617 49.6377 46.3704 51.4739L47.3484 51.6823C47.7696 49.706 47.7185 47.8869 47.1697 46.2403L46.221 46.5566ZM46.3704 51.4739C45.788 54.2067 44.2811 56.5466 41.8147 58.4986L42.4353 59.2827C45.0626 57.2034 46.712 54.6683 47.3484 51.6823L46.3704 51.4739ZM41.8162 58.4974C39.372 60.4167 36.3144 61.3906 32.6094 61.3906V62.3906C36.4981 62.3906 39.7842 61.3645 42.4338 59.2839L41.8162 58.4974ZM32.147 46.7891C30.9641 47.7835 30.1926 49.2131 29.8004 51.0271L30.7778 51.2385C31.1355 49.5838 31.8171 48.3728 32.7905 47.5546L32.147 46.7891ZM29.8002 51.0277C29.426 52.7689 29.5635 54.2337 30.3537 55.3179L31.1619 54.7289C30.6083 53.9694 30.4334 52.8405 30.7779 51.2379L29.8002 51.0277ZM30.3537 55.3179C31.15 56.4105 32.4309 56.9062 34.0625 56.9062V55.9062C32.6316 55.9062 31.7094 55.4801 31.1619 54.7289L30.3537 55.3179ZM34.0625 56.9062C35.7026 56.9062 37.119 56.4091 38.2808 55.4011L37.6254 54.6458C36.6622 55.4815 35.4849 55.9062 34.0625 55.9062V56.9062ZM38.2808 55.4011C39.4415 54.394 40.1977 52.9923 40.5748 51.2379L39.5971 51.0277C39.2555 52.6171 38.5897 53.8091 37.6254 54.6458L38.2808 55.4011ZM40.5746 51.2385C40.9634 49.4406 40.8238 47.9464 39.9862 46.8855L39.2013 47.5051C39.77 48.2255 39.9585 49.3562 39.5972 51.0271L40.5746 51.2385ZM39.9921 46.8931C39.1815 45.8247 37.9148 45.3359 36.3125 45.3359V46.3359C37.7102 46.3359 38.631 46.7535 39.1954 47.4975L39.9921 46.8931ZM36.3125 45.3359C34.7054 45.3359 33.3077 45.8162 32.1476 46.7887L32.7899 47.5551C33.7548 46.7463 34.9196 46.3359 36.3125 46.3359V45.3359ZM34.1059 39.8521C34.8113 40.8053 35.9534 41.2266 37.3906 41.2266V40.2266C36.1403 40.2266 35.3606 39.8666 34.9097 39.2573L34.1059 39.8521ZM37.3906 41.2266C38.8525 41.2266 40.1062 40.8035 41.1155 39.9334L40.4626 39.176C39.6595 39.8683 38.6475 40.2266 37.3906 40.2266V41.2266ZM41.1123 39.9361C42.1237 39.079 42.7656 37.97 43.0369 36.6305L42.0568 36.432C41.8281 37.5613 41.2981 38.4679 40.4658 39.1732L41.1123 39.9361ZM43.0351 36.6391C43.3496 35.2155 43.2161 33.993 42.4936 33.0803L41.7095 33.701C42.1745 34.2883 42.3379 35.1595 42.0586 36.4234L43.0351 36.6391ZM42.5006 33.0893C41.7929 32.1521 40.6423 31.7422 39.1953 31.7422V32.7422C40.4671 32.7422 41.254 33.0979 41.7025 33.6919L42.5006 33.0893ZM39.1953 31.7422C37.7499 31.7422 36.5 32.1567 35.4774 33.006L36.1163 33.7753C36.9375 33.0933 37.9532 32.7422 39.1953 32.7422V31.7422ZM35.4781 33.0054C34.472 33.838 33.8206 34.9901 33.504 36.4234L34.4804 36.6391C34.7575 35.3849 35.3092 34.4432 36.1157 33.7758L35.4781 33.0054ZM33.5021 36.432C33.2322 37.7646 33.4057 38.9309 34.1097 39.8572L34.9059 39.2521C34.4224 38.616 34.2521 37.7667 34.4822 36.6305L33.5021 36.432Z" fill="black" mask="url(#path-4-outside-1_1_537)"/>
</g>
<path d="M101.312 253.191C87.707 253.191 78.1608 249.608 72.6738 242.441C67.2428 235.219 65.6191 226.484 67.8027 216.238C69.2585 209.408 72.1139 203.221 76.3691 197.678C80.6803 192.135 86.1393 187.964 92.7461 185.164C87.651 181.245 84.7116 177.018 83.9277 172.482C83.1439 167.891 83.1719 163.608 84.0117 159.633C85.9154 150.786 90.8424 143.256 98.793 137.041C106.799 130.77 116.878 127.635 129.027 127.635C141.177 127.635 149.911 130.77 155.23 137.041C160.605 143.256 162.341 150.786 160.438 159.633C159.598 163.608 157.806 167.891 155.062 172.482C152.319 177.018 147.672 180.965 141.121 184.324C146.384 187.684 149.939 192.135 151.787 197.678C153.635 203.221 153.831 209.408 152.375 216.238C150.191 226.484 144.536 235.219 135.41 242.441C126.284 249.608 114.918 253.191 101.312 253.191ZM100.809 200.449C96.9453 203.697 94.3418 208.428 92.998 214.643C91.7103 220.633 92.2702 225.281 94.6777 228.584C97.0853 231.887 101.033 233.539 106.52 233.539C112.007 233.539 116.654 231.887 120.461 228.584C124.268 225.281 126.816 220.633 128.104 214.643C129.447 208.428 128.859 203.725 126.34 200.533C123.876 197.286 119.957 195.662 114.582 195.662C109.207 195.662 104.616 197.258 100.809 200.449ZM108.115 173.154C110.187 175.954 113.63 177.354 118.445 177.354C123.316 177.354 127.376 175.954 130.623 173.154C133.926 170.355 136.026 166.743 136.922 162.32C137.986 157.505 137.454 153.754 135.326 151.066C133.255 148.323 129.783 146.951 124.912 146.951C120.097 146.951 116.038 148.323 112.734 151.066C109.487 153.754 107.331 157.505 106.268 162.32C105.372 166.743 105.988 170.355 108.115 173.154Z" fill="black"/>
<mask id="path-7-outside-2_1_537" maskUnits="userSpaceOnUse" x="59" y="117" width="100" height="131" fill="black">
<rect fill="white" x="59" y="117" width="100" height="131"/>
<path d="M96.3125 245.191C82.707 245.191 73.1608 241.608 67.6738 234.441C62.2428 227.219 60.6191 218.484 62.8027 208.238C64.2585 201.408 67.1139 195.221 71.3691 189.678C75.6803 184.135 81.1393 179.964 87.7461 177.164C82.651 173.245 79.7116 169.018 78.9277 164.482C78.1439 159.891 78.1719 155.608 79.0117 151.633C80.9154 142.786 85.8424 135.256 93.793 129.041C101.799 122.77 111.878 119.635 124.027 119.635C136.177 119.635 144.911 122.77 150.23 129.041C155.605 135.256 157.341 142.786 155.438 151.633C154.598 155.608 152.806 159.891 150.062 164.482C147.319 169.018 142.672 172.965 136.121 176.324C141.384 179.684 144.939 184.135 146.787 189.678C148.635 195.221 148.831 201.408 147.375 208.238C145.191 218.484 139.536 227.219 130.41 234.441C121.284 241.608 109.918 245.191 96.3125 245.191ZM95.8086 192.449C91.9453 195.697 89.3418 200.428 87.998 206.643C86.7103 212.633 87.2702 217.281 89.6777 220.584C92.0853 223.887 96.0326 225.539 101.52 225.539C107.007 225.539 111.654 223.887 115.461 220.584C119.268 217.281 121.816 212.633 123.104 206.643C124.447 200.428 123.859 195.725 121.34 192.533C118.876 189.286 114.957 187.662 109.582 187.662C104.207 187.662 99.6159 189.258 95.8086 192.449ZM103.115 165.154C105.187 167.954 108.63 169.354 113.445 169.354C118.316 169.354 122.376 167.954 125.623 165.154C128.926 162.355 131.026 158.743 131.922 154.32C132.986 149.505 132.454 145.754 130.326 143.066C128.255 140.323 124.783 138.951 119.912 138.951C115.097 138.951 111.038 140.323 107.734 143.066C104.487 145.754 102.331 149.505 101.268 154.32C100.372 158.743 100.988 162.355 103.115 165.154Z"/>
</mask>
<path d="M96.3125 245.191C82.707 245.191 73.1608 241.608 67.6738 234.441C62.2428 227.219 60.6191 218.484 62.8027 208.238C64.2585 201.408 67.1139 195.221 71.3691 189.678C75.6803 184.135 81.1393 179.964 87.7461 177.164C82.651 173.245 79.7116 169.018 78.9277 164.482C78.1439 159.891 78.1719 155.608 79.0117 151.633C80.9154 142.786 85.8424 135.256 93.793 129.041C101.799 122.77 111.878 119.635 124.027 119.635C136.177 119.635 144.911 122.77 150.23 129.041C155.605 135.256 157.341 142.786 155.438 151.633C154.598 155.608 152.806 159.891 150.062 164.482C147.319 169.018 142.672 172.965 136.121 176.324C141.384 179.684 144.939 184.135 146.787 189.678C148.635 195.221 148.831 201.408 147.375 208.238C145.191 218.484 139.536 227.219 130.41 234.441C121.284 241.608 109.918 245.191 96.3125 245.191ZM95.8086 192.449C91.9453 195.697 89.3418 200.428 87.998 206.643C86.7103 212.633 87.2702 217.281 89.6777 220.584C92.0853 223.887 96.0326 225.539 101.52 225.539C107.007 225.539 111.654 223.887 115.461 220.584C119.268 217.281 121.816 212.633 123.104 206.643C124.447 200.428 123.859 195.725 121.34 192.533C118.876 189.286 114.957 187.662 109.582 187.662C104.207 187.662 99.6159 189.258 95.8086 192.449ZM103.115 165.154C105.187 167.954 108.63 169.354 113.445 169.354C118.316 169.354 122.376 167.954 125.623 165.154C128.926 162.355 131.026 158.743 131.922 154.32C132.986 149.505 132.454 145.754 130.326 143.066C128.255 140.323 124.783 138.951 119.912 138.951C115.097 138.951 111.038 140.323 107.734 143.066C104.487 145.754 102.331 149.505 101.268 154.32C100.372 158.743 100.988 162.355 103.115 165.154Z" fill="#FF00FF"/>
<path d="M67.6738 234.441L66.0753 235.643L66.0805 235.65L66.0858 235.657L67.6738 234.441ZM62.8027 208.238L60.8467 207.821L62.8027 208.238ZM71.3691 189.678L69.7904 188.45L69.7827 188.46L71.3691 189.678ZM87.7461 177.164L88.5264 179.006L91.682 177.668L88.9655 175.579L87.7461 177.164ZM78.9277 164.482L76.9563 164.819L76.957 164.823L78.9277 164.482ZM79.0117 151.633L77.0565 151.212L77.0549 151.219L79.0117 151.633ZM93.793 129.041L95.0247 130.617L95.0262 130.616L93.793 129.041ZM150.23 129.041L148.705 130.335L148.711 130.342L148.718 130.349L150.23 129.041ZM155.438 151.633L153.482 151.212L153.481 151.219L155.438 151.633ZM150.062 164.482L151.774 165.518L151.779 165.508L150.062 164.482ZM136.121 176.324L135.208 174.545L132.107 176.135L135.045 178.01L136.121 176.324ZM147.375 208.238L149.331 208.655L147.375 208.238ZM130.41 234.441L131.645 236.014L131.651 236.01L130.41 234.441ZM95.8086 192.449L94.5238 190.916L94.5217 190.918L95.8086 192.449ZM87.998 206.643L86.0432 206.22L86.0427 206.222L87.998 206.643ZM115.461 220.584L114.15 219.073L115.461 220.584ZM123.104 206.643L121.149 206.22L121.148 206.222L123.104 206.643ZM121.34 192.533L119.746 193.742L119.758 193.757L119.77 193.772L121.34 192.533ZM103.115 165.154L104.723 163.965L104.715 163.954L104.708 163.944L103.115 165.154ZM125.623 165.154L124.33 163.629L124.324 163.634L124.317 163.639L125.623 165.154ZM131.922 154.32L129.969 153.889L129.965 153.906L129.962 153.923L131.922 154.32ZM130.326 143.066L128.73 144.272L128.744 144.29L128.758 144.308L130.326 143.066ZM107.734 143.066L109.01 144.607L109.012 144.605L107.734 143.066ZM101.268 154.32L99.3147 153.889L99.3109 153.906L99.3074 153.923L101.268 154.32ZM96.3125 243.191C83.004 243.191 74.2088 239.687 69.2618 233.226L66.0858 235.657C72.1129 243.529 82.4101 247.191 96.3125 247.191V243.191ZM69.2723 233.239C64.2461 226.555 62.6746 218.435 64.7588 208.655L60.8467 207.821C58.5637 218.534 60.2396 227.883 66.0753 235.643L69.2723 233.239ZM64.7588 208.655C66.1524 202.116 68.8816 196.203 72.9556 190.896L69.7827 188.46C65.3463 194.239 62.3645 200.699 60.8467 207.821L64.7588 208.655ZM72.9478 190.906C77.0449 185.638 82.2266 181.675 88.5264 179.006L86.9658 175.323C80.0521 178.252 74.3158 182.632 69.7904 188.45L72.9478 190.906ZM88.9655 175.579C84.1099 171.844 81.5681 168.016 80.8985 164.142L76.957 164.823C77.8551 170.019 81.1922 174.646 86.5267 178.749L88.9655 175.579ZM80.8992 164.146C80.1517 159.767 80.1879 155.741 80.9685 152.046L77.0549 151.219C76.1559 155.475 76.1361 160.015 76.9563 164.819L80.8992 164.146ZM80.967 152.054C82.7606 143.718 87.3978 136.579 95.0247 130.617L92.5613 127.465C84.2871 133.933 79.0701 141.855 77.0565 151.212L80.967 152.054ZM95.0262 130.616C102.616 124.671 112.235 121.635 124.027 121.635V117.635C111.521 117.635 100.983 120.869 92.5598 127.466L95.0262 130.616ZM124.027 121.635C135.876 121.635 143.919 124.692 148.705 130.335L151.756 127.747C145.904 120.848 136.478 117.635 124.027 117.635V121.635ZM148.718 130.349C153.636 136.036 155.269 142.908 153.482 151.212L157.393 152.054C159.413 142.665 157.575 134.475 151.743 127.733L148.718 130.349ZM153.481 151.219C152.698 154.923 151.01 158.998 148.346 163.457L151.779 165.508C154.602 160.784 156.497 156.294 157.394 152.046L153.481 151.219ZM148.351 163.447C145.861 167.564 141.552 171.291 135.208 174.545L137.034 178.104C143.792 174.638 148.777 170.471 151.774 165.518L148.351 163.447ZM135.045 178.01C139.95 181.141 143.197 185.233 144.89 190.31L148.684 189.045C146.682 183.036 142.818 178.226 137.197 174.638L135.045 178.01ZM144.89 190.31C146.604 195.454 146.815 201.271 145.419 207.821L149.331 208.655C150.847 201.544 150.665 194.987 148.684 189.045L144.89 190.31ZM145.419 207.821C143.343 217.561 137.973 225.905 129.169 232.873L131.651 236.01C141.099 228.532 147.04 219.408 149.331 208.655L145.419 207.821ZM129.175 232.868C120.459 239.713 109.551 243.191 96.3125 243.191V247.191C110.285 247.191 122.108 243.504 131.645 236.014L129.175 232.868ZM94.5217 190.918C90.2392 194.518 87.4559 199.686 86.0432 206.22L89.9529 207.065C91.2277 201.169 93.6514 196.875 97.0955 193.98L94.5217 190.918ZM86.0427 206.222C84.6954 212.49 85.1806 217.809 88.0614 221.762L91.294 219.406C89.3598 216.752 88.7252 212.777 89.9534 207.063L86.0427 206.222ZM88.0614 221.762C90.9665 225.748 95.6313 227.539 101.52 227.539V223.539C96.4338 223.539 93.204 222.027 91.294 219.406L88.0614 221.762ZM101.52 227.539C107.442 227.539 112.567 225.743 116.772 222.095L114.15 219.073C110.74 222.032 106.571 223.539 101.52 223.539V227.539ZM116.772 222.095C120.972 218.45 123.7 213.384 125.059 207.063L121.148 206.222C119.931 211.883 117.565 216.111 114.15 219.073L116.772 222.095ZM125.058 207.065C126.457 200.597 125.967 195.167 122.91 191.294L119.77 193.772C121.752 196.283 122.438 200.259 121.149 206.22L125.058 207.065ZM122.933 191.324C119.977 187.428 115.366 185.662 109.582 185.662V189.662C114.548 189.662 117.775 191.143 119.746 193.742L122.933 191.324ZM109.582 185.662C103.779 185.662 98.7217 187.398 94.5238 190.916L97.0934 193.982C100.51 191.118 104.635 189.662 109.582 189.662V185.662ZM101.508 166.344C104.088 169.831 108.256 171.354 113.445 171.354V167.354C109.004 167.354 106.286 166.076 104.723 163.965L101.508 166.344ZM113.445 171.354C118.726 171.354 123.269 169.824 126.929 166.669L124.317 163.639C121.482 166.083 117.907 167.354 113.445 167.354V171.354ZM126.916 166.68C130.578 163.577 132.901 159.561 133.882 154.717L129.962 153.923C129.151 157.926 127.275 161.133 124.33 163.629L126.916 166.68ZM133.875 154.752C135.009 149.617 134.537 145.163 131.894 141.825L128.758 144.308C130.37 146.344 130.962 149.393 129.969 153.889L133.875 154.752ZM131.922 141.861C129.332 138.431 125.134 136.951 119.912 136.951V140.951C124.433 140.951 127.177 142.215 128.73 144.272L131.922 141.861ZM119.912 136.951C114.691 136.951 110.163 138.45 106.457 141.528L109.012 144.605C111.913 142.196 115.504 140.951 119.912 140.951V136.951ZM106.459 141.526C102.813 144.544 100.458 148.716 99.3147 153.889L103.22 154.752C104.205 150.295 106.161 146.964 109.01 144.607L106.459 141.526ZM99.3074 153.923C98.332 158.739 98.9541 162.985 101.523 166.364L104.708 163.944C103.021 161.725 102.412 158.748 103.228 154.717L99.3074 153.923Z" fill="black" mask="url(#path-7-outside-2_1_537)"/>
<g filter="url(#filter1_d_1_537)">
<mask id="path-9-outside-3_1_537" maskUnits="userSpaceOnUse" x="180" y="306" width="28" height="37" fill="black">
<rect fill="white" x="180" y="306" width="28" height="37"/>
<path d="M197.391 307.109C201.188 307.109 203.852 308.109 205.383 310.109C206.898 312.125 207.352 314.562 206.742 317.422C206.336 319.328 205.539 321.055 204.352 322.602C203.148 324.148 201.625 325.312 199.781 326.094C201.203 327.187 202.023 328.367 202.242 329.633C202.461 330.914 202.453 332.109 202.219 333.219C201.688 335.687 200.313 337.789 198.094 339.523C195.859 341.273 193.047 342.148 189.656 342.148C186.266 342.148 183.828 341.273 182.344 339.523C180.844 337.789 180.359 335.687 180.891 333.219C181.125 332.109 181.625 330.914 182.391 329.633C183.156 328.367 184.453 327.266 186.281 326.328C184.813 325.391 183.82 324.148 183.305 322.602C182.789 321.055 182.734 319.328 183.141 317.422C183.75 314.562 185.328 312.125 187.875 310.109C190.422 308.109 193.594 307.109 197.391 307.109ZM197.531 321.828C198.609 320.922 199.336 319.602 199.711 317.867C200.07 316.195 199.914 314.898 199.242 313.977C198.57 313.055 197.469 312.594 195.938 312.594C194.406 312.594 193.109 313.055 192.047 313.977C190.984 314.898 190.273 316.195 189.914 317.867C189.539 319.602 189.703 320.914 190.406 321.805C191.094 322.711 192.188 323.164 193.688 323.164C195.188 323.164 196.469 322.719 197.531 321.828ZM195.492 329.445C194.914 328.664 193.953 328.273 192.609 328.273C191.25 328.273 190.117 328.664 189.211 329.445C188.289 330.227 187.703 331.234 187.453 332.469C187.156 333.812 187.305 334.859 187.898 335.609C188.477 336.375 189.445 336.758 190.805 336.758C192.148 336.758 193.281 336.375 194.203 335.609C195.109 334.859 195.711 333.812 196.008 332.469C196.258 331.234 196.086 330.227 195.492 329.445Z"/>
</mask>
<path d="M197.391 307.109C201.188 307.109 203.852 308.109 205.383 310.109C206.898 312.125 207.352 314.562 206.742 317.422C206.336 319.328 205.539 321.055 204.352 322.602C203.148 324.148 201.625 325.312 199.781 326.094C201.203 327.187 202.023 328.367 202.242 329.633C202.461 330.914 202.453 332.109 202.219 333.219C201.688 335.687 200.313 337.789 198.094 339.523C195.859 341.273 193.047 342.148 189.656 342.148C186.266 342.148 183.828 341.273 182.344 339.523C180.844 337.789 180.359 335.687 180.891 333.219C181.125 332.109 181.625 330.914 182.391 329.633C183.156 328.367 184.453 327.266 186.281 326.328C184.813 325.391 183.82 324.148 183.305 322.602C182.789 321.055 182.734 319.328 183.141 317.422C183.75 314.562 185.328 312.125 187.875 310.109C190.422 308.109 193.594 307.109 197.391 307.109ZM197.531 321.828C198.609 320.922 199.336 319.602 199.711 317.867C200.07 316.195 199.914 314.898 199.242 313.977C198.57 313.055 197.469 312.594 195.938 312.594C194.406 312.594 193.109 313.055 192.047 313.977C190.984 314.898 190.273 316.195 189.914 317.867C189.539 319.602 189.703 320.914 190.406 321.805C191.094 322.711 192.188 323.164 193.688 323.164C195.188 323.164 196.469 322.719 197.531 321.828ZM195.492 329.445C194.914 328.664 193.953 328.273 192.609 328.273C191.25 328.273 190.117 328.664 189.211 329.445C188.289 330.227 187.703 331.234 187.453 332.469C187.156 333.812 187.305 334.859 187.898 335.609C188.477 336.375 189.445 336.758 190.805 336.758C192.148 336.758 193.281 336.375 194.203 335.609C195.109 334.859 195.711 333.812 196.008 332.469C196.258 331.234 196.086 330.227 195.492 329.445Z" fill="white"/>
<path d="M205.383 310.109L205.782 309.809L205.78 309.805L205.383 310.109ZM204.352 322.602L204.746 322.909L204.748 322.906L204.352 322.602ZM199.781 326.094L199.586 325.633L198.797 325.968L199.476 326.49L199.781 326.094ZM202.242 329.633L202.735 329.549L202.735 329.548L202.242 329.633ZM202.219 333.219L202.708 333.324L202.708 333.322L202.219 333.219ZM198.094 339.523L197.786 339.13L197.785 339.13L198.094 339.523ZM182.344 339.523L182.725 339.2L182.722 339.196L182.344 339.523ZM180.891 333.219L181.379 333.324L181.38 333.322L180.891 333.219ZM182.391 329.633L181.963 329.374L181.961 329.376L182.391 329.633ZM186.281 326.328L186.509 326.773L187.285 326.375L186.55 325.907L186.281 326.328ZM187.875 310.109L187.566 309.716L187.565 309.717L187.875 310.109ZM197.531 321.828L197.852 322.211L197.853 322.211L197.531 321.828ZM199.711 317.867L200.2 317.973L200.2 317.972L199.711 317.867ZM189.914 317.867L190.403 317.973L190.403 317.972L189.914 317.867ZM190.406 321.805L190.805 321.502L190.799 321.495L190.406 321.805ZM195.492 329.445L195.09 329.743L195.094 329.748L195.492 329.445ZM189.211 329.445L189.534 329.827L189.537 329.824L189.211 329.445ZM187.453 332.469L187.941 332.577L187.943 332.568L187.453 332.469ZM187.898 335.609L188.298 335.308L188.29 335.299L187.898 335.609ZM194.203 335.609L193.884 335.224L193.884 335.225L194.203 335.609ZM196.008 332.469L196.496 332.577L196.498 332.568L196.008 332.469ZM197.391 307.609C201.113 307.609 203.59 308.59 204.986 310.413L205.78 309.805C204.114 307.629 201.262 306.609 197.391 306.609L197.391 307.609ZM204.983 310.41C206.398 312.291 206.838 314.575 206.253 317.318L207.231 317.526C207.865 314.55 207.399 311.959 205.782 309.809L204.983 310.41ZM206.253 317.318C205.862 319.151 205.097 320.809 203.955 322.297L204.748 322.906C205.981 321.3 206.809 319.505 207.231 317.526L206.253 317.318ZM203.957 322.295C202.807 323.773 201.353 324.885 199.586 325.633L199.976 326.554C201.897 325.74 203.49 324.524 204.746 322.909L203.957 322.295ZM199.476 326.49C200.838 327.538 201.559 328.618 201.749 329.718L202.735 329.548C202.488 328.117 201.568 326.837 200.086 325.697L199.476 326.49ZM201.749 329.717C201.959 330.945 201.949 332.076 201.73 333.115L202.708 333.322C202.957 332.143 202.963 330.883 202.735 329.549L201.749 329.717ZM201.73 333.114C201.226 335.455 199.924 337.458 197.786 339.13L198.402 339.917C200.701 338.12 202.149 335.92 202.708 333.324L201.73 333.114ZM197.785 339.13C195.655 340.798 192.958 341.648 189.656 341.648L189.656 342.648C193.136 342.648 196.063 341.749 198.402 339.917L197.785 339.13ZM189.656 341.648C186.341 341.648 184.076 340.793 182.725 339.2L181.962 339.847C183.58 341.754 186.19 342.648 189.656 342.648L189.656 341.648ZM182.722 339.196C181.336 337.594 180.877 335.657 181.379 333.324L180.402 333.114C179.841 335.718 180.351 337.984 181.966 339.851L182.722 339.196ZM181.38 333.322C181.6 332.281 182.074 331.137 182.82 329.889L181.961 329.376C181.176 330.691 180.65 331.938 180.401 333.115L181.38 333.322ZM182.818 329.892C183.521 328.73 184.733 327.684 186.509 326.773L186.053 325.883C184.173 326.847 182.792 328.004 181.963 329.374L182.818 329.892ZM186.55 325.907C185.171 325.026 184.256 323.874 183.779 322.443L182.83 322.76C183.385 324.423 184.454 325.755 186.012 326.75L186.55 325.907ZM183.779 322.443C183.297 320.996 183.238 319.362 183.63 317.526L182.652 317.318C182.23 319.294 182.281 321.113 182.83 322.76L183.779 322.443ZM183.63 317.526C184.212 314.793 185.719 312.453 188.185 310.501L187.565 309.717C184.937 311.797 183.288 314.332 182.652 317.318L183.63 317.526ZM188.184 310.503C190.628 308.583 193.686 307.609 197.391 307.609L197.391 306.609C193.502 306.609 190.216 307.635 187.566 309.716L188.184 310.503ZM197.853 322.211C199.036 321.217 199.807 319.787 200.2 317.973L199.222 317.762C198.864 319.416 198.183 320.627 197.21 321.445L197.853 322.211ZM200.2 317.972C200.574 316.231 200.436 314.766 199.646 313.682L198.838 314.271C199.392 315.031 199.567 316.16 199.222 317.762L200.2 317.972ZM199.646 313.682C198.85 312.59 197.569 312.094 195.938 312.094L195.938 313.094C197.368 313.094 198.291 313.52 198.838 314.271L199.646 313.682ZM195.938 312.094C194.297 312.094 192.881 312.591 191.719 313.599L192.375 314.354C193.338 313.518 194.515 313.094 195.938 313.094L195.938 312.094ZM191.719 313.599C190.558 314.606 189.802 316.008 189.425 317.762L190.403 317.972C190.745 316.383 191.41 315.191 192.375 314.354L191.719 313.599ZM189.425 317.762C189.037 319.559 189.176 321.054 190.014 322.115L190.799 321.495C190.23 320.775 190.041 319.644 190.403 317.973L189.425 317.762ZM190.008 322.107C190.818 323.175 192.085 323.664 193.688 323.664L193.688 322.664C192.29 322.664 191.369 322.247 190.805 321.502L190.008 322.107ZM193.688 323.664C195.295 323.664 196.692 323.184 197.852 322.211L197.21 321.445C196.245 322.254 195.08 322.664 193.688 322.664L193.688 323.664ZM195.894 329.148C195.189 328.195 194.047 327.773 192.609 327.773L192.609 328.773C193.86 328.773 194.639 329.133 195.09 329.743L195.894 329.148ZM192.609 327.773C191.148 327.773 189.894 328.196 188.884 329.067L189.537 329.824C190.341 329.132 191.352 328.773 192.609 328.773L192.609 327.773ZM188.888 329.064C187.876 329.921 187.234 331.03 186.963 332.369L187.943 332.568C188.172 331.439 188.702 330.532 189.534 329.827L188.888 329.064ZM186.965 332.361C186.65 333.785 186.784 335.007 187.506 335.92L188.29 335.299C187.826 334.712 187.662 333.84 187.941 332.577L186.965 332.361ZM187.499 335.911C188.207 336.848 189.358 337.258 190.805 337.258L190.805 336.258C189.533 336.258 188.746 335.902 188.297 335.308L187.499 335.911ZM190.805 337.258C192.25 337.258 193.5 336.843 194.523 335.994L193.884 335.225C193.063 335.907 192.047 336.258 190.805 336.258L190.805 337.258ZM194.522 335.995C195.528 335.162 196.179 334.01 196.496 332.577L195.52 332.361C195.242 333.615 194.691 334.557 193.884 335.224L194.522 335.995ZM196.498 332.568C196.768 331.235 196.594 330.069 195.89 329.143L195.094 329.748C195.578 330.384 195.748 331.233 195.518 332.369L196.498 332.568Z" fill="black" mask="url(#path-9-outside-3_1_537)"/>
</g>
<defs>
<filter id="filter0_d_1_537" x="21.4958" y="25.3516" width="31.3218" height="40.0391" filterUnits="userSpaceOnUse" color-interpolation-filters="sRGB">
<feFlood flood-opacity="0" result="BackgroundImageFix"/>
<feColorMatrix in="SourceAlpha" type="matrix" values="0 0 0 0 0 0 0 0 0 0 0 0 0 0 0 0 0 0 127 0" result="hardAlpha"/>
<feOffset dx="1" dy="1"/>
<feGaussianBlur stdDeviation="1"/>
<feComposite in2="hardAlpha" operator="out"/>
<feColorMatrix type="matrix" values="0 0 0 0 0 0 0 0 0 0 0 0 0 0 0 0 0 0 0.8 0"/>
<feBlend mode="normal" in2="BackgroundImageFix" result="effect1_dropShadow_1_537"/>
<feBlend mode="normal" in="SourceGraphic" in2="effect1_dropShadow_1_537" result="shape"/>
</filter>
<filter id="filter1_d_1_537" x="177.182" y="303.609" width="31.3218" height="40.0391" filterUnits="userSpaceOnUse" color-interpolation-filters="sRGB">
<feFlood flood-opacity="0" result="BackgroundImageFix"/>
<feColorMatrix in="SourceAlpha" type="matrix" values="0 0 0 0 0 0 0 0 0 0 0 0 0 0 0 0 0 0 127 0" result="hardAlpha"/>
<feOffset dx="-1" dy="-1"/>
<feGaussianBlur stdDeviation="1"/>
<feComposite in2="hardAlpha" operator="out"/>
<feColorMatrix type="matrix" values="0 0 0 0 0 0 0 0 0 0 0 0 0 0 0 0 0 0 0.8 0"/>
<feBlend mode="normal" in2="BackgroundImageFix" result="effect1_dropShadow_1_537"/>
<feBlend mode="normal" in="SourceGraphic" in2="effect1_dropShadow_1_537" result="shape"/>
</filter>
</defs>
</svg>
