<svg width="230" height="366" viewBox="0 0 230 366" fill="none" xmlns="http://www.w3.org/2000/svg">
<path d="M16 0.5H214C222.56 0.5 229.5 7.43959 229.5 16V350C229.5 358.56 222.56 365.5 214 365.5H16C7.43959 365.5 0.5 358.56 0.5 350V16C0.5 7.43958 7.43959 0.5 16 0.5Z" fill="white" stroke="black"/>
<path d="M16 24C16 19.5817 19.5817 16 24 16H206C210.418 16 214 19.5817 214 24V342C214 346.418 210.418 350 206 350H24C19.5817 350 16 346.418 16 342V24Z" fill="#FF00FF"/>
<ellipse cx="115.174" cy="182.752" rx="79.14" ry="149.259" transform="rotate(30.6494 115.174 182.752)" fill="white"/>
<g filter="url(#filter0_d_1_404)">
<path d="M131.853 98.4855C132.468 96.9822 133.931 96 135.555 96H191.216C194.059 96 195.995 98.883 194.918 101.515L152.799 204.471C152.184 205.974 150.721 206.957 149.097 206.957H93.4364C90.5932 206.957 88.6577 204.074 89.7342 201.442L131.853 98.4855Z" fill="white"/>
</g>
<g filter="url(#filter1_d_1_404)">
<path d="M76.3745 161.529C76.9895 160.026 78.4525 159.043 80.0767 159.043H135.738C138.581 159.043 140.516 161.926 139.44 164.558L97.3211 267.515C96.7061 269.018 95.2432 270 93.6189 270H37.9581C35.1149 270 33.1794 267.117 34.2559 264.485L76.3745 161.529Z" fill="white"/>
</g>
<path d="M135.555 96.5H191.216C193.704 96.5 195.397 99.0226 194.455 101.325L152.337 204.282C151.799 205.597 150.518 206.457 149.097 206.457H93.4364C90.9486 206.457 89.255 203.934 90.197 201.631L132.316 98.6748C132.854 97.3594 134.134 96.5 135.555 96.5Z" fill="white" stroke="black"/>
<path d="M137.398 104.789C137.71 104.048 138.436 103.565 139.241 103.565H184.075C185.505 103.565 186.473 105.023 185.918 106.342L147.254 198.168C146.942 198.909 146.216 199.392 145.411 199.392H100.577C99.147 199.392 98.1791 197.934 98.7341 196.615L137.398 104.789Z" fill="#FF00FF"/>
<path d="M80.0767 159.543H135.738C138.225 159.543 139.919 162.066 138.977 164.369L96.8584 267.325C96.3202 268.641 95.0401 269.5 93.6189 269.5H37.9581C35.4703 269.5 33.7767 266.977 34.7187 264.675L76.8373 161.718C77.3754 160.403 78.6555 159.543 80.0767 159.543Z" fill="white" stroke="black"/>
<path d="M81.9195 167.833C82.2317 167.091 82.9581 166.609 83.7627 166.609H128.597C130.027 166.609 130.995 168.067 130.44 169.385L91.7762 261.211C91.4639 261.953 90.7376 262.435 89.9329 262.435H45.0991C43.6688 262.435 42.7008 260.977 43.2559 259.659L81.9195 167.833Z" fill="#FF00FF"/>
<g filter="url(#filter2_d_1_404)">
<mask id="path-10-outside-1_1_404" maskUnits="userSpaceOnUse" x="23" y="26" width="56" height="36" fill="black">
<rect fill="white" x="23" y="26" width="56" height="36"/>
<path d="M33.3594 51.3438H23.75L25.0625 45.2266H34.6719L36.7109 35.6172H42.875L40.8359 45.2266H50.4453L49.1328 51.3438H39.5234L37.4844 61H31.3203L33.3594 51.3438ZM62.7031 34.7734C62.0938 35.6484 61.5547 37.0391 61.0859 38.9453H54.5938C55.3125 36.0547 56.3281 33.7188 57.6406 31.9375C60.1406 28.5469 63.6641 26.8516 68.2109 26.8516C71.8047 26.8516 74.4531 27.8516 76.1562 29.8516C77.8594 31.8359 78.3594 34.4688 77.6562 37.75C77.125 40.2656 75.9062 42.5 74 44.4531C72.7344 45.75 70.8047 47.1953 68.2109 48.7891L65.1406 50.6875C63.2188 51.875 61.8906 52.7344 61.1562 53.2656C60.4219 53.7969 59.7734 54.4141 59.2109 55.1172H74.0469L72.8047 61H49.5312C50.1094 58.5625 51.1016 56.3359 52.5078 54.3203C53.9453 52.0547 56.7031 49.6562 60.7812 47.125C64.3281 44.9219 66.6562 43.3438 67.7656 42.3906C69.4688 40.9062 70.5078 39.2812 70.8828 37.5156C71.1953 36.0781 71.0547 34.8828 70.4609 33.9297C69.8672 32.9766 68.8281 32.5 67.3438 32.5C65.3125 32.5 63.7656 33.2578 62.7031 34.7734Z"/>
</mask>
<path d="M33.3594 51.3438H23.75L25.0625 45.2266H34.6719L36.7109 35.6172H42.875L40.8359 45.2266H50.4453L49.1328 51.3438H39.5234L37.4844 61H31.3203L33.3594 51.3438ZM62.7031 34.7734C62.0938 35.6484 61.5547 37.0391 61.0859 38.9453H54.5938C55.3125 36.0547 56.3281 33.7188 57.6406 31.9375C60.1406 28.5469 63.6641 26.8516 68.2109 26.8516C71.8047 26.8516 74.4531 27.8516 76.1562 29.8516C77.8594 31.8359 78.3594 34.4688 77.6562 37.75C77.125 40.2656 75.9062 42.5 74 44.4531C72.7344 45.75 70.8047 47.1953 68.2109 48.7891L65.1406 50.6875C63.2188 51.875 61.8906 52.7344 61.1562 53.2656C60.4219 53.7969 59.7734 54.4141 59.2109 55.1172H74.0469L72.8047 61H49.5312C50.1094 58.5625 51.1016 56.3359 52.5078 54.3203C53.9453 52.0547 56.7031 49.6562 60.7812 47.125C64.3281 44.9219 66.6562 43.3438 67.7656 42.3906C69.4688 40.9062 70.5078 39.2812 70.8828 37.5156C71.1953 36.0781 71.0547 34.8828 70.4609 33.9297C69.8672 32.9766 68.8281 32.5 67.3438 32.5C65.3125 32.5 63.7656 33.2578 62.7031 34.7734Z" fill="white"/>
<path d="M33.3594 51.3438L33.8486 51.4471L33.976 50.8438H33.3594V51.3438ZM23.75 51.3438L23.2611 51.2389L23.1313 51.8438H23.75V51.3438ZM25.0625 45.2266V44.7266H24.6584L24.5736 45.1217L25.0625 45.2266ZM34.6719 45.2266V45.7266H35.0769L35.161 45.3303L34.6719 45.2266ZM36.7109 35.6172V35.1172H36.3059L36.2218 35.5134L36.7109 35.6172ZM42.875 35.6172L43.3641 35.721L43.4922 35.1172H42.875V35.6172ZM40.8359 45.2266L40.3468 45.1228L40.2187 45.7266H40.8359V45.2266ZM50.4453 45.2266L50.9342 45.3315L51.064 44.7266H50.4453V45.2266ZM49.1328 51.3438V51.8438H49.5369L49.6217 51.4486L49.1328 51.3438ZM39.5234 51.3438V50.8438H39.118L39.0342 51.2404L39.5234 51.3438ZM37.4844 61V61.5H37.8898L37.9736 61.1033L37.4844 61ZM31.3203 61L30.8311 60.8967L30.7037 61.5H31.3203V61ZM33.3594 50.8438H23.75V51.8438H33.3594V50.8438ZM24.2389 51.4486L25.5514 45.3315L24.5736 45.1217L23.2611 51.2389L24.2389 51.4486ZM25.0625 45.7266H34.6719V44.7266H25.0625V45.7266ZM35.161 45.3303L37.2 35.721L36.2218 35.5134L34.1828 45.1228L35.161 45.3303ZM36.7109 36.1172H42.875V35.1172H36.7109V36.1172ZM42.3859 35.5134L40.3468 45.1228L41.325 45.3303L43.3641 35.721L42.3859 35.5134ZM40.8359 45.7266H50.4453V44.7266H40.8359V45.7266ZM49.9564 45.1217L48.6439 51.2389L49.6217 51.4486L50.9342 45.3315L49.9564 45.1217ZM49.1328 50.8438H39.5234V51.8438H49.1328V50.8438ZM39.0342 51.2404L36.9952 60.8967L37.9736 61.1033L40.0126 51.4471L39.0342 51.2404ZM37.4844 60.5H31.3203V61.5H37.4844V60.5ZM31.8095 61.1033L33.8486 51.4471L32.8702 51.2404L30.8311 60.8967L31.8095 61.1033ZM62.7031 34.7734L62.2937 34.4864L62.2928 34.4877L62.7031 34.7734ZM61.0859 38.9453V39.4453H61.4779L61.5715 39.0647L61.0859 38.9453ZM54.5938 38.9453L54.1085 38.8247L53.9542 39.4453H54.5938V38.9453ZM57.6406 31.9375L57.2382 31.6408L57.2381 31.6409L57.6406 31.9375ZM76.1562 29.8516L75.7756 30.1757L75.7768 30.1772L76.1562 29.8516ZM77.6562 37.75L77.1673 37.6452L77.167 37.6467L77.6562 37.75ZM74 44.4531L73.6422 44.1039L73.6422 44.1039L74 44.4531ZM68.2109 48.7891L67.9492 48.3631L67.948 48.3638L68.2109 48.7891ZM65.1406 50.6875L65.4034 51.1129L65.4036 51.1128L65.1406 50.6875ZM59.2109 55.1172L58.8205 54.8048L58.1706 55.6172H59.2109V55.1172ZM74.0469 55.1172L74.5361 55.2205L74.6635 54.6172H74.0469V55.1172ZM72.8047 61V61.5H73.2101L73.2939 61.1033L72.8047 61ZM49.5312 61L49.0447 60.8846L48.8988 61.5H49.5312V61ZM52.5078 54.3203L52.9179 54.6064L52.9241 54.5974L52.93 54.5882L52.5078 54.3203ZM60.7812 47.125L61.0449 47.5498L61.0451 47.5497L60.7812 47.125ZM67.7656 42.3906L68.0915 42.7699L68.0941 42.7676L67.7656 42.3906ZM70.8828 37.5156L70.3942 37.4094L70.3937 37.4117L70.8828 37.5156ZM62.2928 34.4877C61.6302 35.4391 61.0736 36.9016 60.6004 38.8259L61.5715 39.0647C62.0358 37.1766 62.5573 35.8578 63.1134 35.0592L62.2928 34.4877ZM61.0859 38.4453H54.5938V39.4453H61.0859V38.4453ZM55.079 39.066C55.7871 36.2181 56.7804 33.9479 58.0432 32.2341L57.2381 31.6409C55.8759 33.4896 54.8379 35.8912 54.1085 38.8247L55.079 39.066ZM58.0431 32.2342C60.4404 28.9828 63.8082 27.3516 68.2109 27.3516V26.3516C63.5199 26.3516 59.8408 28.111 57.2382 31.6408L58.0431 32.2342ZM68.2109 27.3516C71.7148 27.3516 74.1989 28.3242 75.7756 30.1757L76.5369 29.5274C74.7074 27.3789 71.8945 26.3516 68.2109 26.3516V27.3516ZM75.7768 30.1772C77.3504 32.0106 77.8479 34.4693 77.1673 37.6452L78.1452 37.8548C78.8708 34.4682 78.3684 31.6613 76.5357 29.5259L75.7768 30.1772ZM77.167 37.6467C76.6566 40.0637 75.4865 42.2143 73.6422 44.1039L74.3578 44.8024C76.326 42.7857 77.5934 40.4675 78.1455 37.8533L77.167 37.6467ZM73.6422 44.1039C72.4182 45.3581 70.5281 46.7784 67.9492 48.3631L68.4727 49.2151C71.0812 47.6122 73.0506 46.1419 74.3578 44.8023L73.6422 44.1039ZM67.948 48.3638L64.8777 50.2622L65.4036 51.1128L68.4739 49.2143L67.948 48.3638ZM64.8778 50.2621C62.9563 51.4494 61.614 52.3174 60.8632 52.8605L61.4493 53.6707C62.1672 53.1514 63.4812 52.3006 65.4034 51.1129L64.8778 50.2621ZM60.8632 52.8605C60.0926 53.418 59.4113 54.0663 58.8205 54.8048L59.6014 55.4295C60.1356 54.7618 60.7512 54.1758 61.4493 53.6707L60.8632 52.8605ZM59.2109 55.6172H74.0469V54.6172H59.2109V55.6172ZM73.5577 55.0139L72.3155 60.8967L73.2939 61.1033L74.5361 55.2205L73.5577 55.0139ZM72.8047 60.5H49.5312V61.5H72.8047V60.5ZM50.0178 61.1154C50.5816 58.7379 51.5483 56.5694 52.9179 54.6064L52.0977 54.0342C50.6548 56.1024 49.6371 58.3871 49.0447 60.8846L50.0178 61.1154ZM52.93 54.5882C54.3068 52.4182 56.988 50.0679 61.0449 47.5498L60.5176 46.7002C56.4183 49.2446 53.5838 51.6912 52.0856 54.0524L52.93 54.5882ZM61.0451 47.5497C64.5876 45.3493 66.9483 43.752 68.0915 42.7699L67.4398 42.0114C66.3642 42.9355 64.0686 44.4945 60.5174 46.7003L61.0451 47.5497ZM68.0941 42.7676C69.8581 41.2302 70.9692 39.5154 71.3719 37.6195L70.3937 37.4117C70.0464 39.0471 69.0794 40.5823 67.4371 42.0137L68.0941 42.7676ZM71.3714 37.6218C71.7027 36.098 71.5672 34.7599 70.8853 33.6653L70.0365 34.1941C70.5422 35.0057 70.6879 36.0583 70.3942 37.4094L71.3714 37.6218ZM70.8853 33.6653C70.1715 32.5194 68.9382 32 67.3438 32V33C68.718 33 69.5629 33.4337 70.0365 34.1941L70.8853 33.6653ZM67.3438 32C65.168 32 63.46 32.8228 62.2937 34.4864L63.1125 35.0605C64.0713 33.6928 65.457 33 67.3438 33V32Z" fill="black" mask="url(#path-10-outside-1_1_404)"/>
</g>
<g filter="url(#filter3_d_1_404)">
<mask id="path-12-outside-2_1_404" maskUnits="userSpaceOnUse" x="151" y="300" width="56" height="36" fill="black">
<rect fill="white" x="151" y="300" width="56" height="36"/>
<path d="M205.696 315.688L196.144 315.688L196.144 325.24L191.008 325.24L191.008 315.688L181.456 315.688L181.456 310.552L191.008 310.552L191.008 301L196.144 301L196.144 310.552L205.696 310.552L205.696 315.688ZM177.107 322.504C176.787 326.568 175.427 329.704 173.027 331.912C170.627 334.152 167.491 335.272 163.619 335.272C162.083 335.272 160.643 335.064 159.299 334.648C157.955 334.264 156.771 333.656 155.747 332.824C154.723 331.992 153.923 330.936 153.347 329.656C152.739 328.376 152.435 326.872 152.435 325.144C152.435 323.512 152.787 322.04 153.491 320.728C154.195 319.448 155.107 318.28 156.227 317.224C157.347 316.2 158.627 315.256 160.067 314.392C161.475 313.528 162.883 312.68 164.291 311.848C165.699 311.048 167.043 310.248 168.323 309.448C169.603 308.648 170.675 307.784 171.539 306.856L154.979 306.856L156.323 301L181.187 301C181.059 303.08 180.595 304.888 179.795 306.424C178.995 307.96 177.971 309.304 176.723 310.456C175.475 311.64 174.067 312.696 172.499 313.624C170.931 314.552 169.331 315.448 167.699 316.312C166.867 316.792 165.971 317.288 165.011 317.8C164.019 318.312 163.107 318.888 162.275 319.528C161.411 320.2 160.691 320.952 160.115 321.784C159.539 322.616 159.251 323.592 159.251 324.712C159.251 326.408 159.763 327.608 160.787 328.312C161.779 329.048 162.995 329.416 164.435 329.416C165.363 329.416 166.211 329.224 166.979 328.84C167.715 328.488 168.355 327.992 168.899 327.352C169.411 326.712 169.827 325.976 170.147 325.144C170.435 324.312 170.595 323.432 170.627 322.504L177.107 322.504Z"/>
</mask>
<path d="M205.696 315.688L196.144 315.688L196.144 325.24L191.008 325.24L191.008 315.688L181.456 315.688L181.456 310.552L191.008 310.552L191.008 301L196.144 301L196.144 310.552L205.696 310.552L205.696 315.688ZM177.107 322.504C176.787 326.568 175.427 329.704 173.027 331.912C170.627 334.152 167.491 335.272 163.619 335.272C162.083 335.272 160.643 335.064 159.299 334.648C157.955 334.264 156.771 333.656 155.747 332.824C154.723 331.992 153.923 330.936 153.347 329.656C152.739 328.376 152.435 326.872 152.435 325.144C152.435 323.512 152.787 322.04 153.491 320.728C154.195 319.448 155.107 318.28 156.227 317.224C157.347 316.2 158.627 315.256 160.067 314.392C161.475 313.528 162.883 312.68 164.291 311.848C165.699 311.048 167.043 310.248 168.323 309.448C169.603 308.648 170.675 307.784 171.539 306.856L154.979 306.856L156.323 301L181.187 301C181.059 303.08 180.595 304.888 179.795 306.424C178.995 307.96 177.971 309.304 176.723 310.456C175.475 311.64 174.067 312.696 172.499 313.624C170.931 314.552 169.331 315.448 167.699 316.312C166.867 316.792 165.971 317.288 165.011 317.8C164.019 318.312 163.107 318.888 162.275 319.528C161.411 320.2 160.691 320.952 160.115 321.784C159.539 322.616 159.251 323.592 159.251 324.712C159.251 326.408 159.763 327.608 160.787 328.312C161.779 329.048 162.995 329.416 164.435 329.416C165.363 329.416 166.211 329.224 166.979 328.84C167.715 328.488 168.355 327.992 168.899 327.352C169.411 326.712 169.827 325.976 170.147 325.144C170.435 324.312 170.595 323.432 170.627 322.504L177.107 322.504Z" fill="white"/>
<path d="M205.696 315.688L205.696 316.188L206.196 316.188L206.196 315.688L205.696 315.688ZM196.144 315.688L196.144 315.188L195.644 315.188L195.644 315.688L196.144 315.688ZM196.144 325.24L196.144 325.74L196.644 325.74L196.644 325.24L196.144 325.24ZM191.008 325.24L190.508 325.24L190.508 325.74L191.008 325.74L191.008 325.24ZM191.008 315.688L191.508 315.688L191.508 315.188L191.008 315.188L191.008 315.688ZM181.456 315.688L180.956 315.688L180.956 316.188L181.456 316.188L181.456 315.688ZM181.456 310.552L181.456 310.052L180.956 310.052L180.956 310.552L181.456 310.552ZM191.008 310.552L191.008 311.052L191.508 311.052L191.508 310.552L191.008 310.552ZM191.008 301L191.008 300.5L190.508 300.5L190.508 301L191.008 301ZM196.144 301L196.644 301L196.644 300.5L196.144 300.5L196.144 301ZM196.144 310.552L195.644 310.552L195.644 311.052L196.144 311.052L196.144 310.552ZM205.696 310.552L206.196 310.552L206.196 310.052L205.696 310.052L205.696 310.552ZM205.696 315.188L196.144 315.188L196.144 316.188L205.696 316.188L205.696 315.188ZM195.644 315.688L195.644 325.24L196.644 325.24L196.644 315.688L195.644 315.688ZM196.144 324.74L191.008 324.74L191.008 325.74L196.144 325.74L196.144 324.74ZM191.508 325.24L191.508 315.688L190.508 315.688L190.508 325.24L191.508 325.24ZM191.008 315.188L181.456 315.188L181.456 316.188L191.008 316.188L191.008 315.188ZM181.956 315.688L181.956 310.552L180.956 310.552L180.956 315.688L181.956 315.688ZM181.456 311.052L191.008 311.052L191.008 310.052L181.456 310.052L181.456 311.052ZM191.508 310.552L191.508 301L190.508 301L190.508 310.552L191.508 310.552ZM191.008 301.5L196.144 301.5L196.144 300.5L191.008 300.5L191.008 301.5ZM195.644 301L195.644 310.552L196.644 310.552L196.644 301L195.644 301ZM196.144 311.052L205.696 311.052L205.696 310.052L196.144 310.052L196.144 311.052ZM205.196 310.552L205.196 315.688L206.196 315.688L206.196 310.552L205.196 310.552ZM177.107 322.504L177.605 322.543L177.648 322.004L177.107 322.004L177.107 322.504ZM173.027 331.912L172.688 331.544L172.686 331.546L173.027 331.912ZM159.299 334.648L159.447 334.17L159.436 334.167L159.299 334.648ZM155.747 332.824L155.431 333.212L155.431 333.212L155.747 332.824ZM153.347 329.656L153.803 329.451L153.798 329.441L153.347 329.656ZM153.491 320.728L153.053 320.487L153.05 320.492L153.491 320.728ZM156.227 317.224L155.889 316.855L155.884 316.86L156.227 317.224ZM160.067 314.392L160.324 314.821L160.328 314.818L160.067 314.392ZM164.291 311.848L164.044 311.413L164.036 311.418L164.291 311.848ZM168.323 309.448L168.588 309.872L168.588 309.872L168.323 309.448ZM171.539 306.856L171.905 307.197L172.687 306.356L171.539 306.356L171.539 306.856ZM154.979 306.856L154.491 306.744L154.351 307.356L154.979 307.356L154.979 306.856ZM156.323 301L156.323 300.5L155.925 300.5L155.835 300.888L156.323 301ZM181.187 301L181.686 301.031L181.718 300.5L181.187 300.5L181.187 301ZM179.795 306.424L179.351 306.193L179.351 306.193L179.795 306.424ZM176.723 310.456L176.384 310.089L176.379 310.093L176.723 310.456ZM172.499 313.624L172.244 313.194L172.244 313.194L172.499 313.624ZM167.699 316.312L167.465 315.87L167.457 315.874L167.449 315.879L167.699 316.312ZM165.011 317.8L165.24 318.244L165.246 318.241L165.011 317.8ZM162.275 319.528L161.97 319.132L161.968 319.133L162.275 319.528ZM160.115 321.784L159.704 321.499L159.704 321.499L160.115 321.784ZM160.787 328.312L161.085 327.91L161.077 327.905L161.07 327.9L160.787 328.312ZM166.979 328.84L166.763 328.389L166.755 328.393L166.979 328.84ZM168.899 327.352L169.28 327.676L169.285 327.67L169.289 327.664L168.899 327.352ZM170.147 325.144L170.613 325.323L170.616 325.316L170.619 325.308L170.147 325.144ZM170.627 322.504L170.627 322.004L170.144 322.004L170.127 322.487L170.627 322.504ZM176.608 322.465C176.296 326.436 174.974 329.441 172.688 331.544L173.365 332.28C175.88 329.967 177.278 326.7 177.605 322.543L176.608 322.465ZM172.686 331.546C170.394 333.685 167.388 334.772 163.619 334.772L163.619 335.772C167.593 335.772 170.859 334.619 173.368 332.278L172.686 331.546ZM163.619 334.772C162.128 334.772 160.739 334.57 159.447 334.17L159.151 335.126C160.547 335.558 162.037 335.772 163.619 335.772L163.619 334.772ZM159.436 334.167C158.153 333.801 157.031 333.223 156.062 332.436L155.431 333.212C156.511 334.089 157.756 334.727 159.161 335.129L159.436 334.167ZM156.062 332.436C155.102 331.656 154.349 330.664 153.803 329.451L152.891 329.861C153.497 331.208 154.343 332.328 155.431 333.212L156.062 332.436ZM153.798 329.441C153.228 328.242 152.935 326.814 152.935 325.144L151.935 325.144C151.935 326.93 152.249 328.51 152.895 329.871L153.798 329.441ZM152.935 325.144C152.935 323.586 153.27 322.197 153.931 320.964L153.05 320.492C152.304 321.883 151.935 323.438 151.935 325.144L152.935 325.144ZM153.929 320.969C154.606 319.737 155.486 318.61 156.57 317.588L155.884 316.86C154.728 317.95 153.783 319.159 153.053 320.487L153.929 320.969ZM156.564 317.593C157.657 316.594 158.91 315.669 160.324 314.821L159.81 313.963C158.344 314.843 157.036 315.806 155.889 316.855L156.564 317.593ZM160.328 314.818C161.734 313.956 163.14 313.109 164.545 312.278L164.036 311.418C162.626 312.251 161.216 313.1 159.805 313.966L160.328 314.818ZM164.538 312.283C165.951 311.48 167.301 310.676 168.588 309.872L168.058 309.024C166.784 309.82 165.446 310.616 164.044 311.413L164.538 312.283ZM168.588 309.872C169.898 309.053 171.006 308.162 171.905 307.197L171.173 306.515C170.344 307.406 169.307 308.243 168.058 309.024L168.588 309.872ZM171.539 306.356L154.979 306.356L154.979 307.356L171.539 307.356L171.539 306.356ZM155.466 306.968L156.81 301.112L155.835 300.888L154.491 306.744L155.466 306.968ZM156.323 301.5L181.187 301.5L181.187 300.5L156.323 300.5L156.323 301.5ZM180.688 300.969C180.563 302.993 180.113 304.73 179.351 306.193L180.238 306.655C181.076 305.046 181.554 303.167 181.686 301.031L180.688 300.969ZM179.351 306.193C178.577 307.679 177.588 308.976 176.384 310.089L177.062 310.823C178.353 309.632 179.412 308.241 180.238 306.655L179.351 306.193ZM176.379 310.093C175.159 311.25 173.782 312.284 172.244 313.194L172.753 314.054C174.352 313.108 175.79 312.03 177.067 310.819L176.379 310.093ZM172.244 313.194C170.683 314.118 169.09 315.01 167.465 315.87L167.933 316.754C169.572 315.886 171.179 314.986 172.753 314.054L172.244 313.194ZM167.449 315.879C166.622 316.356 165.731 316.849 164.775 317.359L165.246 318.241C166.21 317.727 167.111 317.228 167.949 316.745L167.449 315.879ZM164.781 317.356C163.765 317.881 162.827 318.472 161.97 319.132L162.58 319.924C163.386 319.304 164.273 318.743 165.24 318.244L164.781 317.356ZM161.968 319.133C161.067 319.834 160.311 320.622 159.704 321.499L160.526 322.069C161.071 321.282 161.755 320.566 162.582 319.923L161.968 319.133ZM159.704 321.499C159.064 322.424 158.751 323.502 158.751 324.712L159.751 324.712C159.751 323.682 160.014 322.808 160.526 322.069L159.704 321.499ZM158.751 324.712C158.751 326.507 159.297 327.895 160.503 328.724L161.07 327.9C160.228 327.321 159.751 326.309 159.751 324.712L158.751 324.712ZM160.489 328.714C161.581 329.524 162.906 329.916 164.435 329.916L164.435 328.916C163.084 328.916 161.977 328.572 161.085 327.91L160.489 328.714ZM164.435 329.916C165.434 329.916 166.359 329.709 167.202 329.287L166.755 328.393C166.062 328.739 165.292 328.916 164.435 328.916L164.435 329.916ZM167.194 329.291C167.996 328.908 168.692 328.368 169.28 327.676L168.518 327.028C168.018 327.616 167.434 328.068 166.763 328.389L167.194 329.291ZM169.289 327.664C169.836 326.981 170.277 326.199 170.613 325.323L169.68 324.965C169.377 325.753 168.986 326.443 168.508 327.04L169.289 327.664ZM170.619 325.308C170.924 324.426 171.093 323.496 171.126 322.521L170.127 322.487C170.097 323.368 169.945 324.198 169.674 324.98L170.619 325.308ZM170.627 323.004L177.107 323.004L177.107 322.004L170.627 322.004L170.627 323.004Z" fill="black" mask="url(#path-12-outside-2_1_404)"/>
</g>
<defs>
<filter id="filter0_d_1_404" x="89.4324" y="96" width="109.787" height="114.957" filterUnits="userSpaceOnUse" color-interpolation-filters="sRGB">
<feFlood flood-opacity="0" result="BackgroundImageFix"/>
<feColorMatrix in="SourceAlpha" type="matrix" values="0 0 0 0 0 0 0 0 0 0 0 0 0 0 0 0 0 0 127 0" result="hardAlpha"/>
<feOffset dx="4" dy="4"/>
<feComposite in2="hardAlpha" operator="out"/>
<feColorMatrix type="matrix" values="0 0 0 0 0 0 0 0 0 0 0 0 0 0 0 0 0 0 1 0"/>
<feBlend mode="normal" in2="BackgroundImageFix" result="effect1_dropShadow_1_404"/>
<feBlend mode="normal" in="SourceGraphic" in2="effect1_dropShadow_1_404" result="shape"/>
</filter>
<filter id="filter1_d_1_404" x="33.9541" y="159.043" width="109.787" height="114.957" filterUnits="userSpaceOnUse" color-interpolation-filters="sRGB">
<feFlood flood-opacity="0" result="BackgroundImageFix"/>
<feColorMatrix in="SourceAlpha" type="matrix" values="0 0 0 0 0 0 0 0 0 0 0 0 0 0 0 0 0 0 127 0" result="hardAlpha"/>
<feOffset dx="4" dy="4"/>
<feComposite in2="hardAlpha" operator="out"/>
<feColorMatrix type="matrix" values="0 0 0 0 0 0 0 0 0 0 0 0 0 0 0 0 0 0 1 0"/>
<feBlend mode="normal" in2="BackgroundImageFix" result="effect1_dropShadow_1_404"/>
<feBlend mode="normal" in="SourceGraphic" in2="effect1_dropShadow_1_404" result="shape"/>
</filter>
<filter id="filter2_d_1_404" x="22.1313" y="25.3516" width="59.3328" height="39.1484" filterUnits="userSpaceOnUse" color-interpolation-filters="sRGB">
<feFlood flood-opacity="0" result="BackgroundImageFix"/>
<feColorMatrix in="SourceAlpha" type="matrix" values="0 0 0 0 0 0 0 0 0 0 0 0 0 0 0 0 0 0 127 0" result="hardAlpha"/>
<feOffset dx="1" dy="1"/>
<feGaussianBlur stdDeviation="1"/>
<feComposite in2="hardAlpha" operator="out"/>
<feColorMatrix type="matrix" values="0 0 0 0 0 0 0 0 0 0 0 0 0 0 0 0 0 0 0.8 0"/>
<feBlend mode="normal" in2="BackgroundImageFix" result="effect1_dropShadow_1_404"/>
<feBlend mode="normal" in="SourceGraphic" in2="effect1_dropShadow_1_404" result="shape"/>
</filter>
<filter id="filter3_d_1_404" x="148.935" y="297.5" width="58.2612" height="39.272" filterUnits="userSpaceOnUse" color-interpolation-filters="sRGB">
<feFlood flood-opacity="0" result="BackgroundImageFix"/>
<feColorMatrix in="SourceAlpha" type="matrix" values="0 0 0 0 0 0 0 0 0 0 0 0 0 0 0 0 0 0 127 0" result="hardAlpha"/>
<feOffset dx="-1" dy="-1"/>
<feGaussianBlur stdDeviation="1"/>
<feComposite in2="hardAlpha" operator="out"/>
<feColorMatrix type="matrix" values="0 0 0 0 0 0 0 0 0 0 0 0 0 0 0 0 0 0 0.8 0"/>
<feBlend mode="normal" in2="BackgroundImageFix" result="effect1_dropShadow_1_404"/>
<feBlend mode="normal" in="SourceGraphic" in2="effect1_dropShadow_1_404" result="shape"/>
</filter>
</defs>
</svg>
