<svg width="231" height="367" viewBox="0 0 231 367" fill="none" xmlns="http://www.w3.org/2000/svg">
<path d="M16.9681 0.516113H214.968C223.529 0.516113 230.468 7.4557 230.468 16.0161V350.016C230.468 358.577 223.529 365.516 214.968 365.516H16.9681C8.40773 365.516 1.46814 358.577 1.46814 350.016V16.0161C1.46814 7.4557 8.40773 0.516113 16.9681 0.516113Z" fill="white" stroke="black"/>
<rect x="16.9681" y="16.0161" width="198" height="334" rx="8" fill="black"/>
<ellipse cx="116.232" cy="180.884" rx="87.2682" ry="164.589" transform="rotate(30.6494 116.232 180.884)" fill="white"/>
<path d="M28.269 183.058C35.4398 164.495 45.0398 146.125 56.4658 129.101C67.8918 112.078 80.8967 96.7696 94.6631 84.1383C108.43 71.507 122.66 61.8258 136.46 55.7034C150.26 49.5809 163.331 47.1494 174.852 48.5618L116.142 182.768L28.269 183.058Z" fill="#007842"/>
<path d="M174.734 48.5476C185.829 49.8813 195.266 54.7458 202.495 62.8575C209.724 70.9692 214.6 82.166 216.84 95.7956C219.08 109.425 218.639 125.215 215.542 142.245C212.446 159.275 206.755 177.205 198.803 194.989L116.142 182.768L174.734 48.5476Z" fill="#E2AE01"/>
<path d="M204.049 182.392C196.805 201.164 187.077 219.739 175.489 236.925C163.901 254.111 150.71 269.526 136.763 282.182C122.816 294.837 108.422 304.452 94.5046 310.409C80.5875 316.366 67.4557 318.533 55.9526 316.771L116.142 182.768L204.049 182.392Z" fill="#C60001"/>
<path d="M56.8334 316.898C35.9991 314.089 21.5086 298.754 16.232 273.931C10.9554 249.108 15.2777 216.608 28.3427 182.867L116.142 182.768L56.8334 316.898Z" fill="#015F8F"/>
<ellipse cx="38.8572" cy="42.6367" rx="12.0153" ry="22.661" transform="rotate(-149.351 38.8572 42.6367)" fill="white"/>
<path d="M50.3801 43.7666C49.3203 46.1933 47.9732 48.5604 46.4156 50.7326C44.858 52.9049 43.1205 54.8397 41.3022 56.4267C39.484 58.0137 37.6206 59.2218 35.8185 59.9819C34.0164 60.7421 32.3108 61.0395 30.7992 60.8571L38.8695 42.3775L50.3801 43.7666Z" fill="#007842"/>
<path d="M30.8023 60.8574C29.2748 60.6738 27.9755 60.004 26.9802 58.8872C25.9849 57.7704 25.3135 56.2287 25.0051 54.3522C24.6967 52.4756 24.7574 50.3017 25.1838 47.9569C25.6101 45.6122 26.3936 43.1436 27.4885 40.6949L38.8695 42.3775L30.8023 60.8574Z" fill="#E2AE01"/>
<path d="M27.4094 40.8731C28.4923 38.4166 29.8683 36.0246 31.457 33.8372C33.0456 31.6499 34.815 29.7111 36.6615 28.1343C38.508 26.5575 40.3945 25.3745 42.2106 24.6544C44.0267 23.9343 45.7359 23.6917 47.2382 23.9407L38.8695 42.3775L27.4094 40.8731Z" fill="#C60001"/>
<path d="M47.0353 23.9102C50.0702 24.3194 52.1204 26.6575 52.735 30.4102C53.3497 34.1628 52.4783 39.0226 50.3126 43.9204L38.8695 42.3775L47.0353 23.9102Z" fill="#015F8F"/>
<ellipse cx="192.857" cy="324.637" rx="12.0153" ry="22.661" transform="rotate(30.6494 192.857 324.637)" fill="white"/>
<path d="M181.334 323.507C182.394 321.08 183.741 318.713 185.299 316.541C186.856 314.369 188.594 312.434 190.412 310.847C192.23 309.26 194.094 308.052 195.896 307.291C197.698 306.531 199.404 306.234 200.915 306.416L192.845 324.896L181.334 323.507Z" fill="#007842"/>
<path d="M200.912 306.416C202.44 306.6 203.739 307.269 204.734 308.386C205.729 309.503 206.401 311.045 206.709 312.921C207.018 314.798 206.957 316.972 206.531 319.317C206.104 321.661 205.321 324.13 204.226 326.579L192.845 324.896L200.912 306.416Z" fill="#E2AE01"/>
<path d="M204.305 326.4C203.222 328.857 201.846 331.249 200.257 333.436C198.669 335.624 196.899 337.562 195.053 339.139C193.206 340.716 191.32 341.899 189.504 342.619C187.688 343.339 185.978 343.582 184.476 343.333L192.845 324.896L204.305 326.4Z" fill="#C60001"/>
<path d="M184.679 343.363C181.644 342.954 179.594 340.616 178.979 336.863C178.365 333.111 179.236 328.251 181.402 323.353L192.845 324.896L184.679 343.363Z" fill="#015F8F"/>
</svg>
